<svg width="364" height="485" viewBox="0 0 364 485" fill="none" xmlns="http://www.w3.org/2000/svg">
<path d="M445.81 144.228C445.81 144.228 444.213 144.307 441.22 144.455C438.244 144.598 433.846 145.003 428.254 145.71C422.691 146.445 415.95 147.52 408.305 149.216C400.672 150.934 392.061 153.085 382.902 156.172C373.721 159.199 363.865 162.87 353.779 167.543C343.654 172.13 333.295 177.695 323.028 184.175L322.067 184.788L320.902 185.578L319.081 186.849L315.42 189.406C312.957 191.101 310.551 192.818 308.008 194.888C305.509 196.887 302.996 198.896 300.471 200.917C298.094 202.984 295.707 205.063 293.308 207.149C283.803 215.53 274.604 224.318 265.448 232.951C256.262 241.588 247.228 250.181 238.146 258.344C229.099 266.573 219.958 274.186 210.88 281.294C201.635 288.082 192.519 294.483 183.288 299.47C174.191 304.746 165.054 308.706 156.442 311.946C147.755 315.285 139.68 317.339 132.291 318.732C124.934 320.06 118.398 320.571 112.993 320.72C107.583 320.861 103.312 320.634 100.401 320.446C97.4914 320.202 95.94 320.072 95.94 320.072L95.589 322.363C95.589 322.363 97.1463 322.656 100.065 323.208C102.996 323.706 107.314 324.387 112.887 324.82C118.455 325.275 125.291 325.389 133.097 324.655C140.841 323.913 149.743 322.443 158.916 319.82C168.196 317.245 178.186 313.923 188.229 309.236C190.739 308.065 193.325 306.938 195.874 305.676C198.369 304.32 200.894 302.945 203.447 301.555C208.65 298.895 213.505 295.526 218.706 292.437C228.701 285.768 238.891 278.604 248.598 270.727C258.405 262.962 268.096 254.83 277.719 246.848C287.359 238.847 297.083 231.13 306.889 224.088C309.335 222.343 311.772 220.604 314.196 218.876C316.592 217.255 318.975 215.643 321.345 214.04C325.918 210.946 331.616 207.334 335.933 204.576C345.563 198.485 355.013 192.829 364.072 187.55C373.168 182.354 381.866 177.518 390.049 173.276C398.242 169.059 405.839 165.252 412.681 162.035C419.491 158.726 425.546 156.031 430.528 153.697C435.556 151.419 439.507 149.63 442.201 148.41C444.918 147.144 446.368 146.47 446.368 146.47L445.81 144.228Z" fill="#891542"/>
<path d="M283.013 222.241C283.013 222.241 281.265 221.949 278.205 221.433C277.438 221.305 276.592 221.162 275.67 221.006C274.658 220.889 273.563 220.764 272.392 220.63C270.056 220.371 267.413 220.024 264.636 219.956C259.051 219.569 252.519 219.709 245.615 220.298C242.17 220.676 238.614 221.069 235.056 221.755C233.281 222.1 231.491 222.452 229.696 222.8L224.373 224.17C220.842 225.125 217.361 226.264 214.005 227.523C212.34 228.181 210.687 228.835 209.056 229.479C207.468 230.221 205.9 230.956 204.358 231.679C201.274 233.096 198.451 234.814 195.763 236.336C193.175 238.058 190.645 239.515 188.537 241.216C186.369 242.815 184.416 244.305 182.815 245.794C181.177 247.232 179.729 248.442 178.676 249.603C176.503 251.822 175.26 253.091 175.26 253.091C175.26 253.091 176.66 252.007 179.107 250.107C180.289 249.114 181.886 248.114 183.672 246.933C185.422 245.697 187.529 244.511 189.835 243.251C192.077 241.893 194.732 240.82 197.414 239.517C200.2 238.412 203.083 237.15 206.199 236.208C207.747 235.727 209.321 235.237 210.912 234.741C212.53 234.347 214.167 233.947 215.819 233.542C219.123 232.795 222.516 232.177 225.915 231.742L231.009 231.15C232.709 231.055 234.403 230.962 236.082 230.868C239.431 230.684 242.741 230.777 245.913 230.858C252.269 231.194 258.141 231.867 263.077 232.905C265.591 233.307 267.723 233.915 269.636 234.386C270.589 234.625 271.483 234.846 272.306 235.053C273.198 235.331 274.019 235.588 274.758 235.819C277.719 236.744 279.41 237.275 279.41 237.275L283.013 222.241Z" fill="#891542"/>
<path d="M370.678 164.516C370.678 164.516 368.744 164.9 365.357 165.573C363.814 165.785 362.204 165.844 360.181 166.074C358.081 166.207 355.413 166.178 352.639 166.23C349.771 166.102 346.693 166.08 343.359 165.844C340.034 165.629 336.517 165.405 332.841 165.081C325.449 164.483 317.563 163.844 309.676 163.208C305.693 162.975 301.731 162.685 297.785 162.616C293.864 162.432 289.972 162.491 286.221 162.554C282.471 162.604 278.827 162.983 275.407 163.239C271.987 163.839 268.742 164.033 265.824 164.882C262.907 165.662 260.21 166.172 257.977 167.232C255.739 168.211 253.681 168.749 252.246 169.797C249.285 171.593 247.592 172.618 247.592 172.618C247.592 172.618 249.386 171.813 252.527 170.399C254.02 169.557 256.144 169.272 258.4 168.596C260.645 167.841 263.355 167.671 266.223 167.265C269.079 166.796 272.292 166.997 275.588 166.82C278.93 166.983 282.434 167.044 286.062 167.442C289.69 167.829 293.421 168.225 297.215 168.875C301.003 169.405 304.85 170.168 308.688 170.871C316.4 172.458 324.112 174.049 331.342 175.536C334.969 176.312 338.537 176.985 341.926 177.625C345.302 178.286 348.614 178.725 351.62 179.228C354.744 179.56 357.487 179.933 360.181 180.098C362.953 180.174 365.539 180.266 367.428 180.212C370.873 179.96 372.841 179.815 372.841 179.815L370.678 164.516Z" fill="#891542"/>
<path d="M295.242 213.192C295.242 213.192 295.68 215.241 296.447 218.832C296.85 220.644 297.319 222.823 297.628 225.123C297.953 227.49 298.543 230.104 298.743 233.111C299.021 236.093 299.416 239.338 299.417 242.762C299.62 246.205 299.471 249.802 299.271 253.542C299.263 255.43 298.905 257.282 298.702 259.197C298.456 261.1 298.291 263.061 297.808 264.952C297.385 266.857 297.026 268.814 296.541 270.741L294.759 276.436C294.184 278.357 293.249 280.115 292.515 281.973C291.807 283.851 290.842 285.579 289.854 287.285C288.08 290.841 285.645 293.886 283.443 296.99C280.874 299.759 278.563 302.685 275.807 304.873C274.469 306.01 273.254 307.244 271.91 308.218C270.549 309.177 269.235 310.105 267.972 310.994C265.51 312.907 262.9 314.079 260.715 315.371C258.533 316.685 256.496 317.55 254.809 318.253C251.443 319.709 249.52 320.542 249.52 320.542C249.52 320.542 251.529 319.936 255.045 318.873C256.816 318.362 258.97 317.729 261.315 316.662C263.663 315.621 266.474 314.72 269.207 313.068C270.613 312.302 272.076 311.503 273.592 310.676C275.098 309.825 276.5 308.707 278.034 307.679C281.186 305.706 283.966 302.951 287.053 300.282C289.773 297.281 292.786 294.263 295.152 290.658C296.438 288.923 297.707 287.148 298.717 285.213C299.753 283.298 300.999 281.446 301.872 279.437L304.551 273.411C305.329 271.366 305.974 269.282 306.681 267.229C307.447 265.182 307.885 263.089 308.396 261.027C308.865 258.96 309.484 256.925 309.74 254.888C310.436 250.826 311.052 246.872 311.272 243.11C311.694 239.34 311.688 235.787 311.758 232.491C311.909 229.212 311.612 226.117 311.539 223.398C311.46 220.606 311.239 218.39 311.053 216.587C310.704 212.933 310.504 210.847 310.504 210.847L295.242 213.192Z" fill="#891542"/>
<path d="M220.57 168.228C224.579 187.058 243.092 199.072 261.922 195.063C280.751 191.054 292.767 172.54 288.758 153.71C284.749 134.88 266.236 122.866 247.407 126.875C228.575 130.883 216.563 149.396 220.57 168.228Z" fill="#A61C57"/>
<mask id="mask0_207_3476" style="mask-type:luminance" maskUnits="userSpaceOnUse" x="217" y="82" width="56" height="74">
<path d="M252.097 155.075C250.861 152.807 244.571 148.153 236.302 143.43C226.229 137.675 216.889 128.409 217.835 114.932C218.542 104.873 224.325 96.3034 228.629 87.1834C228.629 87.1834 234.837 86.9633 239.43 89.4138C242.628 85.3061 248.386 82.977 248.386 82.977C256.032 89.5521 264.802 95.024 269.546 103.924C275.899 115.847 271.147 128.114 264.289 137.473C258.663 145.153 254.812 151.966 254.607 154.54L252.097 155.075Z" fill="white"/>
</mask>
<g mask="url(#mask0_207_3476)">
<path d="M252.097 155.075C250.861 152.807 244.571 148.153 236.302 143.43C226.229 137.675 216.889 128.409 217.835 114.932C218.542 104.873 224.325 96.3034 228.629 87.1834C228.629 87.1834 234.837 86.9633 239.43 89.4138C242.628 85.3061 248.386 82.977 248.386 82.977C256.032 89.5521 264.802 95.024 269.546 103.924C275.899 115.847 271.147 128.114 264.289 137.473C258.663 145.153 254.812 151.966 254.607 154.54L252.097 155.075Z" fill="white"/>
<path d="M252.332 155.025C251.328 153.184 246.218 149.402 239.503 145.567C231.319 140.893 223.733 133.365 224.502 122.416C225.075 114.245 229.774 107.283 233.269 99.8754C233.269 99.8754 238.312 99.6968 242.043 101.687C244.641 98.3498 249.32 96.4579 249.32 96.4579C255.53 101.799 262.657 106.244 266.509 113.475C271.671 123.161 267.81 133.127 262.239 140.73C257.668 146.968 254.543 152.503 254.374 154.594L252.332 155.025Z" fill="#F6DCEF"/>
</g>
<mask id="mask1_207_3476" style="mask-type:luminance" maskUnits="userSpaceOnUse" x="217" y="82" width="56" height="74">
<path d="M252.097 155.075C250.861 152.807 244.571 148.153 236.302 143.43C226.229 137.675 216.889 128.409 217.835 114.932C218.542 104.873 224.325 96.3034 228.629 87.1834C228.629 87.1834 234.837 86.9633 239.43 89.4138C242.628 85.3061 248.386 82.977 248.386 82.977C256.032 89.5521 264.802 95.024 269.546 103.924C275.899 115.847 271.147 128.114 264.289 137.473C258.663 145.153 254.812 151.966 254.607 154.54L252.097 155.075Z" fill="white"/>
</mask>
<g mask="url(#mask1_207_3476)">
<path d="M252.776 154.93C252.192 153.812 249.011 150.279 245.177 147.912C240.506 145.03 236.152 140.435 236.498 133.846C236.508 133.672 236.526 133.478 236.553 133.274C238.021 121.942 253.967 118.547 259.924 128.298C260.031 128.475 260.127 128.643 260.207 128.799C263.206 134.676 261.101 140.647 258.008 145.18C255.47 148.902 254.004 153.427 253.927 154.685L252.776 154.93Z" fill="#E89DD5"/>
</g>
<mask id="mask2_207_3476" style="mask-type:luminance" maskUnits="userSpaceOnUse" x="259" y="110" width="68" height="56">
<path d="M259.474 156.706C261.248 154.828 263.733 147.409 265.668 138.087C268.028 126.727 273.956 114.982 287.065 111.716C296.85 109.28 306.787 112.131 316.79 113.404C316.79 113.404 318.919 119.24 318.007 124.367C322.903 126.139 326.898 130.896 326.898 130.896C323.006 140.198 320.515 150.233 313.515 157.494C304.138 167.22 291.003 166.49 279.982 162.86C270.94 159.881 263.27 158.328 260.758 158.927L259.474 156.706Z" fill="white"/>
</mask>
<g mask="url(#mask2_207_3476)">
<path d="M259.474 156.706C261.248 154.828 263.733 147.409 265.668 138.087C268.028 126.727 273.956 114.982 287.065 111.716C296.85 109.28 306.787 112.131 316.79 113.404C316.79 113.404 318.919 119.24 318.007 124.367C322.903 126.139 326.898 130.896 326.898 130.896C323.006 140.198 320.515 150.233 313.515 157.494C304.138 167.22 291.003 166.49 279.982 162.86C270.94 159.881 263.27 158.328 260.758 158.927L259.474 156.706Z" fill="white"/>
<path d="M259.596 156.913C261.038 155.388 263.054 149.361 264.626 141.788C266.545 132.561 271.358 123.02 282.009 120.367C289.957 118.387 298.029 120.704 306.156 121.739C306.156 121.739 307.883 126.479 307.143 130.645C311.119 132.084 314.364 135.95 314.364 135.95C311.204 143.507 309.18 151.657 303.493 157.555C295.876 165.457 285.204 164.863 276.254 161.916C268.907 159.497 262.678 158.234 260.637 158.722L259.596 156.913Z" fill="#F6DCEF"/>
</g>
<mask id="mask3_207_3476" style="mask-type:luminance" maskUnits="userSpaceOnUse" x="259" y="110" width="68" height="56">
<path d="M259.474 156.706C261.248 154.828 263.733 147.409 265.668 138.087C268.028 126.727 273.956 114.982 287.065 111.716C296.85 109.28 306.787 112.131 316.79 113.404C316.79 113.404 318.919 119.24 318.007 124.367C322.903 126.139 326.898 130.896 326.898 130.896C323.006 140.198 320.515 150.233 313.515 157.494C304.138 167.22 291.003 166.49 279.982 162.86C270.94 159.881 263.27 158.328 260.758 158.927L259.474 156.706Z" fill="white"/>
</mask>
<g mask="url(#mask3_207_3476)">
<path d="M259.822 157.307C260.704 156.407 263.085 152.289 264.148 147.912C265.446 142.578 268.471 137.017 274.844 135.312C275.012 135.267 275.2 135.225 275.404 135.187C286.635 133.083 294.791 147.199 287.359 155.877C287.224 156.035 287.094 156.177 286.969 156.301C282.308 160.971 275.978 160.812 270.711 159.274C266.388 158.01 261.631 158.016 260.411 158.329L259.822 157.307Z" fill="#E89DD5"/>
</g>
<mask id="mask4_207_3476" style="mask-type:luminance" maskUnits="userSpaceOnUse" x="258" y="164" width="62" height="57">
<path d="M260.204 164.225C262.536 165.333 270.362 165.402 279.826 164.362C291.36 163.096 304.361 165.105 311.517 176.563C316.859 185.115 317.217 195.448 319.096 205.357C319.096 205.357 314.202 209.183 309.047 209.901C308.875 215.106 305.584 220.373 305.584 220.373C295.532 219.547 285.22 220.278 276.153 215.864C264.003 209.953 260.639 197.233 260.684 185.632C260.724 176.112 259.832 168.338 258.484 166.134L260.204 164.225Z" fill="white"/>
</mask>
<g mask="url(#mask4_207_3476)">
<path d="M260.204 164.225C262.536 165.333 270.362 165.402 279.826 164.362C291.36 163.096 304.361 165.105 311.517 176.563C316.859 185.115 317.217 195.448 319.096 205.357C319.096 205.357 314.202 209.183 309.047 209.901C308.875 215.106 305.584 220.373 305.584 220.373C295.532 219.547 285.22 220.278 276.153 215.864C264.003 209.953 260.639 197.233 260.684 185.632C260.724 176.112 259.832 168.338 258.484 166.134L260.204 164.225Z" fill="white"/>
<path d="M260.044 164.404C261.938 165.304 268.295 165.359 275.982 164.516C285.351 163.488 295.913 165.119 301.727 174.427C306.067 181.376 306.357 189.769 307.884 197.818C307.884 197.818 303.909 200.927 299.721 201.51C299.58 205.737 296.908 210.017 296.908 210.017C288.743 209.346 280.366 209.938 273.002 206.354C263.133 201.553 260.401 191.219 260.438 181.796C260.469 174.061 259.743 167.747 258.651 165.957L260.044 164.404Z" fill="#F6DCEF"/>
</g>
<mask id="mask5_207_3476" style="mask-type:luminance" maskUnits="userSpaceOnUse" x="258" y="164" width="62" height="57">
<path d="M260.204 164.225C262.536 165.333 270.362 165.402 279.826 164.362C291.36 163.096 304.361 165.105 311.517 176.563C316.859 185.115 317.217 195.448 319.096 205.357C319.096 205.357 314.202 209.183 309.047 209.901C308.875 215.106 305.584 220.373 305.584 220.373C295.532 219.547 285.22 220.278 276.153 215.864C264.003 209.953 260.639 197.233 260.684 185.632C260.724 176.112 259.832 168.338 258.484 166.134L260.204 164.225Z" fill="white"/>
</mask>
<g mask="url(#mask5_207_3476)">
<path d="M259.738 164.743C260.867 165.304 265.52 166.293 270.011 165.954C275.484 165.541 281.708 166.697 285.301 172.232C285.397 172.378 285.494 172.545 285.594 172.729C291.068 182.759 280.161 194.88 269.61 190.493C269.416 190.413 269.242 190.334 269.084 190.254C263.203 187.264 261.397 181.195 261.233 175.708C261.099 171.206 259.625 166.683 258.948 165.618L259.738 164.743Z" fill="#E89DD5"/>
</g>
<mask id="mask6_207_3476" style="mask-type:luminance" maskUnits="userSpaceOnUse" x="208" y="166" width="56" height="70">
<path d="M253.278 167.244C252.946 169.804 255.296 177.268 259.21 185.946C263.978 196.522 266.086 209.508 257.4 219.856C250.916 227.581 241.202 231.113 232.357 235.961C232.357 235.961 227.207 232.491 224.929 227.806C219.926 229.251 213.899 227.749 213.899 227.749C211.579 217.935 207.699 208.353 209.092 198.366C210.961 184.983 222.016 177.855 233.064 174.314C242.13 171.408 249.249 168.158 250.929 166.196L253.278 167.244Z" fill="white"/>
</mask>
<g mask="url(#mask6_207_3476)">
<path d="M253.278 167.244C252.946 169.804 255.296 177.268 259.21 185.946C263.978 196.522 266.086 209.508 257.4 219.856C250.916 227.581 241.202 231.113 232.357 235.961C232.357 235.961 227.207 232.491 224.929 227.806C219.926 229.251 213.899 227.749 213.899 227.749C211.579 217.935 207.699 208.353 209.092 198.366C210.961 184.983 222.016 177.855 233.064 174.314C242.13 171.408 249.249 168.158 250.929 166.196L253.278 167.244Z" fill="white"/>
<path d="M253.057 167.146C252.788 169.226 254.698 175.287 257.877 182.339C261.751 190.932 263.464 201.481 256.407 209.887C251.139 216.161 243.248 219.033 236.064 222.971C236.064 222.971 231.879 220.152 230.03 216.349C225.965 217.522 221.07 216.301 221.07 216.301C219.184 208.329 216.033 200.544 217.166 192.431C218.683 181.559 227.666 175.769 236.64 172.891C244.005 170.531 249.787 167.891 251.15 166.297L253.057 167.146Z" fill="#F6DCEF"/>
</g>
<mask id="mask7_207_3476" style="mask-type:luminance" maskUnits="userSpaceOnUse" x="208" y="166" width="56" height="70">
<path d="M253.278 167.244C252.946 169.804 255.296 177.268 259.21 185.946C263.978 196.522 266.086 209.508 257.4 219.856C250.916 227.581 241.202 231.113 232.357 235.961C232.357 235.961 227.207 232.491 224.929 227.806C219.926 229.251 213.899 227.749 213.899 227.749C211.579 217.935 207.699 208.353 209.092 198.366C210.961 184.983 222.016 177.855 233.064 174.314C242.13 171.408 249.249 168.158 250.929 166.196L253.278 167.244Z" fill="white"/>
</mask>
<g mask="url(#mask7_207_3476)">
<path d="M252.642 166.963C252.457 168.209 252.954 172.941 254.665 177.107C256.75 182.185 257.572 188.461 253.42 193.588C253.309 193.725 253.182 193.87 253.039 194.021C245.19 202.324 230.293 195.699 231.205 184.309C231.223 184.102 231.245 183.91 231.27 183.737C232.296 177.221 237.509 173.627 242.677 171.776C246.918 170.256 250.762 167.458 251.565 166.486L252.642 166.963Z" fill="#E89DD5"/>
</g>
<mask id="mask8_207_3476" style="mask-type:luminance" maskUnits="userSpaceOnUse" x="208" y="166" width="56" height="70">
<path d="M253.278 167.244C252.946 169.804 255.296 177.268 259.21 185.946C263.978 196.522 266.086 209.508 257.4 219.856C250.916 227.581 241.202 231.113 232.357 235.961C232.357 235.961 227.207 232.491 224.929 227.806C219.926 229.251 213.899 227.749 213.899 227.749C211.579 217.935 207.699 208.353 209.092 198.366C210.961 184.983 222.016 177.855 233.064 174.314C242.13 171.408 249.249 168.158 250.929 166.196L253.278 167.244Z" fill="white"/>
</mask>
<g mask="url(#mask8_207_3476)">
<path d="M252.988 166.574C252.802 167.82 253.3 172.553 255.01 176.719C257.093 181.795 257.918 188.072 253.765 193.2C253.654 193.337 253.528 193.481 253.384 193.632C245.535 201.935 230.639 195.31 231.55 183.92C231.568 183.713 231.59 183.522 231.615 183.348C232.642 176.83 237.855 173.238 243.023 171.387C247.263 169.868 251.107 167.07 251.91 166.097L252.988 166.574Z" fill="#E89DD5"/>
</g>
<mask id="mask9_207_3476" style="mask-type:luminance" maskUnits="userSpaceOnUse" x="176" y="128" width="73" height="56">
<path d="M248.266 161.588C245.729 162.064 239.357 166.608 232.311 173.009C223.726 180.812 212.026 186.83 199.501 181.765C190.151 177.985 183.789 169.838 176.445 162.927C176.445 162.927 178.154 156.955 181.904 153.343C178.983 149.031 178.55 142.835 178.55 142.835C187.167 137.595 195.08 130.943 205.009 129.183C218.314 126.824 228.51 135.138 235.293 144.549C240.857 152.274 246.149 158.038 248.534 159.031L248.266 161.588Z" fill="white"/>
</mask>
<g mask="url(#mask9_207_3476)">
<path d="M248.266 161.588C245.729 162.064 239.357 166.608 232.311 173.009C223.726 180.812 212.026 186.83 199.501 181.765C190.151 177.985 183.789 169.838 176.445 162.927C176.445 162.927 178.154 156.955 181.904 153.343C178.983 149.031 178.55 142.835 178.55 142.835C187.167 137.595 195.08 130.943 205.009 129.183C218.314 126.824 228.51 135.138 235.293 144.549C240.857 152.274 246.149 158.038 248.534 159.031L248.266 161.588Z" fill="white"/>
<path d="M248.291 161.35C246.23 161.735 241.054 165.426 235.331 170.629C228.356 176.967 218.854 181.857 208.677 177.742C201.081 174.672 195.914 168.054 189.949 162.438C189.949 162.438 191.336 157.589 194.382 154.652C192.01 151.148 191.657 146.115 191.657 146.115C198.657 141.859 205.086 136.456 213.152 135.025C223.96 133.109 232.244 139.862 237.754 147.508C242.276 153.783 246.574 158.466 248.511 159.273L248.291 161.35Z" fill="#F6DCEF"/>
</g>
<mask id="mask10_207_3476" style="mask-type:luminance" maskUnits="userSpaceOnUse" x="176" y="128" width="73" height="56">
<path d="M248.266 161.588C245.729 162.064 239.357 166.608 232.311 173.009C223.726 180.812 212.026 186.83 199.501 181.765C190.151 177.985 183.789 169.838 176.445 162.927C176.445 162.927 178.154 156.955 181.904 153.343C178.983 149.031 178.55 142.835 178.55 142.835C187.167 137.595 195.08 130.943 205.009 129.183C218.314 126.824 228.51 135.138 235.293 144.549C240.857 152.274 246.149 158.038 248.534 159.031L248.266 161.588Z" fill="white"/>
</mask>
<g mask="url(#mask10_207_3476)">
<path d="M248.338 160.897C247.095 161.105 242.75 163.039 239.315 165.956C235.131 169.507 229.414 172.23 223.255 169.864C223.09 169.801 222.915 169.724 222.727 169.634C212.403 164.737 214.105 148.52 225.217 145.867C225.42 145.818 225.608 145.781 225.782 145.753C232.298 144.715 237.327 148.564 240.683 152.906C243.439 156.47 247.289 159.263 248.462 159.725L248.338 160.897Z" fill="#E89DD5"/>
</g>
<path d="M254.735 155.438C255.434 149.904 255.875 144.253 257.001 138.787C257.533 136.211 258.181 133.689 258.96 131.177C259.748 128.636 261.57 126.545 262.259 124.073C262.419 123.502 263.291 123.791 263.131 124.362C262.546 126.464 261.103 127.875 260.335 129.977C259.436 132.44 258.78 134.985 258.19 137.538C256.833 143.399 256.404 149.535 255.65 155.494C255.58 156.076 254.661 156.027 254.735 155.438Z" fill="white"/>
<path d="M254.095 160.048C254.102 154.155 253.82 148.607 251.142 143.249C248.723 138.413 244.391 134.795 239.841 132.069C239.332 131.765 239.834 130.994 240.343 131.298C245.201 134.211 249.13 137.894 251.958 142.826C254.959 148.057 255.02 154.252 255.013 160.104C255.012 160.696 254.095 160.639 254.095 160.048Z" fill="white"/>
<path d="M254.592 161.479C254.497 156.511 257.451 151.651 260.105 147.666C263.651 142.348 268.496 137.429 274.428 134.878C274.971 134.644 275.397 135.459 274.851 135.694C269.336 138.067 265.121 142.41 261.588 147.159C258.628 151.136 255.41 156.408 255.507 161.535C255.523 162.127 254.604 162.068 254.592 161.479Z" fill="white"/>
<path d="M254.7 160.205C264.766 152.733 274.766 145.146 283.974 136.621C284.411 136.218 285.028 136.899 284.594 137.301C275.385 145.826 265.386 153.413 255.319 160.884C254.846 161.234 254.226 160.556 254.7 160.205Z" fill="white"/>
<path d="M255.165 160.148C266.105 160.1 277.101 158.403 286.029 151.633C286.499 151.276 287.121 151.955 286.649 152.313C277.516 159.236 266.317 161.016 255.111 161.065C254.518 161.069 254.575 160.151 255.165 160.148Z" fill="white"/>
<path d="M254.513 160.445C257.772 160.282 262.504 164.348 265.099 165.902C271.23 169.579 277.009 173.823 282.512 178.38C282.962 178.752 282.468 179.53 282.01 179.151C277.767 175.638 273.366 172.367 268.781 169.317C266.492 167.794 264.132 166.381 261.76 164.995C260.047 163.995 256.55 161.259 254.459 161.365C253.866 161.393 253.926 160.475 254.513 160.445Z" fill="white"/>
<path d="M254.495 160.43C257.669 162.12 259.693 167.179 261.308 170.097C264.807 176.423 267.393 183.318 270.286 189.935C270.521 190.477 269.706 190.903 269.47 190.358C267.199 185.16 264.968 179.939 262.635 174.767C260.88 170.876 257.984 163.322 253.995 161.202C253.471 160.92 253.975 160.154 254.495 160.43Z" fill="white"/>
<path d="M255.352 161.684C254.684 167.323 254.133 172.881 254.816 178.55C255.518 184.37 258.4 189.761 261.034 194.903C261.303 195.431 260.489 195.852 260.218 195.325C257.748 190.504 255.437 185.714 254.21 180.415C252.794 174.301 253.705 167.764 254.433 161.629C254.503 161.044 255.421 161.093 255.352 161.684Z" fill="white"/>
<path d="M255.559 161.892C251.503 172.409 248.172 183.154 245.57 194.124C245.433 194.7 244.56 194.408 244.698 193.835C247.3 182.865 250.628 172.121 254.687 161.604C254.897 161.054 255.771 161.338 255.559 161.892Z" fill="white"/>
<path d="M255.164 161.605C248.383 173.569 240.453 184.843 232.629 196.159C232.291 196.646 231.521 196.148 231.857 195.659C239.68 184.346 247.611 173.069 254.392 161.106C254.685 160.588 255.455 161.091 255.164 161.605Z" fill="white"/>
<path d="M254.206 161.023C245.076 167.998 237.612 176.625 232.026 186.667C231.738 187.185 230.968 186.682 231.255 186.166C236.881 176.053 244.389 167.368 253.588 160.341C254.056 159.986 254.676 160.663 254.206 161.023Z" fill="white"/>
<path d="M255.159 161.423C249.249 165.076 242.384 166.541 235.999 169.123C229.905 171.588 224.922 173.584 218.235 173.65C217.642 173.657 217.699 172.736 218.29 172.731C225.29 172.663 230.536 170.347 236.897 167.773C242.866 165.358 249.203 164.024 254.736 160.607C255.241 160.294 255.66 161.113 255.159 161.423Z" fill="white"/>
<path d="M253.989 160.003C249.728 162.233 244.947 162.064 240.249 162.041C233.665 162.012 227.103 161.224 220.643 159.988C220.07 159.878 220.115 158.959 220.697 159.072C225.557 159.999 230.434 160.624 235.374 160.95C241.212 161.335 248.258 161.965 253.566 159.188C254.093 158.912 254.513 159.729 253.989 160.003Z" fill="white"/>
<path d="M254.51 161.083C251.479 156.256 244.052 154.948 239.121 152.869C234.33 150.849 230.514 147.75 227.248 143.735C226.875 143.275 227.555 142.656 227.928 143.116C232.231 148.408 237.345 151.291 243.631 153.672C247.736 155.225 252.849 156.715 255.324 160.662C255.642 161.162 254.821 161.579 254.51 161.083Z" fill="white"/>
<path d="M254.364 160.322C255.379 148.347 254.937 135.765 251.677 124.146C251.516 123.575 252.416 123.386 252.577 123.954C255.852 135.625 256.302 148.349 255.283 160.375C255.232 160.966 254.315 160.914 254.364 160.322Z" fill="white"/>
<path d="M254.261 160.137C265.642 168.745 275.176 179.307 282.582 191.505C282.89 192.013 282.071 192.431 281.766 191.928C274.44 179.857 265.023 169.423 253.763 160.906C253.29 160.553 253.786 159.779 254.261 160.137Z" fill="white"/>
<path d="M253.371 160.865C254.143 149.832 246.334 141.869 236.544 138.337C235.989 138.137 236.273 137.263 236.833 137.465C247.018 141.139 255.09 149.504 254.289 160.92C254.248 161.509 253.33 161.457 253.371 160.865Z" fill="white"/>
<path d="M256.742 159.714C265.806 162.979 275.07 165.444 284.564 167.098C285.139 167.199 285.094 168.118 284.508 168.016C274.94 166.349 265.592 163.881 256.452 160.588C255.897 160.386 256.182 159.511 256.742 159.714Z" fill="white"/>
<path d="M253.109 160.016C249.326 157.948 244.445 157.889 240.239 157.372C236.066 156.858 231.881 156.458 227.692 156.101C227.104 156.051 227.156 155.134 227.747 155.183C233.134 155.64 238.505 156.213 243.868 156.903C247.236 157.337 250.591 157.593 253.609 159.244C254.13 159.532 253.627 160.299 253.109 160.016Z" fill="white"/>
<path d="M280.554 179.604C280.766 180.599 281.745 181.233 282.742 181.022C283.736 180.81 284.371 179.832 284.16 178.835C283.948 177.84 282.97 177.205 281.973 177.416C280.977 177.63 280.342 178.609 280.554 179.604Z" fill="#A61C57"/>
<path d="M280.34 192.492C280.563 193.547 281.601 194.218 282.656 193.995C283.71 193.769 284.382 192.735 284.159 191.68C283.934 190.623 282.896 189.952 281.843 190.176C280.79 190.4 280.117 191.437 280.34 192.492Z" fill="#A61C57"/>
<path d="M267.395 191.018C267.641 192.172 268.775 192.91 269.929 192.664C271.083 192.417 271.819 191.282 271.575 190.129C271.329 188.975 270.194 188.239 269.041 188.484C267.886 188.73 267.149 189.864 267.395 191.018Z" fill="#A61C57"/>
<path d="M258.556 196.033C258.83 197.316 260.091 198.135 261.376 197.862C262.659 197.588 263.479 196.327 263.206 195.042C262.932 193.759 261.671 192.94 260.386 193.213C259.101 193.489 258.282 194.75 258.556 196.033Z" fill="#A61C57"/>
<path d="M242.99 194.436C243.177 195.312 244.038 195.871 244.916 195.685C245.791 195.498 246.35 194.637 246.164 193.759C245.977 192.883 245.117 192.322 244.239 192.51C243.363 192.697 242.803 193.56 242.99 194.436Z" fill="#A61C57"/>
<path d="M229.722 196.856C229.952 197.931 231.008 198.618 232.085 198.389C233.162 198.16 233.847 197.104 233.618 196.027C233.389 194.949 232.332 194.264 231.255 194.493C230.179 194.72 229.493 195.779 229.722 196.856Z" fill="#A61C57"/>
<path d="M229.615 186.848C229.853 187.966 230.952 188.681 232.072 188.442C233.19 188.203 233.905 187.105 233.666 185.984C233.428 184.867 232.329 184.152 231.208 184.391C230.09 184.631 229.377 185.731 229.615 186.848Z" fill="#A61C57"/>
<path d="M216.227 173.881C216.471 175.034 217.606 175.77 218.759 175.526C219.912 175.282 220.648 174.147 220.404 172.994C220.158 171.839 219.025 171.105 217.872 171.349C216.715 171.594 215.981 172.727 216.227 173.881Z" fill="#A61C57"/>
<path d="M217.682 160.166C217.963 161.491 219.265 162.333 220.589 162.054C221.914 161.772 222.757 160.47 222.477 159.146C222.195 157.821 220.893 156.979 219.569 157.258C218.244 157.54 217.4 158.844 217.682 160.166Z" fill="#A61C57"/>
<path d="M225.725 143.508C225.937 144.5 226.913 145.134 227.907 144.923C228.899 144.712 229.532 143.736 229.322 142.742C229.111 141.75 228.134 141.117 227.141 141.327C226.147 141.537 225.513 142.513 225.725 143.508Z" fill="#A61C57"/>
<path d="M237.592 131.818C237.793 132.758 238.715 133.355 239.654 133.156C240.593 132.957 241.191 132.032 240.992 131.094C240.794 130.155 239.869 129.556 238.93 129.755C237.99 129.956 237.393 130.879 237.592 131.818Z" fill="#A61C57"/>
<path d="M249.855 124.535C250.105 125.711 251.26 126.458 252.434 126.21C253.61 125.96 254.357 124.805 254.109 123.631C253.859 122.455 252.705 121.706 251.529 121.956C250.354 122.206 249.605 123.36 249.855 124.535Z" fill="#A61C57"/>
<path d="M272.211 135.803C272.496 137.146 273.816 138.002 275.159 137.717C276.5 137.431 277.359 136.111 277.073 134.77C276.788 133.427 275.467 132.571 274.126 132.857C272.781 133.141 271.926 134.459 272.211 135.803Z" fill="#A61C57"/>
<path d="M282.327 137.173C282.551 138.231 283.591 138.907 284.651 138.681C285.71 138.455 286.385 137.417 286.159 136.357C285.933 135.298 284.893 134.625 283.835 134.849C282.777 135.073 282.101 136.114 282.327 137.173Z" fill="#A61C57"/>
<path d="M284.688 151.798C284.999 153.255 286.43 154.184 287.887 153.873C289.344 153.563 290.273 152.131 289.963 150.674C289.652 149.217 288.22 148.289 286.763 148.599C285.306 148.909 284.377 150.343 284.688 151.798Z" fill="#A61C57"/>
<path d="M260.956 124.395C261.155 125.333 262.079 125.932 263.018 125.733C263.957 125.534 264.555 124.61 264.357 123.671C264.158 122.732 263.233 122.134 262.294 122.332C261.355 122.531 260.757 123.456 260.956 124.395Z" fill="#A61C57"/>
<path d="M283.054 167.872C283.268 168.873 284.25 169.51 285.25 169.298C286.252 169.084 286.889 168.102 286.677 167.102C286.465 166.101 285.48 165.463 284.479 165.677C283.478 165.886 282.84 166.87 283.054 167.872Z" fill="#A61C57"/>
<path d="M234.422 138.382C234.648 139.441 235.687 140.116 236.746 139.89C237.805 139.664 238.48 138.625 238.254 137.566C238.03 136.508 236.989 135.832 235.93 136.058C234.874 136.283 234.198 137.324 234.422 138.382Z" fill="#A61C57"/>
<path d="M225.501 155.996C225.7 156.935 226.624 157.533 227.563 157.334C228.502 157.135 229.1 156.211 228.901 155.272C228.702 154.333 227.778 153.735 226.839 153.934C225.902 154.134 225.302 155.057 225.501 155.996Z" fill="#A61C57"/>
<path d="M243.494 163.345C244.806 169.515 250.873 173.45 257.041 172.136C263.211 170.823 267.145 164.756 265.831 158.589C264.519 152.419 258.452 148.484 252.284 149.798C246.116 151.112 242.18 157.177 243.494 163.345Z" fill="white"/>
<path d="M246.361 162.735C247.338 167.32 251.845 170.245 256.431 169.268C261.016 168.291 263.941 163.784 262.966 159.2C261.989 154.614 257.482 151.69 252.898 152.665C248.312 153.641 245.385 158.15 246.361 162.735Z" fill="#A61C57"/>
<path d="M248.786 162.218C249.477 165.466 252.668 167.536 255.916 166.845C259.163 166.153 261.234 162.962 260.542 159.715C259.851 156.467 256.66 154.397 253.412 155.088C250.167 155.781 248.095 158.974 248.786 162.218Z" fill="#6B0D2E"/>
<path d="M259.647 162.484C259.802 163.206 260.512 163.668 261.237 163.514C261.96 163.36 262.421 162.649 262.268 161.924C262.113 161.202 261.403 160.74 260.678 160.893C259.955 161.048 259.493 161.761 259.647 162.484Z" fill="#A61C57"/>
<path d="M261.391 156.64C261.545 157.365 262.256 157.826 262.98 157.673C263.705 157.519 264.164 156.807 264.011 156.083C263.857 155.36 263.146 154.898 262.421 155.052C261.699 155.204 261.24 155.916 261.391 156.64Z" fill="#A61C57"/>
<path d="M255.543 155.21C255.698 155.932 256.409 156.394 257.133 156.241C257.856 156.086 258.318 155.375 258.164 154.65C258.01 153.928 257.299 153.466 256.574 153.62C255.851 153.774 255.389 154.487 255.543 155.21Z" fill="#C4246B"/>
<path d="M253.668 152.135C253.821 152.86 254.533 153.319 255.258 153.166C255.98 153.011 256.442 152.3 256.289 151.576C256.134 150.853 255.423 150.392 254.699 150.545C253.976 150.699 253.513 151.412 253.668 152.135Z" fill="#A61C57"/>
<path d="M256.8 152.633C256.955 153.356 257.665 153.817 258.39 153.664C259.113 153.51 259.574 152.799 259.421 152.074C259.266 151.351 258.556 150.89 257.831 151.043C257.108 151.198 256.646 151.911 256.8 152.633Z" fill="#891542"/>
<path d="M259.392 154.095C259.547 154.818 260.258 155.279 260.982 155.126C261.705 154.971 262.166 154.261 262.013 153.536C261.859 152.813 261.148 152.352 260.423 152.505C259.7 152.659 259.238 153.372 259.392 154.095Z" fill="#891542"/>
<path d="M252.605 155.835C252.76 156.558 253.47 157.02 254.195 156.866C254.92 156.713 255.379 156.001 255.226 155.276C255.071 154.553 254.361 154.092 253.636 154.245C252.912 154.402 252.451 155.113 252.605 155.835Z" fill="#891542"/>
<path d="M247.87 154.621C248.023 155.346 248.737 155.806 249.459 155.654C250.182 155.499 250.643 154.789 250.49 154.064C250.335 153.341 249.624 152.88 248.9 153.033C248.178 153.186 247.717 153.896 247.87 154.621Z" fill="#891542"/>
<path d="M245.291 156.303C245.446 157.025 246.156 157.487 246.881 157.333C247.606 157.18 248.067 156.469 247.914 155.744C247.76 155.022 247.049 154.56 246.324 154.714C245.599 154.867 245.138 155.578 245.291 156.303Z" fill="#A61C57"/>
<path d="M243.936 159.566C244.091 160.289 244.801 160.75 245.526 160.597C246.249 160.442 246.71 159.731 246.557 159.006C246.402 158.284 245.692 157.822 244.967 157.976C244.243 158.132 243.782 158.843 243.936 159.566Z" fill="#891542"/>
<path d="M244.208 162.698C244.362 163.422 245.074 163.882 245.797 163.73C246.522 163.577 246.982 162.865 246.828 162.14C246.674 161.417 245.963 160.956 245.238 161.109C244.515 161.264 244.054 161.975 244.208 162.698Z" fill="#A61C57"/>
<path d="M250.837 153.18C250.991 153.902 251.702 154.364 252.427 154.21C253.149 154.056 253.611 153.345 253.457 152.62C253.304 151.895 252.592 151.436 251.869 151.587C251.145 151.744 250.682 152.457 250.837 153.18Z" fill="#C4246B"/>
<path d="M249.738 156.961C249.891 157.686 250.603 158.145 251.327 157.994C252.049 157.839 252.511 157.129 252.357 156.404C252.203 155.681 251.492 155.22 250.767 155.373C250.046 155.525 249.583 156.238 249.738 156.961Z" fill="#C4246B"/>
<path d="M246.966 158.684C247.119 159.409 247.83 159.87 248.555 159.717C249.277 159.562 249.739 158.852 249.585 158.127C249.431 157.404 248.72 156.943 247.995 157.096C247.274 157.249 246.811 157.961 246.966 158.684Z" fill="#C4246B"/>
<path d="M248.408 165.458C248.561 166.182 249.272 166.644 249.998 166.488C250.721 166.334 251.182 165.623 251.029 164.898C250.874 164.176 250.164 163.714 249.439 163.868C248.715 164.024 248.253 164.735 248.408 165.458Z" fill="#891542"/>
<path d="M247.382 162.022C247.537 162.745 248.247 163.207 248.972 163.053C249.695 162.899 250.156 162.188 250.003 161.463C249.848 160.74 249.138 160.279 248.413 160.432C247.689 160.589 247.228 161.3 247.382 162.022Z" fill="#A61C57"/>
<path d="M245.544 165.657C245.698 166.381 246.41 166.841 247.134 166.687C247.857 166.533 248.319 165.822 248.165 165.097C248.011 164.375 247.3 163.913 246.575 164.067C245.852 164.221 245.392 164.935 245.544 165.657Z" fill="#C4246B"/>
<path d="M261.829 159.862C261.984 160.585 262.695 161.046 263.419 160.893C264.142 160.738 264.604 160.027 264.45 159.302C264.296 158.58 263.585 158.118 262.86 158.272C262.134 158.427 261.673 159.138 261.829 159.862Z" fill="#C4246B"/>
<path d="M258.201 156.731C258.354 157.455 259.066 157.915 259.791 157.761C260.514 157.607 260.975 156.896 260.822 156.171C260.667 155.449 259.956 154.987 259.232 155.141C258.509 155.295 258.047 156.006 258.201 156.731Z" fill="#A61C57"/>
<path d="M258.606 159.633C258.76 160.356 259.471 160.817 260.196 160.664C260.919 160.509 261.38 159.798 261.227 159.074C261.072 158.351 260.361 157.889 259.637 158.043C258.914 158.197 258.452 158.908 258.606 159.633Z" fill="#891542"/>
<path d="M256.659 163.357C256.814 164.08 257.525 164.541 258.249 164.388C258.972 164.234 259.434 163.523 259.28 162.798C259.127 162.073 258.415 161.614 257.691 161.765C256.967 161.922 256.506 162.633 256.659 163.357Z" fill="#891542"/>
<path d="M255.065 160.958C255.22 161.68 255.93 162.142 256.655 161.988C257.378 161.834 257.839 161.123 257.686 160.398C257.531 159.676 256.821 159.214 256.096 159.368C255.373 159.522 254.911 160.235 255.065 160.958Z" fill="#C4246B"/>
<path d="M252.62 161.589C252.759 162.232 253.391 162.643 254.034 162.507C254.676 162.37 255.087 161.738 254.952 161.093C254.815 160.451 254.183 160.04 253.538 160.175C252.894 160.311 252.483 160.943 252.62 161.589Z" fill="#891542"/>
<path d="M251.153 166.878C251.307 167.601 252.018 168.063 252.743 167.909C253.466 167.755 253.927 167.044 253.774 166.319C253.62 165.594 252.908 165.135 252.183 165.288C251.461 165.443 250.999 166.154 251.153 166.878Z" fill="#A61C57"/>
<path d="M254.347 167.568C254.501 168.291 255.212 168.752 255.937 168.599C256.659 168.444 257.121 167.734 256.967 167.009C256.814 166.284 256.102 165.825 255.377 165.978C254.655 166.132 254.192 166.845 254.347 167.568Z" fill="#891542"/>
<path d="M257.221 166.291C257.375 167.014 258.086 167.475 258.811 167.322C259.534 167.167 259.995 166.456 259.842 165.731C259.687 165.009 258.976 164.547 258.252 164.701C257.529 164.855 257.067 165.566 257.221 166.291Z" fill="#C4246B"/>
<path d="M253.799 164.509C253.953 165.231 254.664 165.693 255.389 165.539C256.112 165.385 256.573 164.674 256.42 163.949C256.265 163.226 255.554 162.765 254.83 162.918C254.107 163.073 253.646 163.784 253.799 164.509Z" fill="#A61C57"/>
<path d="M260.866 165.297C261.02 166.02 261.731 166.481 262.456 166.328C263.18 166.175 263.64 165.463 263.488 164.739C263.334 164.016 262.623 163.555 261.898 163.708C261.174 163.862 260.712 164.572 260.866 165.297Z" fill="#A61C57"/>
<path d="M262.527 163.153C262.682 163.876 263.393 164.338 264.118 164.184C264.84 164.03 265.302 163.319 265.148 162.594C264.994 161.871 264.283 161.41 263.558 161.563C262.836 161.718 262.374 162.429 262.527 163.153Z" fill="#C4246B"/>
<path d="M259.074 168.265C259.229 168.988 259.939 169.449 260.664 169.296C261.387 169.142 261.848 168.431 261.695 167.706C261.541 166.981 260.83 166.522 260.105 166.675C259.383 166.833 258.921 167.544 259.074 168.265Z" fill="#891542"/>
<path d="M256.368 170.139C256.523 170.862 257.233 171.323 257.958 171.17C258.681 171.016 259.142 170.305 258.989 169.58C258.834 168.857 258.124 168.396 257.399 168.549C256.676 168.704 256.214 169.417 256.368 170.139Z" fill="#A61C57"/>
<path d="M253.047 170.437C253.201 171.162 253.913 171.621 254.637 171.468C255.36 171.313 255.821 170.602 255.668 169.877C255.514 169.155 254.803 168.693 254.078 168.847C253.355 169.001 252.894 169.712 253.047 170.437Z" fill="#891542"/>
<path d="M249.952 169.726C250.105 170.451 250.817 170.91 251.542 170.757C252.267 170.603 252.726 169.891 252.573 169.167C252.418 168.444 251.707 167.983 250.982 168.136C250.258 168.289 249.797 169.003 249.952 169.726Z" fill="#C4246B"/>
<path d="M247.147 168.219C247.301 168.942 248.012 169.403 248.737 169.25C249.461 169.097 249.921 168.385 249.767 167.66C249.613 166.937 248.902 166.476 248.177 166.629C247.455 166.784 246.993 167.494 247.147 168.219Z" fill="#A61C57"/>
<path d="M250.262 163.349C250.416 164.072 251.127 164.533 251.852 164.38C252.574 164.225 253.036 163.515 252.882 162.79C252.729 162.065 252.017 161.606 251.292 161.759C250.57 161.914 250.108 162.624 250.262 163.349Z" fill="#C4246B"/>
<path d="M249.707 160.084C249.861 160.807 250.572 161.268 251.297 161.115C252.021 160.961 252.481 160.249 252.329 159.526C252.176 158.801 251.464 158.342 250.739 158.495C250.015 158.648 249.552 159.361 249.707 160.084Z" fill="#891542"/>
<path d="M252.473 158.771C252.627 159.494 253.338 159.955 254.063 159.802C254.786 159.647 255.247 158.936 255.094 158.212C254.939 157.489 254.228 157.028 253.503 157.181C252.781 157.335 252.319 158.046 252.473 158.771Z" fill="#A61C57"/>
<path d="M255.568 158.222C255.721 158.947 256.433 159.407 257.157 159.255C257.879 159.101 258.341 158.39 258.188 157.665C258.033 156.942 257.322 156.481 256.597 156.634C255.876 156.787 255.413 157.5 255.568 158.222Z" fill="#891542"/>
<path d="M202.996 289.815C202.996 289.815 202.266 291.577 200.99 294.657C200.331 296.148 199.624 298.18 198.641 300.101C197.678 302.082 196.591 304.318 195.401 306.759C194.032 309.15 192.608 311.793 190.985 314.52C189.219 317.152 187.567 320.091 185.451 322.858C183.461 325.715 181.261 328.573 178.926 331.418C176.602 334.272 174.134 337.1 171.589 339.88C166.53 345.463 161.116 350.813 156.126 355.95C153.645 358.542 151.247 361.044 148.972 363.417C146.783 365.884 144.632 368.13 142.828 370.377C140.988 372.587 139.301 374.607 137.948 376.51C136.557 378.383 135.315 379.985 134.439 381.415C132.61 384.206 131.564 385.804 131.564 385.804C131.564 385.804 132.753 384.316 134.837 381.715C135.835 380.387 137.223 378.913 138.771 377.194C140.282 375.447 142.139 373.611 144.156 371.611C146.133 369.576 148.476 367.555 150.852 365.34C153.323 363.21 155.927 360.963 158.623 358.638C164.053 354.017 169.973 349.188 175.671 343.992C178.528 341.411 181.344 338.747 184.026 336.027C186.723 333.313 189.301 330.554 191.675 327.759C194.167 325.064 196.209 322.146 198.343 319.528C200.337 316.809 202.117 314.153 203.818 311.734C205.379 309.169 206.814 306.819 208.082 304.733C209.402 302.625 210.182 300.877 211.016 299.391C212.579 296.446 213.472 294.761 213.472 294.761L202.996 289.815Z" fill="#891542"/>
<path d="M159.178 344.056C153.638 336.482 130.402 335.888 116.83 345.354C92.1892 362.539 98.4765 391.739 98.4765 391.739C98.4765 391.739 105.758 399.204 124.319 389.113C142.879 379.021 166.379 353.902 159.178 344.056Z" fill="#F6DCEF"/>
<path d="M168.13 356.296C173.671 363.871 167.198 386.195 154.066 396.261C130.223 414.537 104.301 399.7 104.301 399.7C104.301 399.7 99.3916 390.498 114.633 375.867C129.871 361.234 160.927 346.449 168.13 356.296Z" fill="white"/>
<path d="M166.574 347.902L158.168 336.41C168.231 329.05 179.195 338.671 179.195 338.671C179.195 338.671 185.041 352.035 174.979 359.396L166.574 347.902Z" fill="#891542"/>
<path d="M142.011 365.868C145.187 350.593 151.877 345.162 151.877 345.162C156.993 341.485 169.745 345.585 169.745 345.585C169.745 345.585 169.788 358.982 164.734 362.741C164.734 362.741 157.529 367.469 142.011 365.868Z" fill="#A61C57"/>
<path d="M128.631 344.304C132.869 335.828 155.591 326.235 169.743 345.584C169.743 345.584 155.481 349.042 150.17 350.82C150.17 350.82 140.541 349.234 128.631 344.304Z" fill="#A61C57"/>
<path d="M158.506 385.152C167.868 383.682 183.895 364.933 169.743 345.584C169.743 345.584 162.127 358.129 158.823 362.651C158.823 362.651 157.418 372.307 158.506 385.152Z" fill="#A61C57"/>
<path d="M92.6611 314.192C93.9987 305.338 78.6592 289.325 63.1045 286.615C34.8666 281.7 19.5032 305.701 19.5032 305.701C19.5032 305.701 19.4174 315.652 38.7721 321.288C58.1257 326.926 90.9234 325.702 92.6611 314.192Z" fill="#F6DCEF"/>
<path d="M90.5004 328.499C89.1627 337.353 69.7793 348.124 54.1188 346.118C25.6878 342.477 18.0977 315.008 18.0977 315.008C18.0977 315.008 20.9561 305.477 41.1096 305.806C61.2651 306.135 92.238 316.989 90.5004 328.499Z" fill="white"/>
<path d="M95.0842 321.768L97.1132 308.336C108.874 310.112 109.838 323.996 109.838 323.996C109.838 323.996 104.818 336.977 93.0571 335.202L95.0842 321.768Z" fill="#891542"/>
<path d="M66.3741 317.434C78.7898 309.223 86.9694 310.036 86.9694 310.036C92.9038 310.982 98.7878 322.328 98.7878 322.328C98.7878 322.328 89.8172 331.43 83.8666 330.583C83.8666 330.583 75.8115 328.944 66.3741 317.434Z" fill="#A61C57"/>
<path d="M71.8025 293.836C80.3692 290.943 102.205 299.711 98.7909 322.327C98.7909 322.327 86.8059 315.085 82.0148 312.722C82.0148 312.722 76.5556 305.178 71.8025 293.836Z" fill="#A61C57"/>
<path d="M64.5913 341.58C71.9207 346.875 95.3731 344.944 98.7888 322.326C98.7888 322.326 85.1996 325.707 79.9245 326.548C79.9245 326.548 72.4849 332.148 64.5913 341.58Z" fill="#A61C57"/>
<path d="M194.342 250.24C198.568 258.967 182.407 273.483 172.648 286.941C162.889 300.399 147.856 303.797 138.397 297.705C128.937 291.612 128.937 291.612 128.937 291.612L132.307 285.129L125.131 283.753C125.131 283.753 120.61 271.052 138.128 259.341C155.648 247.631 188.849 238.9 194.342 250.24Z" fill="white"/>
<path d="M185.939 232.889C181.713 224.162 160.302 227.838 143.695 227.147C127.087 226.457 115.097 236.144 114.01 247.341C112.923 258.541 112.923 258.541 112.923 258.541L120.099 259.917L116.729 266.4C116.729 266.4 123.888 277.825 143.939 271.343C163.992 264.862 191.431 244.229 185.939 232.889Z" fill="white"/>
<path d="M190.093 241.47C194.317 250.196 181.418 265.795 167.239 278.733C154.613 290.257 140.69 294.43 131.039 288.431C121.388 282.43 120.6 280.804 120.6 280.804L125.26 272.864L116.14 271.596C116.14 271.596 115.353 269.969 116.63 258.676C117.909 247.385 129.818 239.051 146.688 236.294C165.631 233.191 185.869 232.744 190.093 241.47Z" fill="#F6DCEF"/>
<path d="M193.44 239.848L187.454 227.488C198.278 222.247 207.016 233.276 207.016 233.276C207.016 233.276 210.25 246.971 199.426 252.212L193.44 239.848Z" fill="#891542"/>
<path d="M167.02 252.642C172.682 238.698 179.969 234.702 179.969 234.702C185.46 232.1 196.849 238.198 196.849 238.198C196.849 238.198 194.569 250.916 189.124 253.611C189.124 253.611 181.47 256.848 167.02 252.642Z" fill="#A61C57"/>
<path d="M158.06 229.862C163.551 222.551 186.774 217.386 196.851 238.199C196.851 238.199 182.719 239.009 177.372 239.776C177.372 239.776 168.509 236.603 158.06 229.862Z" fill="#A61C57"/>
<path d="M179.333 273.8C188.472 274.026 206.928 259.013 196.851 238.199C196.851 238.199 187.452 248.783 183.532 252.504C183.532 252.504 180.525 261.422 179.333 273.8Z" fill="#A61C57"/>
<path d="M246.893 356.871C229.012 349.74 220.297 329.462 227.429 311.581C234.561 293.699 254.838 284.985 272.719 292.116C290.601 299.248 299.316 319.525 292.184 337.407C285.052 355.288 264.775 364.003 246.893 356.871Z" fill="#A61C57"/>
<mask id="mask11_207_3476" style="mask-type:luminance" maskUnits="userSpaceOnUse" x="184" y="279" width="71" height="56">
<path d="M253.434 323.295C250.864 323.036 243.472 325.597 234.905 329.754C224.466 334.82 211.546 337.293 200.956 328.9C193.053 322.638 189.247 313.026 184.151 304.323C184.151 304.323 187.475 299.077 192.09 296.667C190.505 291.707 191.836 285.641 191.836 285.641C201.582 283.045 211.049 278.895 221.072 280.008C234.501 281.498 241.938 292.348 245.79 303.294C248.951 312.275 252.4 319.297 254.41 320.922L253.434 323.295Z" fill="white"/>
</mask>
<g mask="url(#mask11_207_3476)">
<path d="M253.434 323.295C250.864 323.036 243.472 325.597 234.905 329.754C224.466 334.82 211.546 337.293 200.956 328.9C193.053 322.638 189.247 313.026 184.151 304.323C184.151 304.323 187.475 299.077 192.09 296.667C190.505 291.707 191.836 285.641 191.836 285.641C201.582 283.045 211.049 278.895 221.072 280.008C234.501 281.498 241.938 292.348 245.79 303.294C248.951 312.275 252.4 319.297 254.41 320.922L253.434 323.295Z" fill="white"/>
<path d="M253.525 323.072C251.438 322.86 245.432 324.941 238.475 328.318C229.996 332.431 219.501 334.442 210.897 327.625C204.476 322.538 201.385 314.729 197.246 307.66C197.246 307.66 199.947 303.397 203.696 301.441C202.409 297.412 203.49 292.484 203.49 292.484C211.405 290.375 219.097 287.004 227.239 287.906C238.147 289.117 244.191 297.932 247.319 306.82C249.886 314.114 252.688 319.821 254.322 321.139L253.525 323.072Z" fill="#F6DCEF"/>
</g>
<mask id="mask12_207_3476" style="mask-type:luminance" maskUnits="userSpaceOnUse" x="184" y="279" width="71" height="56">
<path d="M253.434 323.295C250.864 323.036 243.472 325.597 234.905 329.754C224.466 334.82 211.546 337.293 200.956 328.9C193.053 322.638 189.247 313.026 184.151 304.323C184.151 304.323 187.475 299.077 192.09 296.667C190.505 291.707 191.836 285.641 191.836 285.641C201.582 283.045 211.049 278.895 221.072 280.008C234.501 281.498 241.938 292.348 245.79 303.294C248.951 312.275 252.4 319.297 254.41 320.922L253.434 323.295Z" fill="white"/>
</mask>
<g mask="url(#mask12_207_3476)">
<path d="M253.699 322.651C252.445 322.502 247.733 323.131 243.615 324.958C238.599 327.187 232.347 328.187 227.105 324.177C226.966 324.07 226.819 323.948 226.663 323.809C218.141 316.199 224.345 301.121 235.754 301.711C235.963 301.722 236.152 301.737 236.327 301.76C242.872 302.602 246.608 307.712 248.604 312.824C250.242 317.018 253.149 320.785 254.143 321.56L253.699 322.651Z" fill="#E89DD5"/>
</g>
<mask id="mask13_207_3476" style="mask-type:luminance" maskUnits="userSpaceOnUse" x="235" y="246" width="56" height="73">
<path d="M258.947 318.127C258.4 315.601 253.68 309.362 247.077 302.501C239.035 294.14 232.688 282.615 237.399 269.95C240.913 260.497 248.879 253.907 255.58 246.373C255.58 246.373 261.597 247.911 265.314 251.558C269.542 248.517 275.722 247.908 275.722 247.908C281.202 256.373 288.075 264.095 290.114 273.972C292.848 287.204 284.825 297.632 275.608 304.678C268.043 310.458 262.431 315.91 261.506 318.321L258.947 318.127Z" fill="white"/>
</mask>
<g mask="url(#mask13_207_3476)">
<path d="M258.947 318.127C258.4 315.601 253.68 309.362 247.077 302.501C239.035 294.14 232.688 282.615 237.399 269.95C240.913 260.497 248.879 253.907 255.58 246.373C255.58 246.373 261.597 247.911 265.314 251.558C269.542 248.517 275.722 247.908 275.722 247.908C281.202 256.373 288.075 264.095 290.114 273.972C292.848 287.204 284.825 297.632 275.608 304.678C268.043 310.458 262.431 315.91 261.506 318.321L258.947 318.127Z" fill="white"/>
<path d="M259.186 318.144C258.743 316.095 254.908 311.025 249.546 305.451C243.012 298.658 237.859 289.297 241.683 279.009C244.538 271.331 251.008 265.977 256.451 259.855C256.451 259.855 261.339 261.107 264.359 264.069C267.794 261.598 272.815 261.104 272.815 261.104C277.266 267.98 282.849 274.253 284.507 282.276C286.727 293.026 280.211 301.494 272.723 307.219C266.578 311.916 262.019 316.344 261.269 318.303L259.186 318.144Z" fill="#F6DCEF"/>
</g>
<mask id="mask14_207_3476" style="mask-type:luminance" maskUnits="userSpaceOnUse" x="235" y="246" width="56" height="73">
<path d="M258.947 318.127C258.4 315.601 253.68 309.362 247.077 302.501C239.035 294.14 232.688 282.615 237.399 269.95C240.913 260.497 248.879 253.907 255.58 246.373C255.58 246.373 261.597 247.911 265.314 251.558C269.542 248.517 275.722 247.908 275.722 247.908C281.202 256.373 288.075 264.095 290.114 273.972C292.848 287.204 284.825 297.632 275.608 304.678C268.043 310.458 262.431 315.91 261.506 318.321L258.947 318.127Z" fill="white"/>
</mask>
<g mask="url(#mask14_207_3476)">
<path d="M259.639 318.178C259.395 316.941 257.34 312.652 254.329 309.303C250.66 305.219 247.776 299.584 249.969 293.36C250.028 293.192 250.098 293.016 250.183 292.826C254.786 282.37 271.045 283.609 274.01 294.645C274.064 294.845 274.108 295.034 274.14 295.205C275.36 301.69 271.658 306.824 267.411 310.302C263.926 313.157 261.243 317.084 260.814 318.268L259.639 318.178Z" fill="#E89DD5"/>
</g>
<mask id="mask15_207_3476" style="mask-type:luminance" maskUnits="userSpaceOnUse" x="265" y="286" width="73" height="56">
<path d="M265.565 321.771C267.797 320.471 272.274 314.052 276.76 305.654C282.226 295.423 291.226 285.825 304.726 286.392C314.802 286.814 323.531 292.353 332.769 296.398C332.769 296.398 333.163 302.596 330.845 307.257C335.042 310.338 337.532 316.028 337.532 316.028C331.174 323.855 325.954 332.779 317.191 337.77C305.451 344.458 293.055 340.053 283.507 333.461C275.671 328.054 268.753 324.4 266.172 324.266L265.565 321.771Z" fill="white"/>
</mask>
<g mask="url(#mask15_207_3476)">
<path d="M265.565 321.771C267.797 320.471 272.274 314.052 276.76 305.654C282.226 295.423 291.226 285.825 304.726 286.392C314.802 286.814 323.531 292.353 332.769 296.398C332.769 296.398 333.163 302.596 330.845 307.257C335.042 310.338 337.532 316.028 337.532 316.028C331.174 323.855 325.954 332.779 317.191 337.77C305.451 344.458 293.055 340.053 283.507 333.461C275.671 328.054 268.753 324.4 266.172 324.266L265.565 321.771Z" fill="white"/>
<path d="M265.621 322.004C267.433 320.949 271.069 315.735 274.714 308.914C279.156 300.601 286.465 292.805 297.432 293.265C305.616 293.606 312.708 298.107 320.213 301.392C320.213 301.392 320.534 306.429 318.649 310.215C322.06 312.719 324.081 317.341 324.081 317.341C318.917 323.699 314.675 330.949 307.559 335.004C298.022 340.437 287.952 336.857 280.195 331.503C273.83 327.109 268.209 324.143 266.113 324.034L265.621 322.004Z" fill="#F6DCEF"/>
</g>
<mask id="mask16_207_3476" style="mask-type:luminance" maskUnits="userSpaceOnUse" x="265" y="286" width="73" height="56">
<path d="M265.565 321.771C267.797 320.471 272.274 314.052 276.76 305.654C282.226 295.423 291.226 285.825 304.726 286.392C314.802 286.814 323.531 292.353 332.769 296.398C332.769 296.398 333.163 302.596 330.845 307.257C335.042 310.338 337.532 316.028 337.532 316.028C331.174 323.855 325.954 332.779 317.191 337.77C305.451 344.458 293.055 340.053 283.507 333.461C275.671 328.054 268.753 324.4 266.172 324.266L265.565 321.771Z" fill="white"/>
</mask>
<g mask="url(#mask16_207_3476)">
<path d="M265.729 322.445C266.83 321.83 270.274 318.548 272.529 314.651C275.278 309.9 279.747 305.417 286.344 305.578C286.519 305.582 286.713 305.595 286.918 305.616C298.287 306.765 302.13 322.608 292.552 328.839C292.376 328.952 292.212 329.051 292.058 329.136C286.268 332.301 280.241 330.364 275.621 327.402C271.83 324.971 267.265 323.633 266.005 323.59L265.729 322.445Z" fill="#E89DD5"/>
</g>
<mask id="mask17_207_3476" style="mask-type:luminance" maskUnits="userSpaceOnUse" x="256" y="329" width="56" height="67">
<path d="M264.145 329.192C266.069 330.913 273.557 333.185 282.93 334.857C294.351 336.895 306.26 342.488 309.894 355.501C312.605 365.214 310.036 375.228 309.044 385.262C309.044 385.262 303.27 387.552 298.12 386.788C296.487 391.732 291.843 395.859 291.843 395.859C282.435 392.231 272.335 390.024 264.879 383.234C254.891 374.136 255.249 360.985 258.567 349.867C261.29 340.744 262.626 333.035 261.956 330.541L264.145 329.192Z" fill="white"/>
</mask>
<g mask="url(#mask17_207_3476)">
<path d="M264.145 329.192C266.069 330.913 273.557 333.185 282.93 334.857C294.351 336.895 306.26 342.488 309.894 355.501C312.605 365.214 310.036 375.228 309.044 385.262C309.044 385.262 303.27 387.552 298.12 386.788C296.487 391.732 291.843 395.859 291.843 395.859C282.435 392.231 272.335 390.024 264.879 383.234C254.891 374.136 255.249 360.985 258.567 349.867C261.29 340.744 262.626 333.035 261.956 330.541L264.145 329.192Z" fill="white"/>
<path d="M263.938 329.317C265.502 330.714 271.584 332.561 279.2 333.919C288.478 335.574 298.152 340.118 301.104 350.689C303.308 358.579 301.219 366.712 300.413 374.864C300.413 374.864 295.723 376.725 291.54 376.103C290.213 380.121 286.44 383.471 286.44 383.471C278.797 380.523 270.592 378.731 264.537 373.214C256.423 365.823 256.715 355.141 259.409 346.108C261.62 338.698 262.705 332.434 262.161 330.409L263.938 329.317Z" fill="#F6DCEF"/>
</g>
<mask id="mask18_207_3476" style="mask-type:luminance" maskUnits="userSpaceOnUse" x="256" y="329" width="56" height="67">
<path d="M264.145 329.192C266.069 330.913 273.557 333.185 282.93 334.857C294.351 336.895 306.26 342.488 309.894 355.501C312.605 365.214 310.036 375.228 309.044 385.262C309.044 385.262 303.27 387.552 298.12 386.788C296.487 391.732 291.843 395.859 291.843 395.859C282.435 392.231 272.335 390.024 264.879 383.234C254.891 374.136 255.249 360.985 258.567 349.867C261.29 340.744 262.626 333.035 261.956 330.541L264.145 329.192Z" fill="white"/>
</mask>
<g mask="url(#mask18_207_3476)">
<path d="M263.553 329.556C264.478 330.413 268.662 332.675 273.067 333.616C278.435 334.761 284.079 337.627 285.964 343.95C286.014 344.119 286.062 344.305 286.107 344.508C288.527 355.674 274.645 364.225 265.762 357.041C265.601 356.91 265.455 356.783 265.328 356.664C260.529 352.138 260.508 345.804 261.897 340.496C263.038 336.14 262.901 331.384 262.55 330.172L263.553 329.556Z" fill="#E89DD5"/>
</g>
<mask id="mask19_207_3476" style="mask-type:luminance" maskUnits="userSpaceOnUse" x="256" y="329" width="56" height="67">
<path d="M264.145 329.192C266.069 330.913 273.557 333.185 282.93 334.857C294.351 336.895 306.26 342.488 309.894 355.501C312.605 365.214 310.036 375.228 309.044 385.262C309.044 385.262 303.27 387.552 298.12 386.788C296.487 391.732 291.843 395.859 291.843 395.859C282.435 392.231 272.335 390.024 264.879 383.234C254.891 374.136 255.249 360.985 258.567 349.867C261.29 340.744 262.626 333.035 261.956 330.541L264.145 329.192Z" fill="white"/>
</mask>
<g mask="url(#mask19_207_3476)">
<path d="M263.428 329.052C264.354 329.909 268.537 332.171 272.942 333.111C278.309 334.258 283.954 337.123 285.839 343.446C285.889 343.615 285.936 343.803 285.98 344.006C288.401 355.172 274.521 363.724 265.636 356.539C265.473 356.407 265.329 356.281 265.202 356.161C260.403 351.635 260.382 345.301 261.771 339.993C262.912 335.637 262.775 330.881 262.424 329.67L263.428 329.052Z" fill="#E89DD5"/>
</g>
<mask id="mask20_207_3476" style="mask-type:luminance" maskUnits="userSpaceOnUse" x="201" y="328" width="57" height="63">
<path d="M256.648 330.134C255.606 332.496 255.758 340.32 257.064 349.751C258.654 361.243 257.016 374.297 245.762 381.775C237.364 387.355 227.044 388.007 217.195 390.164C217.195 390.164 213.231 385.382 212.368 380.247C207.161 380.221 201.801 377.081 201.801 377.081C202.343 367.01 201.321 356.724 205.478 347.534C211.044 335.224 223.663 331.502 235.262 331.219C244.78 330.989 252.525 329.877 254.691 328.469L256.648 330.134Z" fill="white"/>
</mask>
<g mask="url(#mask20_207_3476)">
<path d="M256.648 330.134C255.606 332.496 255.758 340.32 257.064 349.751C258.654 361.243 257.016 374.297 245.762 381.775C237.364 387.355 227.044 388.007 217.195 390.164C217.195 390.164 213.231 385.382 212.368 380.247C207.161 380.221 201.801 377.081 201.801 377.081C202.343 367.01 201.321 356.724 205.478 347.534C211.044 335.224 223.663 331.502 235.262 331.219C244.78 330.989 252.525 329.877 254.691 328.469L256.648 330.134Z" fill="white"/>
<path d="M256.465 329.977C255.619 331.897 255.741 338.251 256.802 345.913C258.095 355.247 256.763 365.853 247.621 371.928C240.8 376.462 232.418 376.989 224.415 378.741C224.415 378.741 221.196 374.856 220.495 370.685C216.265 370.664 211.913 368.114 211.913 368.114C212.354 359.933 211.524 351.578 214.9 344.113C219.423 334.112 229.673 331.088 239.095 330.861C246.828 330.673 253.12 329.772 254.876 328.627L256.465 329.977Z" fill="#F6DCEF"/>
</g>
<mask id="mask21_207_3476" style="mask-type:luminance" maskUnits="userSpaceOnUse" x="201" y="328" width="57" height="63">
<path d="M256.648 330.134C255.606 332.496 255.758 340.32 257.064 349.751C258.654 361.243 257.016 374.297 245.762 381.775C237.364 387.355 227.044 388.007 217.195 390.164C217.195 390.164 213.231 385.382 212.368 380.247C207.161 380.221 201.801 377.081 201.801 377.081C202.343 367.01 201.321 356.724 205.478 347.534C211.044 335.224 223.663 331.502 235.262 331.219C244.78 330.989 252.525 329.877 254.691 328.469L256.648 330.134Z" fill="white"/>
</mask>
<g mask="url(#mask21_207_3476)">
<path d="M256.117 329.682C255.588 330.826 254.731 335.505 255.196 339.985C255.766 345.444 254.783 351.698 249.352 355.446C249.207 355.544 249.044 355.649 248.864 355.752C238.993 361.504 226.568 350.946 230.656 340.276C230.73 340.082 230.807 339.903 230.882 339.746C233.705 333.781 239.721 331.805 245.198 331.488C249.695 331.228 254.174 329.626 255.218 328.919L256.117 329.682Z" fill="#E89DD5"/>
</g>
<path d="M255.223 321.322C251.052 317.62 246.637 314.064 242.76 310.049C240.932 308.156 239.221 306.196 237.588 304.133C235.936 302.047 235.238 299.365 233.586 297.399C233.204 296.945 233.936 296.388 234.316 296.841C235.72 298.51 236.07 300.498 237.37 302.319C238.895 304.453 240.626 306.43 242.397 308.357C246.467 312.788 251.289 316.605 255.783 320.593C256.227 320.986 255.669 321.716 255.223 321.322Z" fill="white"/>
<path d="M258.669 324.452C253.81 321.118 249.073 318.216 243.138 317.402C237.779 316.668 232.349 318.201 227.53 320.415C226.99 320.661 226.639 319.814 227.177 319.567C232.323 317.204 237.582 316.042 243.251 316.49C249.263 316.966 254.409 320.417 259.234 323.726C259.722 324.061 259.157 324.788 258.669 324.452Z" fill="white"/>
<path d="M260.131 324.85C255.976 322.124 253.632 316.94 251.845 312.499C249.457 306.568 248.134 299.793 249.379 293.457C249.492 292.878 250.405 292.986 250.292 293.568C249.137 299.459 250.338 305.39 252.261 310.987C253.872 315.675 256.407 321.308 260.693 324.123C261.187 324.448 260.624 325.173 260.131 324.85Z" fill="white"/>
<path d="M259.138 324.041C258.655 311.513 258.043 298.977 256.207 286.562C256.12 285.975 257.032 285.849 257.118 286.435C258.953 298.848 259.566 311.386 260.048 323.914C260.071 324.502 259.16 324.634 259.138 324.041Z" fill="white"/>
<path d="M259.355 323.627C265.494 314.57 270.301 304.538 269.758 293.347C269.73 292.759 270.64 292.629 270.669 293.22C271.226 304.666 266.37 314.912 260.082 324.191C259.749 324.679 259.025 324.115 259.355 323.627Z" fill="white"/>
<path d="M259.231 324.334C260.937 321.552 266.964 319.942 269.712 318.68C276.21 315.697 282.974 313.323 289.841 311.355C290.404 311.194 290.763 312.04 290.194 312.203C284.9 313.721 279.714 315.505 274.608 317.569C272.059 318.599 269.56 319.747 267.075 320.922C265.284 321.769 261.05 323.113 259.956 324.897C259.649 325.402 258.923 324.835 259.231 324.334Z" fill="white"/>
<path d="M259.207 324.339C262.394 322.673 267.712 323.859 271.033 324.176C278.23 324.86 285.379 326.62 292.474 327.97C293.055 328.08 292.944 328.993 292.363 328.883C286.789 327.823 281.222 326.716 275.637 325.72C271.433 324.97 263.565 323.096 259.559 325.189C259.035 325.461 258.686 324.61 259.207 324.339Z" fill="white"/>
<path d="M260.727 324.338C265.004 328.075 269.279 331.668 274.344 334.305C279.544 337.012 285.621 337.677 291.351 338.409C291.942 338.484 291.827 339.398 291.24 339.322C285.866 338.638 280.608 337.841 275.542 335.861C269.699 333.577 264.816 329.131 260.163 325.068C259.72 324.678 260.278 323.948 260.727 324.338Z" fill="white"/>
<path d="M261.016 324.288C267.406 333.577 274.392 342.392 281.976 350.733C282.375 351.172 281.642 351.726 281.246 351.291C273.662 342.95 266.677 334.133 260.286 324.846C259.95 324.359 260.679 323.798 261.016 324.288Z" fill="white"/>
<path d="M260.557 324.452C266.598 336.804 271.427 349.716 276.347 362.561C276.559 363.114 275.71 363.469 275.498 362.914C270.579 350.069 265.751 337.156 259.708 324.805C259.448 324.271 260.297 323.921 260.557 324.452Z" fill="white"/>
<path d="M259.534 324.911C260.134 336.385 263.039 347.418 268.172 357.699C268.437 358.23 267.587 358.581 267.323 358.052C262.155 347.699 259.229 336.595 258.624 325.038C258.594 324.452 259.505 324.32 259.534 324.911Z" fill="white"/>
<path d="M260.403 324.35C260.079 331.291 257.413 337.783 255.939 344.511C254.532 350.933 253.364 356.173 249.642 361.728C249.312 362.22 248.586 361.655 248.915 361.164C252.812 355.349 253.863 349.712 255.331 343.008C256.709 336.719 259.187 330.735 259.49 324.239C259.516 323.645 260.431 323.762 260.403 324.35Z" fill="white"/>
<path d="M258.572 324.514C258.007 329.291 255.168 333.139 252.497 337.004C248.754 342.421 244.397 347.393 239.729 352.027C239.315 352.437 238.582 351.879 239.002 351.464C242.513 347.977 245.782 344.305 248.839 340.414C252.453 335.814 256.954 330.353 257.659 324.403C257.729 323.813 258.639 323.928 258.572 324.514Z" fill="white"/>
<path d="M259.756 324.696C254.06 324.47 248.789 329.862 244.285 332.757C239.913 335.569 235.201 336.969 230.041 337.397C229.452 337.446 229.324 336.534 229.915 336.487C236.713 335.923 241.98 333.332 247.494 329.487C251.093 326.977 255.21 323.599 259.867 323.783C260.46 323.806 260.344 324.718 259.756 324.696Z" fill="white"/>
<path d="M259.046 324.386C249.737 316.786 239.103 310.045 227.674 306.174C227.113 305.984 227.466 305.135 228.025 305.324C239.507 309.212 250.26 316.024 259.61 323.659C260.068 324.033 259.506 324.761 259.046 324.386Z" fill="white"/>
<path d="M258.835 324.365C272.366 319.834 286.467 317.93 300.716 318.707C301.308 318.741 301.192 319.653 300.605 319.62C286.507 318.85 272.576 320.731 259.189 325.212C258.629 325.401 258.271 324.556 258.835 324.365Z" fill="white"/>
<path d="M258.931 325.511C250.262 318.643 239.281 320.59 230.838 326.676C230.359 327.023 229.798 326.293 230.28 325.946C239.066 319.614 250.525 317.677 259.495 324.784C259.958 325.154 259.397 325.879 258.931 325.511Z" fill="white"/>
<path d="M259.885 322.081C267.7 316.445 274.966 310.189 281.691 303.288C282.099 302.869 282.832 303.427 282.417 303.853C275.639 310.809 268.321 317.128 260.442 322.813C259.963 323.156 259.403 322.428 259.885 322.081Z" fill="white"/>
<path d="M258.086 325.249C254.241 327.203 251.438 331.198 248.636 334.377C245.857 337.53 243.162 340.758 240.503 344.014C240.128 344.472 239.4 343.912 239.776 343.45C243.195 339.263 246.703 335.154 250.3 331.118C252.558 328.583 254.667 325.959 257.733 324.4C258.261 324.131 258.61 324.982 258.086 325.249Z" fill="white"/>
<path d="M289.748 313.661C290.689 314.048 291.765 313.598 292.152 312.657C292.54 311.716 292.09 310.64 291.149 310.252C290.208 309.865 289.132 310.315 288.744 311.256C288.358 312.195 288.806 313.273 289.748 313.661Z" fill="#A61C57"/>
<path d="M300.265 321.115C301.263 321.525 302.402 321.05 302.814 320.053C303.224 319.055 302.748 317.916 301.751 317.504C300.753 317.094 299.614 317.569 299.202 318.566C298.79 319.563 299.268 320.703 300.265 321.115Z" fill="#A61C57"/>
<path d="M291.739 330.968C292.829 331.418 294.078 330.896 294.528 329.806C294.978 328.715 294.457 327.464 293.365 327.016C292.275 326.566 291.024 327.087 290.576 328.179C290.126 329.269 290.646 330.517 291.739 330.968Z" fill="#A61C57"/>
<path d="M290.885 341.095C292.1 341.595 293.486 341.016 293.986 339.801C294.486 338.587 293.907 337.2 292.692 336.7C291.48 336.201 290.091 336.779 289.591 337.994C289.092 339.206 289.67 340.595 290.885 341.095Z" fill="#A61C57"/>
<path d="M280.776 353.038C281.605 353.38 282.553 352.982 282.895 352.154C283.236 351.326 282.839 350.377 282.01 350.036C281.182 349.694 280.234 350.089 279.892 350.92C279.553 351.749 279.948 352.697 280.776 353.038Z" fill="#A61C57"/>
<path d="M275.279 365.354C276.297 365.772 277.46 365.287 277.878 364.27C278.297 363.252 277.811 362.089 276.794 361.67C275.776 361.252 274.613 361.737 274.195 362.755C273.777 363.77 274.263 364.934 275.279 365.354Z" fill="#A61C57"/>
<path d="M266.961 359.792C268.018 360.225 269.227 359.721 269.662 358.664C270.098 357.608 269.594 356.397 268.535 355.963C267.479 355.527 266.27 356.032 265.833 357.09C265.398 358.146 265.905 359.357 266.961 359.792Z" fill="#A61C57"/>
<path d="M248.698 363.516C249.789 363.966 251.034 363.445 251.484 362.354C251.934 361.263 251.413 360.018 250.322 359.568C249.232 359.118 247.986 359.639 247.536 360.73C247.088 361.822 247.608 363.069 248.698 363.516Z" fill="#A61C57"/>
<path d="M238.202 354.57C239.453 355.086 240.885 354.487 241.401 353.236C241.917 351.985 241.319 350.552 240.067 350.037C238.816 349.521 237.383 350.119 236.868 351.37C236.353 352.625 236.949 354.056 238.202 354.57Z" fill="#A61C57"/>
<path d="M228.996 338.525C229.935 338.912 231.01 338.464 231.396 337.525C231.783 336.585 231.335 335.511 230.396 335.124C229.456 334.738 228.382 335.185 227.995 336.125C227.609 337.064 228.057 338.139 228.996 338.525Z" fill="#A61C57"/>
<path d="M226.051 322.13C226.938 322.495 227.955 322.072 228.32 321.185C228.685 320.297 228.261 319.283 227.375 318.916C226.488 318.551 225.471 318.973 225.106 319.861C224.738 320.749 225.164 321.765 226.051 322.13Z" fill="#A61C57"/>
<path d="M226.966 307.899C228.077 308.355 229.346 307.826 229.804 306.716C230.26 305.605 229.731 304.336 228.62 303.88C227.509 303.423 226.24 303.952 225.782 305.062C225.325 306.17 225.855 307.442 226.966 307.899Z" fill="#A61C57"/>
<path d="M248.889 295.811C250.158 296.333 251.611 295.728 252.132 294.458C252.655 293.19 252.049 291.737 250.779 291.216C249.511 290.693 248.058 291.299 247.537 292.568C247.015 293.835 247.621 295.288 248.889 295.811Z" fill="#A61C57"/>
<path d="M255.732 288.236C256.732 288.647 257.877 288.17 258.288 287.17C258.699 286.17 258.222 285.025 257.222 284.614C256.222 284.203 255.077 284.68 254.666 285.68C254.255 286.68 254.733 287.823 255.732 288.236Z" fill="#A61C57"/>
<path d="M269.135 294.547C270.513 295.114 272.088 294.455 272.653 293.08C273.22 291.703 272.562 290.128 271.187 289.562C269.809 288.995 268.234 289.653 267.669 291.029C267.102 292.406 267.758 293.98 269.135 294.547Z" fill="#A61C57"/>
<path d="M233.118 298.656C234.005 299.021 235.022 298.599 235.387 297.711C235.751 296.824 235.328 295.809 234.442 295.442C233.554 295.077 232.537 295.5 232.173 296.387C231.808 297.275 232.232 298.289 233.118 298.656Z" fill="#A61C57"/>
<path d="M281.476 304.971C282.421 305.361 283.504 304.909 283.895 303.962C284.286 303.015 283.833 301.935 282.886 301.543C281.94 301.155 280.859 301.605 280.467 302.552C280.078 303.501 280.53 304.583 281.476 304.971Z" fill="#A61C57"/>
<path d="M229.678 328.452C230.679 328.863 231.824 328.386 232.235 327.386C232.646 326.386 232.169 325.241 231.169 324.829C230.168 324.418 229.023 324.896 228.612 325.896C228.201 326.896 228.678 328.041 229.678 328.452Z" fill="#A61C57"/>
<path d="M239.177 345.762C240.065 346.126 241.081 345.704 241.446 344.817C241.811 343.929 241.389 342.912 240.501 342.548C239.614 342.183 238.597 342.605 238.232 343.493C237.864 344.381 238.288 345.396 239.177 345.762Z" fill="#A61C57"/>
<path d="M255.401 335.065C261.233 337.466 267.907 334.68 270.307 328.849C272.706 323.016 269.925 316.344 264.092 313.943C258.26 311.542 251.586 314.328 249.186 320.158C246.787 325.992 249.571 332.665 255.401 335.065Z" fill="white"/>
<path d="M256.518 332.354C260.854 334.138 265.812 332.069 267.598 327.734C269.383 323.397 267.315 318.437 262.979 316.653C258.642 314.869 253.684 316.938 251.9 321.274C250.114 325.609 252.182 330.57 256.518 332.354Z" fill="#A61C57"/>
<path d="M257.461 330.06C260.531 331.323 264.041 329.86 265.305 326.791C266.568 323.721 265.102 320.21 262.036 318.947C258.966 317.684 255.456 319.147 254.191 322.216C252.926 325.287 254.391 328.798 257.461 330.06Z" fill="#6B0D2E"/>
<path d="M263.814 321.246C264.497 321.527 265.281 321.202 265.562 320.515C265.844 319.832 265.518 319.048 264.832 318.767C264.149 318.486 263.365 318.812 263.084 319.498C262.802 320.181 263.128 320.965 263.814 321.246Z" fill="#A61C57"/>
<path d="M259.976 316.507C260.659 316.788 261.443 316.462 261.726 315.777C262.008 315.094 261.682 314.31 260.996 314.029C260.313 313.748 259.528 314.074 259.248 314.76C258.964 315.442 259.291 316.224 259.976 316.507Z" fill="#A61C57"/>
<path d="M255.493 320.525C256.176 320.806 256.96 320.48 257.24 319.794C257.522 319.111 257.196 318.327 256.51 318.046C255.827 317.765 255.043 318.09 254.762 318.777C254.483 319.461 254.81 320.243 255.493 320.525Z" fill="#C4246B"/>
<path d="M251.894 320.337C252.577 320.618 253.361 320.292 253.644 319.607C253.925 318.924 253.6 318.14 252.915 317.857C252.232 317.576 251.447 317.902 251.165 318.587C250.884 319.273 251.211 320.055 251.894 320.337Z" fill="#A61C57"/>
<path d="M254.078 318.032C254.761 318.314 255.543 317.987 255.826 317.302C256.107 316.619 255.781 315.835 255.095 315.554C254.409 315.273 253.628 315.598 253.347 316.285C253.066 316.968 253.392 317.752 254.078 318.032Z" fill="#891542"/>
<path d="M256.747 316.72C257.43 317.002 258.214 316.676 258.497 315.991C258.779 315.308 258.453 314.524 257.767 314.243C257.084 313.961 256.299 314.287 256.017 314.972C255.737 315.656 256.064 316.438 256.747 316.72Z" fill="#891542"/>
<path d="M254.35 323.304C255.033 323.585 255.817 323.259 256.099 322.576C256.38 321.893 256.054 321.109 255.369 320.826C254.684 320.544 253.902 320.871 253.622 321.557C253.34 322.24 253.666 323.024 254.35 323.304Z" fill="#891542"/>
<path d="M250.672 326.525C251.356 326.807 252.14 326.481 252.42 325.795C252.702 325.112 252.376 324.328 251.691 324.045C251.008 323.763 250.224 324.089 249.943 324.775C249.662 325.461 249.989 326.244 250.672 326.525Z" fill="#891542"/>
<path d="M250.603 329.602C251.286 329.884 252.071 329.558 252.351 328.872C252.633 328.189 252.307 327.404 251.621 327.124C250.938 326.842 250.154 327.168 249.873 327.854C249.593 328.538 249.92 329.32 250.603 329.602Z" fill="#A61C57"/>
<path d="M252.533 332.566C253.216 332.847 254 332.521 254.282 331.836C254.564 331.153 254.238 330.369 253.552 330.088C252.869 329.807 252.085 330.133 251.805 330.817C251.523 331.502 251.848 332.283 252.533 332.566Z" fill="#891542"/>
<path d="M255.271 334.109C255.954 334.391 256.738 334.065 257.021 333.38C257.302 332.697 256.977 331.913 256.29 331.632C255.607 331.35 254.823 331.676 254.541 332.361C254.261 333.045 254.588 333.827 255.271 334.109Z" fill="#A61C57"/>
<path d="M251.157 323.264C251.84 323.546 252.624 323.22 252.905 322.534C253.186 321.851 252.86 321.066 252.176 320.787C251.493 320.505 250.709 320.831 250.426 321.516C250.148 322.198 250.474 322.982 251.157 323.264Z" fill="#C4246B"/>
<path d="M253.658 326.306C254.341 326.587 255.125 326.261 255.408 325.576C255.69 324.893 255.364 324.109 254.678 323.828C253.995 323.547 253.211 323.873 252.93 324.559C252.648 325.242 252.975 326.024 253.658 326.306Z" fill="#C4246B"/>
<path d="M253.515 329.567C254.198 329.849 254.982 329.523 255.262 328.837C255.544 328.154 255.218 327.37 254.533 327.087C253.85 326.805 253.066 327.131 252.785 327.818C252.505 328.504 252.832 329.286 253.515 329.567Z" fill="#C4246B"/>
<path d="M259.92 332.203C260.603 332.484 261.388 332.159 261.668 331.472C261.95 330.789 261.624 330.005 260.941 329.724C260.258 329.442 259.474 329.768 259.191 330.453C258.908 331.138 259.235 331.92 259.92 332.203Z" fill="#891542"/>
<path d="M256.506 331.109C257.189 331.391 257.973 331.065 258.254 330.379C258.536 329.696 258.21 328.912 257.525 328.629C256.842 328.347 256.058 328.673 255.777 329.359C255.494 330.045 255.821 330.827 256.506 331.109Z" fill="#A61C57"/>
<path d="M258.468 334.677C259.151 334.958 259.935 334.633 260.218 333.948C260.499 333.265 260.174 332.48 259.489 332.198C258.806 331.916 258.022 332.242 257.739 332.927C257.458 333.613 257.783 334.394 258.468 334.677Z" fill="#C4246B"/>
<path d="M262.881 317.966C263.564 318.248 264.348 317.922 264.631 317.237C264.913 316.554 264.587 315.77 263.901 315.489C263.217 315.207 262.433 315.533 262.152 316.216C261.871 316.903 262.196 317.683 262.881 317.966Z" fill="#C4246B"/>
<path d="M258.25 319.19C258.933 319.472 259.717 319.146 259.997 318.46C260.279 317.776 259.953 316.992 259.268 316.71C258.585 316.428 257.801 316.754 257.52 317.44C257.238 318.125 257.563 318.909 258.25 319.19Z" fill="#A61C57"/>
<path d="M260.873 320.495C261.556 320.777 262.34 320.451 262.622 319.768C262.904 319.085 262.578 318.301 261.893 318.018C261.21 317.737 260.426 318.063 260.143 318.748C259.861 319.431 260.189 320.216 260.873 320.495Z" fill="#891542"/>
<path d="M262.847 324.204C263.532 324.487 264.314 324.16 264.596 323.477C264.878 322.794 264.552 322.01 263.867 321.727C263.184 321.445 262.4 321.771 262.119 322.457C261.835 323.139 262.161 323.923 262.847 324.204Z" fill="#891542"/>
<path d="M259.964 324.167C260.647 324.448 261.431 324.122 261.714 323.437C261.996 322.754 261.67 321.97 260.984 321.689C260.301 321.408 259.517 321.734 259.234 322.419C258.954 323.103 259.281 323.885 259.964 324.167Z" fill="#C4246B"/>
<path d="M259.106 326.541C259.714 326.79 260.41 326.501 260.662 325.893C260.911 325.285 260.62 324.588 260.013 324.337C259.404 324.087 258.709 324.379 258.458 324.985C258.206 325.594 258.497 326.289 259.106 326.541Z" fill="#891542"/>
<path d="M262.642 330.738C263.326 331.02 264.11 330.694 264.392 330.009C264.674 329.326 264.348 328.542 263.662 328.261C262.979 327.98 262.195 328.305 261.912 328.99C261.634 329.673 261.959 330.457 262.642 330.738Z" fill="#A61C57"/>
<path d="M265.016 328.492C265.699 328.774 266.483 328.448 266.763 327.762C267.045 327.079 266.719 326.295 266.033 326.014C265.35 325.732 264.566 326.058 264.285 326.744C264.006 327.429 264.333 328.211 265.016 328.492Z" fill="#891542"/>
<path d="M265.586 325.399C266.269 325.68 267.053 325.355 267.336 324.67C267.617 323.986 267.291 323.202 266.605 322.922C265.922 322.64 265.138 322.966 264.855 323.651C264.574 324.334 264.901 325.116 265.586 325.399Z" fill="#C4246B"/>
<path d="M262.18 327.215C262.863 327.496 263.647 327.171 263.93 326.486C264.212 325.803 263.886 325.019 263.199 324.738C262.516 324.456 261.732 324.782 261.452 325.468C261.17 326.151 261.496 326.935 262.18 327.215Z" fill="#A61C57"/>
<path d="M266.823 321.829C267.506 322.11 268.29 321.784 268.573 321.099C268.854 320.416 268.528 319.632 267.842 319.351C267.159 319.07 266.375 319.396 266.094 320.079C265.813 320.765 266.14 321.547 266.823 321.829Z" fill="#A61C57"/>
<path d="M265.991 319.246C266.674 319.528 267.459 319.202 267.739 318.516C268.021 317.833 267.695 317.049 267.01 316.766C266.327 316.484 265.543 316.81 265.262 317.497C264.981 318.183 265.308 318.965 265.991 319.246Z" fill="#C4246B"/>
<path d="M268.263 324.984C268.946 325.266 269.73 324.94 270.01 324.254C270.292 323.571 269.966 322.787 269.28 322.506C268.597 322.225 267.813 322.55 267.532 323.237C267.252 323.921 267.579 324.703 268.263 324.984Z" fill="#891542"/>
<path d="M268.278 328.277C268.961 328.558 269.746 328.232 270.026 327.546C270.308 326.863 269.982 326.079 269.297 325.796C268.614 325.515 267.83 325.841 267.549 326.527C267.268 327.213 267.595 327.995 268.278 328.277Z" fill="#A61C57"/>
<path d="M266.649 331.183C267.332 331.464 268.116 331.138 268.397 330.452C268.678 329.769 268.352 328.985 267.667 328.702C266.984 328.421 266.2 328.747 265.92 329.433C265.639 330.119 265.965 330.903 266.649 331.183Z" fill="#891542"/>
<path d="M264.314 333.338C264.998 333.62 265.782 333.294 266.064 332.609C266.346 331.926 266.02 331.142 265.335 330.859C264.652 330.578 263.868 330.903 263.587 331.59C263.304 332.275 263.631 333.057 264.314 333.338Z" fill="#C4246B"/>
<path d="M261.486 334.801C262.169 335.082 262.953 334.757 263.234 334.07C263.516 333.387 263.19 332.603 262.504 332.322C261.821 332.041 261.037 332.367 260.756 333.053C260.474 333.736 260.801 334.518 261.486 334.801Z" fill="#A61C57"/>
<path d="M259.227 329.48C259.91 329.762 260.694 329.436 260.975 328.75C261.256 328.067 260.93 327.283 260.246 327.003C259.563 326.721 258.779 327.047 258.496 327.732C258.217 328.417 258.544 329.199 259.227 329.48Z" fill="#C4246B"/>
<path d="M256.219 328.096C256.902 328.377 257.687 328.051 257.967 327.365C258.249 326.682 257.923 325.898 257.237 325.617C256.554 325.336 255.77 325.662 255.49 326.346C255.209 327.032 255.536 327.814 256.219 328.096Z" fill="#891542"/>
<path d="M256.697 325.069C257.38 325.351 258.164 325.025 258.445 324.339C258.726 323.656 258.4 322.872 257.716 322.592C257.033 322.311 256.249 322.636 255.968 323.319C255.687 324.006 256.013 324.79 256.697 325.069Z" fill="#A61C57"/>
<path d="M257.993 322.207C258.676 322.488 259.46 322.163 259.74 321.476C260.022 320.793 259.696 320.009 259.012 319.73C258.329 319.448 257.545 319.774 257.263 320.457C256.983 321.143 257.306 321.926 257.993 322.207Z" fill="#891542"/>
</svg>
