<svg width="140" height="134" viewBox="0 0 140 134" fill="none" xmlns="http://www.w3.org/2000/svg">
<path d="M101.09 73.8358C102.684 56.5053 89.9276 41.1639 72.5971 39.5697C55.2666 37.9755 39.9251 50.7323 38.331 68.0628C36.7368 85.3933 49.4936 100.735 66.8241 102.329C84.1546 103.923 99.4961 91.1663 101.09 73.8358Z" fill="#A61C57"/>
<mask id="mask0_207_162" style="mask-type:luminance" maskUnits="userSpaceOnUse" x="44" y="0" width="51" height="66">
<path d="M70.8789 65.265C71.5449 63.028 76.2299 57.728 82.6509 51.996C90.4759 45.012 96.9879 35.061 93.6149 23.321C91.0969 14.559 84.3709 8.07099 78.8489 0.817993C78.8489 0.817993 73.3189 1.79199 69.7179 4.82299C66.1169 1.79199 60.5869 0.817993 60.5869 0.817993C55.0649 8.07099 48.3389 14.56 45.8209 23.321C42.4469 35.06 48.9599 45.012 56.7849 51.996C63.2059 57.728 67.8909 63.027 68.5569 65.265H70.8789Z" fill="white"/>
</mask>
<g mask="url(#mask0_207_162)">
<path d="M70.8789 65.265C71.5449 63.028 76.2299 57.728 82.6509 51.996C90.4759 45.012 96.9879 35.061 93.6149 23.321C91.0969 14.559 84.3709 8.07099 78.8489 0.817993C78.8489 0.817993 73.3189 1.79199 69.7179 4.82299C66.1169 1.79199 60.5869 0.817993 60.5869 0.817993C55.0649 8.07099 48.3389 14.56 45.8209 23.321C42.4469 35.06 48.9599 45.012 56.7849 51.996C63.2059 57.728 67.8909 63.027 68.5569 65.265H70.8789Z" fill="white"/>
<path d="M70.6609 65.265C71.2019 63.447 75.0079 59.142 80.2239 54.486C86.5799 48.813 91.8709 40.729 89.1299 31.192C87.0849 24.075 81.6209 18.804 77.1349 12.911C77.1349 12.911 72.6429 13.702 69.7179 16.165C66.7919 13.703 62.2999 12.911 62.2999 12.911C57.8139 18.803 52.3499 24.074 50.3049 31.192C47.5649 40.728 52.8549 48.812 59.2109 54.486C64.4269 59.142 68.2329 63.447 68.7739 65.265H70.6609Z" fill="#F6DCEF"/>
</g>
<mask id="mask1_207_162" style="mask-type:luminance" maskUnits="userSpaceOnUse" x="44" y="0" width="51" height="66">
<path d="M70.8789 65.265C71.5449 63.028 76.2299 57.728 82.6509 51.996C90.4759 45.012 96.9879 35.061 93.6149 23.321C91.0969 14.559 84.3709 8.07099 78.8489 0.817993C78.8489 0.817993 73.3189 1.79199 69.7179 4.82299C66.1169 1.79199 60.5869 0.817993 60.5869 0.817993C55.0649 8.07099 48.3389 14.56 45.8209 23.321C42.4469 35.06 48.9599 45.012 56.7849 51.996C63.2059 57.728 67.8909 63.027 68.5569 65.265H70.8789Z" fill="white"/>
</mask>
<g mask="url(#mask1_207_162)">
<path d="M70.2499 65.265C70.5559 64.167 72.7039 60.442 75.6479 57.63C79.2349 54.203 82.2219 49.32 80.6749 43.559C80.6339 43.405 80.5809 43.239 80.5189 43.062C77.0879 33.32 62.348 33.32 58.917 43.062C58.854 43.239 58.8019 43.405 58.7609 43.559C57.2139 49.319 60.1999 54.202 63.7879 57.63C66.7319 60.443 68.88 64.168 69.186 65.265H70.2499Z" fill="#E89DD5"/>
</g>
<mask id="mask2_207_162" style="mask-type:luminance" maskUnits="userSpaceOnUse" x="0" y="33" width="65" height="50">
<path d="M64.662 68.094C62.74 66.769 59.147 60.675 55.681 52.797C51.456 43.197 44.005 33.928 31.798 33.509C22.687 33.196 14.438 37.588 5.83296 40.599C5.83296 40.599 5.04996 46.159 6.81996 50.521C2.82396 53.009 0.188965 57.968 0.188965 57.968C5.38096 65.461 9.47296 73.863 17.028 78.965C27.15 85.801 38.627 82.682 47.687 77.399C55.122 73.063 61.61 70.245 63.944 70.303L64.662 68.094Z" fill="white"/>
</mask>
<g mask="url(#mask2_207_162)">
<path d="M64.662 68.094C62.74 66.769 59.147 60.675 55.681 52.797C51.456 43.197 44.005 33.928 31.798 33.509C22.687 33.196 14.438 37.588 5.83296 40.599C5.83296 40.599 5.04996 46.159 6.81996 50.521C2.82396 53.009 0.188965 57.968 0.188965 57.968C5.38096 65.461 9.47296 73.863 17.028 78.965C27.15 85.801 38.627 82.682 47.687 77.399C55.122 73.063 61.61 70.245 63.944 70.303L64.662 68.094Z" fill="white"/>
<path d="M64.594 68.302C63.033 67.225 60.114 62.276 57.298 55.876C53.866 48.078 47.813 40.548 37.897 40.207C30.496 39.953 23.795 43.521 16.805 45.966C16.805 45.966 16.169 50.483 17.607 54.026C14.361 56.047 12.22 60.075 12.22 60.075C16.438 66.162 19.762 72.988 25.899 77.132C34.122 82.685 43.445 80.152 50.805 75.86C56.845 72.338 62.115 70.049 64.011 70.096L64.594 68.302Z" fill="#F6DCEF"/>
</g>
<mask id="mask3_207_162" style="mask-type:luminance" maskUnits="userSpaceOnUse" x="0" y="33" width="65" height="50">
<path d="M64.662 68.094C62.74 66.769 59.147 60.675 55.681 52.797C51.456 43.197 44.005 33.928 31.798 33.509C22.687 33.196 14.438 37.588 5.83296 40.599C5.83296 40.599 5.04996 46.159 6.81996 50.521C2.82396 53.009 0.188965 57.968 0.188965 57.968C5.38096 65.461 9.47296 73.863 17.028 78.965C27.15 85.801 38.627 82.682 47.687 77.399C55.122 73.063 61.61 70.245 63.944 70.303L64.662 68.094Z" fill="white"/>
</mask>
<g mask="url(#mask3_207_162)">
<path d="M64.468 68.692C63.518 68.062 60.639 64.868 58.874 61.199C56.723 56.728 53.002 52.379 47.045 52.07C46.886 52.062 46.712 52.06 46.524 52.065C36.198 52.318 31.643 66.336 39.849 72.61C39.998 72.724 40.14 72.825 40.273 72.912C45.274 76.163 50.84 74.832 55.208 72.479C58.793 70.548 62.999 69.657 64.138 69.705L64.468 68.692Z" fill="#E89DD5"/>
</g>
<mask id="mask4_207_162" style="mask-type:luminance" maskUnits="userSpaceOnUse" x="20" y="74" width="51" height="60">
<path d="M65.432 74.881C63.578 76.3 56.672 77.834 48.109 78.696C37.674 79.747 26.556 83.97 22.385 95.45C19.272 104.018 20.9 113.221 21.104 122.335C21.104 122.335 26.15 124.797 30.846 124.462C31.978 129.031 35.879 133.069 35.879 133.069C44.61 130.447 53.865 129.151 61.052 123.542C70.681 116.028 71.262 104.149 69.037 93.899C67.211 85.488 66.536 78.447 67.312 76.245L65.432 74.881Z" fill="white"/>
</mask>
<g mask="url(#mask4_207_162)">
<path d="M65.432 74.881C63.578 76.3 56.672 77.834 48.109 78.696C37.674 79.747 26.556 83.97 22.385 95.45C19.272 104.018 20.9 113.221 21.104 122.335C21.104 122.335 26.15 124.797 30.846 124.462C31.978 129.031 35.879 133.069 35.879 133.069C44.61 130.447 53.865 129.151 61.052 123.542C70.681 116.028 71.262 104.149 69.037 93.899C67.211 85.488 66.536 78.447 67.312 76.245L65.432 74.881Z" fill="white"/>
<path d="M65.608 75.01C64.102 76.162 58.492 77.408 51.536 78.109C43.059 78.963 34.027 82.393 30.639 91.719C28.11 98.679 29.433 106.155 29.598 113.559C29.598 113.559 33.697 115.559 37.511 115.287C38.43 118.999 41.6 122.279 41.6 122.279C48.693 120.149 56.211 119.096 62.049 114.54C69.871 108.436 70.343 98.786 68.535 90.46C67.052 83.627 66.503 77.907 67.134 76.119L65.608 75.01Z" fill="#F6DCEF"/>
</g>
<mask id="mask5_207_162" style="mask-type:luminance" maskUnits="userSpaceOnUse" x="20" y="74" width="51" height="60">
<path d="M65.432 74.881C63.578 76.3 56.672 77.834 48.109 78.696C37.674 79.747 26.556 83.97 22.385 95.45C19.272 104.018 20.9 113.221 21.104 122.335C21.104 122.335 26.15 124.797 30.846 124.462C31.978 129.031 35.879 133.069 35.879 133.069C44.61 130.447 53.865 129.151 61.052 123.542C70.681 116.028 71.262 104.149 69.037 93.899C67.211 85.488 66.536 78.447 67.312 76.245L65.432 74.881Z" fill="white"/>
</mask>
<g mask="url(#mask5_207_162)">
<path d="M65.941 75.251C65.048 75.96 61.121 77.711 57.086 78.256C52.169 78.92 46.883 81.115 44.749 86.685C44.692 86.833 44.637 86.999 44.583 87.179C41.632 97.077 53.5571 105.741 62.0591 99.876C62.2141 99.769 62.3541 99.666 62.4771 99.566C67.1141 95.815 67.569 90.109 66.681 85.228C65.952 81.222 66.404 76.946 66.802 75.878L65.941 75.251Z" fill="#E89DD5"/>
</g>
<mask id="mask6_207_162" style="mask-type:luminance" maskUnits="userSpaceOnUse" x="69" y="74" width="50" height="60">
<path d="M72.125 76.246C72.901 78.448 72.226 85.489 70.4 93.9C68.175 104.149 68.755 116.028 78.385 123.543C85.572 129.151 94.827 130.447 103.558 133.07C103.558 133.07 107.459 129.032 108.591 124.463C113.286 124.798 118.333 122.336 118.333 122.336C118.537 113.222 120.165 104.019 117.052 95.451C112.881 83.971 101.763 79.748 91.328 78.697C82.764 77.835 75.859 76.301 74.005 74.882L72.125 76.246Z" fill="white"/>
</mask>
<g mask="url(#mask6_207_162)">
<path d="M72.125 76.246C72.901 78.448 72.226 85.489 70.4 93.9C68.175 104.149 68.755 116.028 78.385 123.543C85.572 129.151 94.827 130.447 103.558 133.07C103.558 133.07 107.459 129.032 108.591 124.463C113.286 124.798 118.333 122.336 118.333 122.336C118.537 113.222 120.165 104.019 117.052 95.451C112.881 83.971 101.763 79.748 91.328 78.697C82.764 77.835 75.859 76.301 74.005 74.882L72.125 76.246Z" fill="white"/>
<path d="M72.3009 76.118C72.9309 77.907 72.3829 83.627 70.8999 90.459C69.0919 98.785 69.5639 108.435 77.3859 114.539C83.2239 119.095 90.7429 120.147 97.8349 122.278C97.8349 122.278 101.004 118.998 101.924 115.286C105.738 115.558 109.837 113.558 109.837 113.558C110.003 106.154 111.325 98.679 108.796 91.718C105.408 82.392 96.3759 78.962 87.8989 78.108C80.9419 77.407 75.3329 76.161 73.8259 75.009L72.3009 76.118Z" fill="#F6DCEF"/>
</g>
<mask id="mask7_207_162" style="mask-type:luminance" maskUnits="userSpaceOnUse" x="69" y="74" width="50" height="60">
<path d="M72.125 76.246C72.901 78.448 72.226 85.489 70.4 93.9C68.175 104.149 68.755 116.028 78.385 123.543C85.572 129.151 94.827 130.447 103.558 133.07C103.558 133.07 107.459 129.032 108.591 124.463C113.286 124.798 118.333 122.336 118.333 122.336C118.537 113.222 120.165 104.019 117.052 95.451C112.881 83.971 101.763 79.748 91.328 78.697C82.764 77.835 75.859 76.301 74.005 74.882L72.125 76.246Z" fill="white"/>
</mask>
<g mask="url(#mask7_207_162)">
<path d="M72.633 75.877C73.031 76.945 73.483 81.221 72.754 85.227C71.866 90.108 72.32 95.814 76.958 99.565C77.082 99.665 77.221 99.769 77.376 99.875C85.878 105.74 97.803 97.076 94.853 87.178C94.799 86.998 94.744 86.833 94.687 86.684C92.552 81.115 87.266 78.919 82.35 78.255C78.315 77.71 74.388 75.959 73.495 75.25L72.633 75.877Z" fill="#E89DD5"/>
</g>
<mask id="mask8_207_162" style="mask-type:luminance" maskUnits="userSpaceOnUse" x="69" y="74" width="50" height="60">
<path d="M72.125 76.246C72.901 78.448 72.226 85.489 70.4 93.9C68.175 104.149 68.755 116.028 78.385 123.543C85.572 129.151 94.827 130.447 103.558 133.07C103.558 133.07 107.459 129.032 108.591 124.463C113.286 124.798 118.333 122.336 118.333 122.336C118.537 113.222 120.165 104.019 117.052 95.451C112.881 83.971 101.763 79.748 91.328 78.697C82.764 77.835 75.859 76.301 74.005 74.882L72.125 76.246Z" fill="white"/>
</mask>
<g mask="url(#mask8_207_162)">
<path d="M72.2539 75.6C72.6519 76.668 73.1039 80.944 72.3749 84.95C71.4869 89.831 71.9409 95.537 76.5789 99.288C76.7029 99.388 76.8419 99.491 76.9969 99.598C85.4989 105.463 97.4239 96.799 94.4729 86.901C94.4189 86.721 94.3639 86.556 94.3069 86.407C92.1719 80.838 86.8859 78.642 81.9699 77.978C77.9349 77.433 74.0079 75.682 73.1149 74.974L72.2539 75.6Z" fill="#E89DD5"/>
</g>
<mask id="mask9_207_162" style="mask-type:luminance" maskUnits="userSpaceOnUse" x="74" y="33" width="66" height="50">
<path d="M75.491 70.303C77.825 70.246 84.313 73.063 91.748 77.399C100.808 82.682 112.285 85.801 122.407 78.965C129.962 73.863 134.054 65.461 139.246 57.968C139.246 57.968 136.611 53.01 132.615 50.521C134.385 46.159 133.602 40.599 133.602 40.599C124.997 37.589 116.748 33.197 107.637 33.509C95.4299 33.928 87.978 43.197 83.754 52.797C80.287 60.675 76.6949 66.768 74.7729 68.094L75.491 70.303Z" fill="white"/>
</mask>
<g mask="url(#mask9_207_162)">
<path d="M75.491 70.303C77.825 70.246 84.313 73.063 91.748 77.399C100.808 82.682 112.285 85.801 122.407 78.965C129.962 73.863 134.054 65.461 139.246 57.968C139.246 57.968 136.611 53.01 132.615 50.521C134.385 46.159 133.602 40.599 133.602 40.599C124.997 37.589 116.748 33.197 107.637 33.509C95.4299 33.928 87.978 43.197 83.754 52.797C80.287 60.675 76.6949 66.768 74.7729 68.094L75.491 70.303Z" fill="white"/>
<path d="M75.4239 70.0959C77.3199 70.0489 82.5899 72.3379 88.6299 75.8599C95.9899 80.1519 105.313 82.6849 113.536 77.1319C119.673 72.9869 122.997 66.1619 127.215 60.0749C127.215 60.0749 125.074 56.0469 121.829 54.0259C123.267 50.4829 122.631 45.9659 122.631 45.9659C115.641 43.5209 108.94 39.9529 101.539 40.2069C91.6229 40.5479 85.5689 48.0769 82.1379 55.8759C79.3219 62.2749 76.4029 67.2249 74.8419 68.3019L75.4239 70.0959Z" fill="#F6DCEF"/>
</g>
<mask id="mask10_207_162" style="mask-type:luminance" maskUnits="userSpaceOnUse" x="74" y="33" width="66" height="50">
<path d="M75.491 70.303C77.825 70.246 84.313 73.063 91.748 77.399C100.808 82.682 112.285 85.801 122.407 78.965C129.962 73.863 134.054 65.461 139.246 57.968C139.246 57.968 136.611 53.01 132.615 50.521C134.385 46.159 133.602 40.599 133.602 40.599C124.997 37.589 116.748 33.197 107.637 33.509C95.4299 33.928 87.978 43.197 83.754 52.797C80.287 60.675 76.6949 66.768 74.7729 68.094L75.491 70.303Z" fill="white"/>
</mask>
<g mask="url(#mask10_207_162)">
<path d="M75.2969 69.705C76.4359 69.656 80.6419 70.548 84.2269 72.479C88.5949 74.832 94.1619 76.163 99.1619 72.912C99.2949 72.825 99.4369 72.724 99.5859 72.61C107.791 66.336 103.236 52.318 92.9109 52.065C92.7229 52.06 92.5489 52.062 92.3899 52.07C86.4329 52.379 82.7119 56.728 80.5609 61.199C78.7959 64.868 75.9169 68.062 74.9669 68.692L75.2969 69.705Z" fill="#E89DD5"/>
</g>
<path d="M68.613 66.082C66.953 61.321 65.499 56.408 63.475 51.786C62.521 49.608 61.472 47.501 60.31 45.426C59.134 43.328 57.131 41.822 56.056 39.765C55.808 39.29 55.091 39.71 55.339 40.184C56.252 41.931 57.794 42.908 58.868 44.622C60.127 46.631 61.185 48.757 62.188 50.902C64.491 55.828 66.025 61.173 67.813 66.302C67.987 66.806 68.79 66.589 68.613 66.082Z" fill="white"/>
<path d="M70.0469 70.039C68.9319 64.83 68.1349 59.871 69.4959 54.63C70.7249 49.898 73.8749 45.885 77.3829 42.617C77.7759 42.251 77.1869 41.665 76.7949 42.029C73.0489 45.518 70.2679 49.515 68.6939 54.409C67.0239 59.599 68.1379 65.089 69.2449 70.26C69.3579 70.784 70.1589 70.561 70.0469 70.039Z" fill="white"/>
<path d="M69.8759 71.397C69.0249 66.986 65.4979 63.244 62.4009 60.222C58.2639 56.186 53.0539 52.75 47.3289 51.61C46.8059 51.506 46.5829 52.307 47.1079 52.411C52.4319 53.472 56.9759 56.517 60.9939 60.05C64.3589 63.009 68.1969 67.065 69.0749 71.618C69.1759 72.144 69.9769 71.92 69.8759 71.397Z" fill="white"/>
<path d="M69.5409 70.29C59.2339 65.578 48.9639 60.753 39.2169 54.949C38.7549 54.674 38.3379 55.393 38.7979 55.666C48.5449 61.47 58.8149 66.295 69.1219 71.007C69.6059 71.228 70.0279 70.512 69.5409 70.29Z" fill="white"/>
<path d="M69.1199 70.328C59.4379 72.345 49.396 72.913 40.227 68.61C39.745 68.384 39.323 69.1 39.808 69.327C49.186 73.728 59.422 73.195 69.341 71.129C69.865 71.02 69.6429 70.219 69.1199 70.328Z" fill="white"/>
<path d="M69.7539 70.468C66.8409 70.936 63.4219 75.422 61.4219 77.285C56.6929 81.691 52.3819 86.529 48.3749 91.595C48.0459 92.01 48.6299 92.603 48.9629 92.182C52.0519 88.277 55.3279 84.556 58.8089 80.997C60.5469 79.22 62.3659 77.525 64.2039 75.853C65.5299 74.647 68.1069 71.57 69.9759 71.269C70.5029 71.184 70.2779 70.383 69.7539 70.468Z" fill="white"/>
<path d="M69.766 70.45C67.277 72.541 66.439 77.396 65.561 80.28C63.657 86.533 62.669 93.114 61.358 99.51C61.251 100.033 62.052 100.256 62.159 99.731C63.19 94.707 64.179 89.672 65.268 84.66C66.088 80.888 67.227 73.665 70.354 71.038C70.764 70.692 70.173 70.108 69.766 70.45Z" fill="white"/>
<path d="M69.2439 71.721C70.8959 76.581 72.4289 81.392 72.8909 86.533C73.3659 91.811 71.8319 97.12 70.4709 102.162C70.3309 102.68 71.1329 102.9 71.2719 102.383C72.5479 97.656 73.6909 92.985 73.7779 88.069C73.8779 82.398 71.8419 76.787 70.0439 71.5C69.8739 70.995 69.0709 71.212 69.2439 71.721Z" fill="white"/>
<path d="M69.101 71.944C74.668 80.48 79.635 89.354 84 98.563C84.229 99.047 84.946 98.625 84.717 98.144C80.352 88.935 75.385 80.061 69.818 71.525C69.527 71.078 68.808 71.494 69.101 71.944Z" fill="white"/>
<path d="M69.3959 71.616C77.6439 80.917 86.7779 89.394 95.8249 97.925C96.2149 98.292 96.8029 97.706 96.4129 97.337C87.3649 88.806 78.2319 80.328 69.9839 71.028C69.6279 70.627 69.0419 71.217 69.3959 71.616Z" fill="white"/>
<path d="M70.1329 70.921C79.5189 75.369 87.7429 81.593 94.5729 89.42C94.9259 89.824 95.5109 89.234 95.1599 88.832C88.2819 80.949 80.0069 74.684 70.5519 70.203C70.0709 69.975 69.6489 70.691 70.1329 70.921Z" fill="white"/>
<path d="M69.365 71.453C75.279 73.569 81.623 73.573 87.755 74.655C93.607 75.687 98.39 76.514 104.315 75.313C104.84 75.207 104.617 74.406 104.094 74.512C97.892 75.769 92.8169 74.708 86.7079 73.631C80.9769 72.62 75.122 72.634 69.586 70.653C69.08 70.47 68.864 71.274 69.365 71.453Z" fill="white"/>
<path d="M70.132 69.978C74.32 71.148 78.514 70.098 82.664 69.194C88.48 67.928 94.135 65.995 99.614 63.688C100.1 63.483 99.887 62.679 99.393 62.887C95.27 64.623 91.076 66.093 86.771 67.311C81.682 68.751 75.569 70.634 70.353 69.177C69.836 69.032 69.617 69.834 70.132 69.978Z" fill="white"/>
<path d="M69.8759 71.031C71.6469 66.192 77.9678 63.639 81.9368 60.871C85.7918 58.183 88.5838 54.724 90.7148 50.559C90.9578 50.083 90.2418 49.663 89.9978 50.14C87.1888 55.63 83.2109 59.142 78.0999 62.429C74.7639 64.574 70.5229 66.855 69.0759 70.81C68.8899 71.314 69.6929 71.529 69.8759 71.031Z" fill="white"/>
<path d="M69.8609 70.331C66.7089 59.935 64.7309 48.725 65.4269 37.84C65.4609 37.305 64.6299 37.308 64.5959 37.84C63.8969 48.777 65.8939 60.11 69.0589 70.552C69.2149 71.063 70.0169 70.845 69.8609 70.331Z" fill="white"/>
<path d="M69.9179 70.148C61.4759 79.902 55.0329 91.036 50.7829 103.215C50.6059 103.722 51.4089 103.938 51.5839 103.436C55.7889 91.385 62.1529 80.386 70.5049 70.736C70.8539 70.332 70.2689 69.742 69.9179 70.148Z" fill="white"/>
<path d="M70.8419 70.623C68.0819 61.014 73.4879 52.503 81.4799 47.537C81.9339 47.255 81.5169 46.536 81.0609 46.82C72.7469 51.986 67.1849 60.9 70.0409 70.844C70.1879 71.358 70.9899 71.139 70.8419 70.623Z" fill="white"/>
<path d="M67.6439 70.239C60.2439 74.833 52.5159 78.757 44.4339 82.005C43.9429 82.202 44.1569 83.006 44.6549 82.806C52.8019 79.532 60.6029 75.588 68.0639 70.957C68.5179 70.675 68.1009 69.956 67.6439 70.239Z" fill="white"/>
<path d="M70.9128 69.825C73.8688 67.284 78.1738 66.314 81.7948 65.065C85.3868 63.826 89.0118 62.683 92.6478 61.58C93.1588 61.425 92.9408 60.623 92.4268 60.779C87.7498 62.197 83.1088 63.715 78.4978 65.334C75.6008 66.351 72.6828 67.211 70.3258 69.237C69.9188 69.587 70.5088 70.172 70.9128 69.825Z" fill="white"/>
<path d="M50.334 92.309C50.334 93.229 49.588 93.975 48.668 93.975C47.748 93.975 47.002 93.229 47.002 92.309C47.002 91.389 47.748 90.643 48.668 90.643C49.588 90.643 50.334 91.389 50.334 92.309Z" fill="#A61C57"/>
<path d="M52.948 103.665C52.948 104.64 52.158 105.43 51.183 105.43C50.208 105.43 49.418 104.64 49.418 103.665C49.418 102.69 50.208 101.9 51.183 101.9C52.158 101.9 52.948 102.69 52.948 103.665Z" fill="#A61C57"/>
<path d="M64.1179 99.926C64.1179 100.993 63.2529 101.858 62.1859 101.858C61.1189 101.858 60.2539 100.993 60.2539 99.926C60.2539 98.859 61.1189 97.994 62.1859 97.994C63.2529 97.994 64.1179 98.859 64.1179 99.926Z" fill="#A61C57"/>
<path d="M72.8779 102.696C72.8779 103.882 71.9159 104.844 70.7299 104.844C69.5429 104.844 68.5819 103.882 68.5819 102.696C68.5819 101.509 69.5439 100.548 70.7299 100.548C71.9159 100.547 72.8779 101.509 72.8779 102.696Z" fill="#A61C57"/>
<path d="M86.3399 98.353C86.3399 99.163 85.6829 99.82 84.8729 99.82C84.0629 99.82 83.4059 99.163 83.4059 98.353C83.4059 97.543 84.0629 96.886 84.8729 96.886C85.6829 96.886 86.3399 97.543 86.3399 98.353Z" fill="#A61C57"/>
<path d="M98.5269 97.994C98.5269 98.988 97.7209 99.794 96.7269 99.794C95.7329 99.794 94.9269 98.988 94.9269 97.994C94.9269 97 95.7329 96.194 96.7269 96.194C97.7209 96.194 98.5269 97 98.5269 97.994Z" fill="#A61C57"/>
<path d="M96.738 89.126C96.738 90.16 95.9 90.997 94.867 90.997C93.834 90.997 92.996 90.159 92.996 89.126C92.996 88.092 93.834 87.255 94.867 87.255C95.9 87.255 96.738 88.093 96.738 89.126Z" fill="#A61C57"/>
<path d="M106.134 75.14C106.134 76.206 105.27 77.07 104.204 77.07C103.138 77.07 102.274 76.206 102.274 75.14C102.274 74.074 103.138 73.21 104.204 73.21C105.27 73.21 106.134 74.074 106.134 75.14Z" fill="#A61C57"/>
<path d="M102.266 63.288C102.266 64.512 101.274 65.504 100.05 65.504C98.826 65.504 97.834 64.512 97.834 63.288C97.834 62.064 98.826 61.072 100.05 61.072C101.274 61.072 102.266 62.064 102.266 63.288Z" fill="#A61C57"/>
<path d="M92.018 50.072C92.018 50.99 91.274 51.734 90.356 51.734C89.438 51.734 88.694 50.99 88.694 50.072C88.694 49.154 89.438 48.41 90.356 48.41C91.274 48.41 92.018 49.154 92.018 50.072Z" fill="#A61C57"/>
<path d="M79.3249 41.97C79.3249 42.838 78.6209 43.541 77.7539 43.541C76.8859 43.541 76.1829 42.838 76.1829 41.97C76.1829 41.102 76.8859 40.399 77.7539 40.399C78.6219 40.399 79.3249 41.103 79.3249 41.97Z" fill="#A61C57"/>
<path d="M67.1119 37.84C67.1119 38.926 66.2319 39.805 65.1469 39.805C64.0619 39.805 63.1819 38.925 63.1819 37.84C63.1819 36.755 64.0619 35.875 65.1469 35.875C66.2319 35.874 67.1119 36.754 67.1119 37.84Z" fill="#A61C57"/>
<path d="M49.4649 52.01C49.4649 53.251 48.4589 54.256 47.2189 54.256C45.9779 54.256 44.9729 53.25 44.9729 52.01C44.9729 50.769 45.9789 49.764 47.2189 49.764C48.4589 49.764 49.4649 50.77 49.4649 52.01Z" fill="#A61C57"/>
<path d="M40.7789 55.126C40.7789 56.104 39.9859 56.897 39.0079 56.897C38.0299 56.897 37.2369 56.104 37.2369 55.126C37.2369 54.148 38.0299 53.355 39.0079 53.355C39.9859 53.355 40.7789 54.148 40.7789 55.126Z" fill="#A61C57"/>
<path d="M41.4449 68.502C41.4449 69.848 40.3539 70.939 39.0079 70.939C37.6619 70.939 36.5709 69.848 36.5709 68.502C36.5709 67.156 37.6619 66.065 39.0079 66.065C40.3539 66.065 41.4449 67.156 41.4449 68.502Z" fill="#A61C57"/>
<path d="M57.268 39.805C57.268 40.673 56.565 41.376 55.697 41.376C54.829 41.376 54.126 40.673 54.126 39.805C54.126 38.937 54.829 38.234 55.697 38.234C56.565 38.234 57.268 38.937 57.268 39.805Z" fill="#A61C57"/>
<path d="M45.9149 82.406C45.9149 83.331 45.1649 84.08 44.2409 84.08C43.3159 84.08 42.5669 83.33 42.5669 82.406C42.5669 81.481 43.3169 80.732 44.2409 80.732C45.1659 80.731 45.9149 81.481 45.9149 82.406Z" fill="#A61C57"/>
<path d="M83.3629 47.178C83.3629 48.156 82.5699 48.949 81.5919 48.949C80.6139 48.949 79.8209 48.156 79.8209 47.178C79.8209 46.2 80.6139 45.407 81.5919 45.407C82.5699 45.407 83.3629 46.2 83.3629 47.178Z" fill="#A61C57"/>
<path d="M94.5659 61.072C94.5659 61.94 93.8629 62.643 92.9949 62.643C92.1269 62.643 91.424 61.94 91.424 61.072C91.424 60.204 92.1269 59.501 92.9949 59.501C93.8629 59.501 94.5659 60.204 94.5659 61.072Z" fill="#A61C57"/>
<path d="M69.7179 81.282C75.4197 81.282 80.0419 76.6597 80.0419 70.958C80.0419 65.2562 75.4197 60.634 69.7179 60.634C64.0161 60.634 59.3939 65.2562 59.3939 70.958C59.3939 76.6597 64.0161 81.282 69.7179 81.282Z" fill="white"/>
<path d="M77.3909 70.958C77.3909 75.196 73.9559 78.631 69.7179 78.631C65.4799 78.631 62.0449 75.195 62.0449 70.958C62.0449 66.72 65.4809 63.285 69.7179 63.285C73.9559 63.285 77.3909 66.72 77.3909 70.958Z" fill="#A61C57"/>
<path d="M75.1499 70.958C75.1499 73.958 72.7179 76.391 69.7169 76.391C66.7159 76.391 64.2839 73.959 64.2839 70.958C64.2839 67.957 66.7159 65.525 69.7169 65.525C72.7179 65.525 75.1499 67.958 75.1499 70.958Z" fill="#6B0D2E"/>
<path d="M65.597 73.237C65.597 73.906 65.055 74.448 64.386 74.448C63.717 74.448 63.175 73.906 63.175 73.237C63.175 72.568 63.717 72.026 64.386 72.026C65.055 72.026 65.597 72.568 65.597 73.237Z" fill="#A61C57"/>
<path d="M62.953 68.3979C62.953 69.0669 62.411 69.6089 61.742 69.6089C61.073 69.6089 60.531 69.0669 60.531 68.3979C60.531 67.7289 61.073 67.187 61.742 67.187C62.411 67.187 62.953 67.7289 62.953 68.3979Z" fill="#A61C57"/>
<path d="M67.855 66.033C67.855 66.702 67.313 67.244 66.644 67.244C65.975 67.244 65.433 66.702 65.433 66.033C65.433 65.364 65.975 64.822 66.644 64.822C67.313 64.822 67.855 65.364 67.855 66.033Z" fill="#C4246B"/>
<path d="M68.936 62.96C68.936 63.629 68.394 64.171 67.725 64.171C67.056 64.171 66.514 63.629 66.514 62.96C66.514 62.291 67.056 61.749 67.725 61.749C68.394 61.749 68.936 62.291 68.936 62.96Z" fill="#A61C57"/>
<path d="M66.259 63.992C66.259 64.661 65.717 65.203 65.048 65.203C64.379 65.203 63.837 64.661 63.837 63.992C63.837 63.323 64.379 62.781 65.048 62.781C65.717 62.781 66.259 63.323 66.259 63.992Z" fill="#891542"/>
<path d="M64.243 65.772C64.243 66.441 63.701 66.983 63.032 66.983C62.363 66.983 61.821 66.441 61.821 65.772C61.821 65.103 62.363 64.561 63.032 64.561C63.701 64.561 64.243 65.104 64.243 65.772Z" fill="#891542"/>
<path d="M70.572 66.033C70.572 66.702 70.03 67.244 69.361 67.244C68.692 67.244 68.15 66.702 68.15 66.033C68.15 65.364 68.692 64.822 69.361 64.822C70.03 64.822 70.572 65.364 70.572 66.033Z" fill="#891542"/>
<path d="M74.53 64.067C74.53 64.736 73.988 65.278 73.319 65.278C72.65 65.278 72.108 64.736 72.108 64.067C72.108 63.398 72.65 62.856 73.319 62.856C73.988 62.856 74.53 63.398 74.53 64.067Z" fill="#891542"/>
<path d="M77.126 65.0679C77.126 65.7369 76.584 66.2789 75.915 66.2789C75.246 66.2789 74.704 65.7369 74.704 65.0679C74.704 64.3989 75.246 63.8569 75.915 63.8569C76.584 63.8569 77.126 64.3989 77.126 65.0679Z" fill="#A61C57"/>
<path d="M78.9401 67.699C78.9401 68.368 78.3981 68.91 77.7291 68.91C77.0601 68.91 76.5181 68.368 76.5181 67.699C76.5181 67.03 77.0601 66.488 77.7291 66.488C78.3981 66.488 78.9401 67.03 78.9401 67.699Z" fill="#891542"/>
<path d="M79.288 70.52C79.288 71.189 78.746 71.731 78.077 71.731C77.408 71.731 76.866 71.189 76.866 70.52C76.866 69.851 77.408 69.309 78.077 69.309C78.746 69.309 79.288 69.851 79.288 70.52Z" fill="#A61C57"/>
<path d="M71.636 63.351C71.636 64.02 71.094 64.562 70.425 64.562C69.756 64.562 69.214 64.02 69.214 63.351C69.214 62.682 69.756 62.14 70.425 62.14C71.094 62.14 71.636 62.682 71.636 63.351Z" fill="#C4246B"/>
<path d="M73.319 66.488C73.319 67.157 72.777 67.699 72.108 67.699C71.439 67.699 70.897 67.157 70.897 66.488C70.897 65.819 71.439 65.277 72.108 65.277C72.777 65.277 73.319 65.82 73.319 66.488Z" fill="#C4246B"/>
<path d="M74.884 68.701C75.5528 68.701 76.095 68.1588 76.095 67.49C76.095 66.8212 75.5528 66.279 74.884 66.279C74.2152 66.279 73.673 66.8212 73.673 67.49C73.673 68.1588 74.2152 68.701 74.884 68.701Z" fill="#C4246B"/>
<path d="M76.095 73.7499C76.095 74.4189 75.553 74.9609 74.884 74.9609C74.215 74.9609 73.673 74.4189 73.673 73.7499C73.673 73.0809 74.215 72.5389 74.884 72.5389C75.553 72.5399 76.095 73.0819 76.095 73.7499Z" fill="#891542"/>
<path d="M76.355 70.52C76.355 71.189 75.813 71.731 75.144 71.731C74.475 71.731 73.933 71.189 73.933 70.52C73.933 69.851 74.475 69.309 75.144 69.309C75.813 69.309 76.355 69.851 76.355 70.52Z" fill="#A61C57"/>
<path d="M78.663 73.388C78.663 74.057 78.121 74.599 77.452 74.599C76.783 74.599 76.241 74.057 76.241 73.388C76.241 72.719 76.783 72.177 77.452 72.177C78.12 72.177 78.663 72.719 78.663 73.388Z" fill="#C4246B"/>
<path d="M63.175 71.329C63.175 71.998 62.6331 72.54 61.9641 72.54C61.2951 72.54 60.7531 71.998 60.7531 71.329C60.7531 70.66 61.2951 70.118 61.9641 70.118C62.6331 70.118 63.175 70.66 63.175 71.329Z" fill="#C4246B"/>
<path d="M64.581 69.088C65.2498 69.088 65.792 68.5458 65.792 67.877C65.792 67.2081 65.2498 66.666 64.581 66.666C63.9122 66.666 63.37 67.2081 63.37 67.877C63.37 68.5458 63.9122 69.088 64.581 69.088Z" fill="#A61C57"/>
<path d="M65.98 70.52C65.98 71.189 65.438 71.731 64.769 71.731C64.1 71.731 63.558 71.189 63.558 70.52C63.558 69.851 64.1 69.309 64.769 69.309C65.438 69.309 65.98 69.851 65.98 70.52Z" fill="#891542"/>
<path d="M68.402 73.446C68.402 74.115 67.86 74.657 67.191 74.657C66.522 74.657 65.98 74.115 65.98 73.446C65.98 72.777 66.522 72.235 67.191 72.235C67.86 72.235 68.402 72.777 68.402 73.446Z" fill="#891542"/>
<path d="M69.361 71.024C69.361 71.693 68.819 72.235 68.15 72.235C67.481 72.235 66.939 71.693 66.939 71.024C66.939 70.355 67.481 69.813 68.15 69.813C68.819 69.814 69.361 70.356 69.361 71.024Z" fill="#C4246B"/>
<path d="M71.6411 71.122C71.6411 71.717 71.1591 72.199 70.5641 72.199C69.9691 72.199 69.4871 71.717 69.4871 71.122C69.4871 70.527 69.9691 70.045 70.5641 70.045C71.1591 70.045 71.6411 70.527 71.6411 71.122Z" fill="#891542"/>
<path d="M73.934 75.5229C73.934 76.1919 73.392 76.7339 72.723 76.7339C72.054 76.7339 71.512 76.1919 71.512 75.5229C71.512 74.8539 72.054 74.312 72.723 74.312C73.392 74.312 73.934 74.8549 73.934 75.5229Z" fill="#A61C57"/>
<path d="M71.241 76.7339C71.241 77.4029 70.699 77.945 70.03 77.945C69.361 77.945 68.819 77.4029 68.819 76.7339C68.819 76.0649 69.361 75.5229 70.03 75.5229C70.699 75.5229 71.241 76.0649 71.241 76.7339Z" fill="#891542"/>
<path d="M68.458 76.1459C68.458 76.8149 67.916 77.3569 67.247 77.3569C66.578 77.3569 66.036 76.8149 66.036 76.1459C66.036 75.4769 66.578 74.9349 67.247 74.9349C67.916 74.9349 68.458 75.4769 68.458 76.1459Z" fill="#C4246B"/>
<path d="M71.149 73.925C71.149 74.594 70.607 75.136 69.938 75.136C69.269 75.136 68.7271 74.594 68.7271 73.925C68.7271 73.256 69.269 72.714 69.938 72.714C70.607 72.714 71.149 73.257 71.149 73.925Z" fill="#A61C57"/>
<path d="M65.048 75.9529C65.048 76.6219 64.506 77.1639 63.837 77.1639C63.168 77.1639 62.626 76.6219 62.626 75.9529C62.626 75.2839 63.168 74.7419 63.837 74.7419C64.506 74.7419 65.048 75.2839 65.048 75.9529Z" fill="#A61C57"/>
<path d="M61.9641 75.582C62.6329 75.582 63.175 75.0398 63.175 74.371C63.175 73.7022 62.6329 73.16 61.9641 73.16C61.2952 73.16 60.7531 73.7022 60.7531 74.371C60.7531 75.0398 61.2952 75.582 61.9641 75.582Z" fill="#C4246B"/>
<path d="M67.191 78.242C67.191 78.911 66.649 79.453 65.98 79.453C65.311 79.453 64.769 78.911 64.769 78.242C64.769 77.573 65.311 77.031 65.98 77.031C66.649 77.031 67.191 77.573 67.191 78.242Z" fill="#891542"/>
<path d="M69.938 79.388C69.938 80.057 69.396 80.599 68.727 80.599C68.058 80.599 67.516 80.057 67.516 79.388C67.516 78.719 68.058 78.177 68.727 78.177C69.396 78.177 69.938 78.719 69.938 79.388Z" fill="#A61C57"/>
<path d="M72.929 79.0259C72.929 79.6949 72.387 80.2369 71.718 80.2369C71.049 80.2369 70.507 79.6949 70.507 79.0259C70.507 78.3569 71.049 77.8149 71.718 77.8149C72.387 77.8149 72.929 78.3569 72.929 79.0259Z" fill="#891542"/>
<path d="M75.533 77.815C75.533 78.484 74.991 79.026 74.322 79.026C73.653 79.026 73.111 78.484 73.111 77.815C73.111 77.146 73.653 76.604 74.322 76.604C74.991 76.604 75.533 77.146 75.533 77.815Z" fill="#C4246B"/>
<path d="M76.518 77.1639C77.1868 77.1639 77.729 76.6218 77.729 75.9529C77.729 75.2841 77.1868 74.7419 76.518 74.7419C75.8492 74.7419 75.307 75.2841 75.307 75.9529C75.307 76.6218 75.8492 77.1639 76.518 77.1639Z" fill="#A61C57"/>
<path d="M74.058 72.235C74.058 72.904 73.516 73.446 72.847 73.446C72.178 73.446 71.636 72.904 71.636 72.235C71.636 71.566 72.178 71.024 72.847 71.024C73.516 71.024 74.058 71.566 74.058 72.235Z" fill="#C4246B"/>
<path d="M73.934 69.244C73.934 69.913 73.392 70.455 72.723 70.455C72.054 70.455 71.512 69.913 71.512 69.244C71.512 68.575 72.054 68.033 72.723 68.033C73.392 68.033 73.934 68.575 73.934 69.244Z" fill="#891542"/>
<path d="M71.241 68.603C71.241 69.272 70.699 69.814 70.03 69.814C69.361 69.814 68.819 69.272 68.819 68.603C68.819 67.934 69.361 67.392 70.03 67.392C70.699 67.392 71.241 67.934 71.241 68.603Z" fill="#A61C57"/>
<path d="M68.402 68.7C68.402 69.369 67.86 69.9109 67.191 69.9109C66.522 69.9109 65.98 69.369 65.98 68.7C65.98 68.031 66.522 67.489 67.191 67.489C67.86 67.489 68.402 68.032 68.402 68.7Z" fill="#891542"/>
</svg>
