<svg width="338" height="426" viewBox="0 0 338 426" fill="none" xmlns="http://www.w3.org/2000/svg">
<path d="M-86.6992 180.034C-86.6992 180.034 -85.3193 179.736 -82.7336 179.179C-80.1638 178.621 -76.3216 177.962 -71.3925 177.287C-66.4823 176.643 -60.4896 176.019 -53.5843 175.719C-46.6833 175.44 -38.8507 175.306 -30.3362 175.846C-21.8173 176.329 -12.5759 177.207 -2.90926 178.888C6.77042 180.485 16.8738 182.863 27.1077 186.042L28.0668 186.346L29.2408 186.753L31.0835 187.421L34.7894 188.765C37.2764 189.647 39.7199 190.561 42.3607 191.745C44.9479 192.878 47.5496 194.017 50.1643 195.163C52.6629 196.382 55.1731 197.61 57.695 198.84C67.7127 203.814 77.5637 209.205 87.342 214.474C97.1465 219.739 106.812 225.002 116.42 229.886C126.013 234.836 135.546 239.238 144.909 243.224C154.342 246.899 163.577 250.274 172.586 252.417C181.547 254.838 190.242 256.126 198.324 256.921C206.493 257.783 213.847 257.69 220.465 257.19C227.041 256.641 232.73 255.583 237.372 254.476C242.017 253.361 245.606 252.191 248.046 251.365C250.47 250.493 251.763 250.028 251.763 250.028L252.586 251.901C252.586 251.901 251.325 252.506 248.963 253.644C246.577 254.738 243.051 256.305 238.399 257.947C233.756 259.607 227.953 261.266 221.131 262.424C214.359 263.56 206.434 264.34 198.013 264.2C189.513 264.124 180.237 263.574 170.604 261.872C168.197 261.447 165.734 261.077 163.273 260.584C160.836 259.997 158.369 259.403 155.875 258.8C150.831 257.721 145.922 255.958 140.783 254.513C130.737 251.11 120.413 247.33 110.338 242.832C100.202 238.451 90.0829 233.733 80.055 229.126C70.0082 224.506 59.9543 220.148 49.9858 216.385C47.5017 215.456 45.0263 214.53 42.5654 213.61C40.1524 212.776 37.7523 211.946 35.3654 211.12C30.7599 209.527 25.0764 207.75 20.7654 206.384C11.1641 203.391 1.81517 200.728 -7.11432 198.296C-16.0569 195.944 -24.5772 193.808 -32.5229 192.061C-40.4715 190.337 -47.818 188.827 -54.3867 187.647C-60.9482 186.382 -66.7261 185.468 -71.5071 184.616C-76.3143 183.822 -80.0913 183.2 -82.6669 182.775C-85.2729 182.316 -86.6629 182.073 -86.6629 182.073L-86.6992 180.034Z" fill="#891542"/>
<path d="M69.9197 209.356C69.9197 209.356 71.3431 208.707 73.8345 207.568C74.4585 207.284 75.1477 206.969 75.8979 206.625C76.7336 206.294 77.639 205.937 78.6068 205.556C80.5396 204.801 82.7132 203.902 85.0653 203.209C89.739 201.603 95.3399 200.231 101.36 199.155C104.384 198.691 107.505 198.214 110.696 197.986C112.288 197.874 113.894 197.765 115.505 197.652L120.355 197.604C123.584 197.611 126.812 197.787 129.961 198.095C131.531 198.275 133.089 198.454 134.627 198.631C136.151 198.901 137.656 199.17 139.136 199.434C142.088 199.937 144.887 200.757 147.527 201.441C150.127 202.317 152.617 202.982 154.802 203.951C157.016 204.819 159.022 205.643 160.727 206.547C162.452 207.398 163.962 208.099 165.126 208.848C167.485 210.244 168.835 211.042 168.835 211.042C168.835 211.042 167.394 210.437 164.874 209.376C163.639 208.8 162.049 208.313 160.257 207.713C158.482 207.059 156.414 206.529 154.161 205.982C151.939 205.337 149.431 205.028 146.846 204.53C144.219 204.224 141.472 203.807 138.6 203.716C137.171 203.659 135.717 203.601 134.247 203.542C132.777 203.575 131.29 203.608 129.79 203.64C126.802 203.758 123.768 204.006 120.77 204.412L116.292 205.071C114.821 205.379 113.356 205.686 111.903 205.99C109.005 206.598 106.205 207.433 103.519 208.227C98.1766 209.965 93.3244 211.881 89.353 213.893C87.3013 214.81 85.6225 215.816 84.0989 216.654C83.3415 217.075 82.6291 217.468 81.9747 217.833C81.2782 218.274 80.6368 218.68 80.0593 219.046C77.7464 220.511 76.4259 221.35 76.4259 221.35L69.9197 209.356Z" fill="#891542"/>
<path d="M-18.0086 180.167C-18.0086 180.167 -16.2717 180.053 -13.2304 179.853C-11.8664 179.681 -10.4808 179.364 -8.70328 179.098C-6.88227 178.731 -4.61435 178.097 -2.23759 177.508C0.178335 176.743 2.7974 176.022 5.58624 175.058C8.37217 174.115 11.3192 173.121 14.3794 172.006C20.5447 169.807 27.1222 167.461 33.701 165.116C37.0442 164.008 40.3553 162.855 43.7042 161.895C47.0053 160.843 50.3368 160.004 53.5493 159.2C56.7575 158.386 59.9511 157.877 62.9257 157.314C65.9786 157.044 68.7893 156.468 71.4707 156.526C74.1362 156.525 76.5521 156.343 78.6982 156.737C80.8297 157.06 82.7073 157.048 84.1699 157.614C87.1053 158.469 88.7827 158.957 88.7827 158.957C88.7827 158.957 87.069 158.679 84.0684 158.192C82.6028 157.815 80.7267 158.057 78.6489 157.996C76.5623 157.865 74.2132 158.34 71.6754 158.649C69.1332 158.901 66.4401 159.807 63.5889 160.409C60.7768 161.312 57.8037 162.163 54.8016 163.331C51.7965 164.491 48.7059 165.681 45.6196 167.101C42.5115 168.419 39.4064 169.948 36.294 171.424C30.0822 174.539 23.8704 177.657 18.0461 180.577C15.131 182.067 12.242 183.455 9.49964 184.776C6.77174 186.111 4.04816 187.241 1.60031 188.357C-0.986845 189.354 -3.24022 190.298 -5.49944 191.054C-7.84572 191.752 -10.0295 192.421 -11.6517 192.807C-14.6466 193.379 -16.3573 193.705 -16.3573 193.705L-18.0086 180.167Z" fill="#891542"/>
<path d="M57.4266 204.434C57.4266 204.434 57.5209 206.281 57.6877 209.518C57.7574 211.155 57.8561 213.12 58.1172 215.151C58.3813 217.243 58.4756 219.607 58.9922 222.216C59.4362 224.822 59.8411 227.679 60.6217 230.599C61.2355 233.58 62.1845 236.613 63.2089 239.756C63.6471 241.364 64.3755 242.861 64.9864 244.447C65.6306 246.014 66.2197 247.648 67.0627 249.15C67.8593 250.678 68.6124 252.264 69.4655 253.796L72.2863 258.245C73.215 259.751 74.4135 261.036 75.4641 262.453C76.4972 263.892 77.7145 265.144 78.9464 266.373C81.2709 269 84.0424 271.04 86.6296 273.183C89.4518 274.957 92.0911 276.923 94.9409 278.16C96.3411 278.823 97.6587 279.598 99.027 280.122C100.407 280.628 101.739 281.118 103.019 281.589C105.555 282.656 108.048 283.06 110.206 283.662C112.366 284.284 114.3 284.556 115.899 284.771C119.102 285.242 120.931 285.513 120.931 285.513C120.931 285.513 119.08 285.455 115.84 285.352C114.213 285.322 112.233 285.274 109.989 284.9C107.749 284.548 105.147 284.422 102.44 283.639C101.066 283.307 99.6364 282.96 98.1549 282.601C96.6763 282.22 95.2253 281.587 93.6829 281.06C90.5444 280.098 87.5452 278.385 84.3036 276.815C81.2986 274.878 78.041 272.993 75.2 270.459C73.7069 269.274 72.2196 268.051 70.9166 266.631C69.5962 265.236 68.1103 263.941 66.9074 262.428L63.2466 257.902C62.1162 256.337 61.0904 254.707 60.0181 253.118C58.8979 251.548 58.0462 249.864 57.1393 248.223C56.2672 246.567 55.2747 244.974 54.5913 243.295C53.0692 239.991 51.6413 236.761 50.5937 233.604C49.3734 230.485 48.5667 227.456 47.7541 224.661C46.8762 221.9 46.4221 219.194 45.8635 216.859C45.2933 214.46 44.9755 212.521 44.7216 210.94C44.1847 207.745 43.8785 205.921 43.8785 205.921L57.4266 204.434Z" fill="#891542"/>
<path d="M110.818 149.04C111.701 166.01 98.6626 180.482 81.6931 181.366C64.7235 182.25 50.2498 169.209 49.3661 152.24C48.4824 135.27 61.5211 120.798 78.4907 119.914C95.4617 119.029 109.933 132.069 110.818 149.04Z" fill="#A61C57"/>
<mask id="mask0_207_4798" style="mask-type:luminance" maskUnits="userSpaceOnUse" x="53" y="81" width="50" height="65">
<path d="M80.9343 145.028C81.4697 142.813 85.769 137.408 91.7399 131.492C99.0138 124.285 104.86 114.251 100.974 102.977C98.0735 94.5622 91.1856 88.5768 85.4323 81.7846C85.4323 81.7846 80.0897 83.0151 76.7335 86.1536C73.0683 83.3822 67.627 82.7119 67.627 82.7119C62.6109 90.0641 56.3832 96.733 54.3721 105.404C51.679 117.021 58.5336 126.394 66.5185 132.806C73.0698 138.069 77.9089 142.998 78.6721 145.146L80.9343 145.028Z" fill="white"/>
</mask>
<g mask="url(#mask0_207_4798)">
<path d="M80.9343 145.028C81.4697 142.813 85.769 137.408 91.7399 131.492C99.0138 124.285 104.86 114.251 100.974 102.977C98.0735 94.5622 91.1856 88.5768 85.4323 81.7846C85.4323 81.7846 80.0897 83.0151 76.7335 86.1536C73.0683 83.3822 67.627 82.7119 67.627 82.7119C62.6109 90.0641 56.3832 96.733 54.3721 105.404C51.679 117.021 58.5336 126.394 66.5185 132.806C73.0698 138.069 77.9089 142.998 78.6721 145.146L80.9343 145.028Z" fill="white"/>
<path d="M80.7223 145.04C81.1576 143.241 84.6503 138.849 89.4995 134.046C95.4095 128.191 100.157 120.039 96.9998 110.88C94.6448 104.045 89.0483 99.1823 84.376 93.6656C84.376 93.6656 80.036 94.6653 77.3096 97.2147C74.3321 94.9627 69.9109 94.4186 69.9109 94.4186C65.8365 100.391 60.7754 105.809 59.143 112.854C56.9548 122.291 62.5238 129.906 69.0098 135.115C74.3321 139.39 78.2615 143.395 78.8825 145.139L80.7223 145.04Z" fill="#F6DCEF"/>
</g>
<mask id="mask1_207_4798" style="mask-type:luminance" maskUnits="userSpaceOnUse" x="53" y="81" width="50" height="65">
<path d="M80.9343 145.028C81.4697 142.813 85.769 137.408 91.7399 131.492C99.0138 124.285 104.86 114.251 100.974 102.977C98.0735 94.5622 91.1856 88.5768 85.4323 81.7846C85.4323 81.7846 80.0897 83.0151 76.7335 86.1536C73.0683 83.3822 67.627 82.7119 67.627 82.7119C62.6109 90.0641 56.3832 96.733 54.3721 105.404C51.679 117.021 58.5336 126.394 66.5185 132.806C73.0698 138.069 77.9089 142.998 78.6721 145.146L80.9343 145.028Z" fill="white"/>
</mask>
<g mask="url(#mask1_207_4798)">
<path d="M80.3219 145.06C80.5642 143.973 82.4694 140.234 85.1973 137.341C88.5215 133.816 91.1841 128.905 89.3833 123.366C89.3355 123.22 89.276 123.059 89.2064 122.89C85.3655 113.565 70.9948 114.313 68.1435 123.987C68.0927 124.163 68.0492 124.328 68.0172 124.479C66.8027 130.174 69.9616 134.784 73.6341 137.943C76.6479 140.536 78.9318 144.059 79.2844 145.114L80.3219 145.06Z" fill="#E89DD5"/>
</g>
<mask id="mask2_207_4798" style="mask-type:luminance" maskUnits="userSpaceOnUse" x="11" y="116" width="65" height="49">
<path d="M75.0171 148.104C73.0756 146.909 69.2624 141.151 65.4825 133.645C60.8755 124.499 53.1388 115.84 41.2158 116.05C32.3168 116.208 24.4958 120.91 16.2584 124.28C16.2584 124.28 15.7767 129.742 17.7255 133.905C13.9557 136.534 11.637 141.502 11.637 141.502C17.0798 148.544 21.4965 156.53 29.123 161.121C39.3396 167.272 50.3716 163.649 58.9384 158.037C65.9671 153.431 72.1513 150.355 74.4293 150.291L75.0171 148.104Z" fill="white"/>
</mask>
<g mask="url(#mask2_207_4798)">
<path d="M75.0171 148.104C73.0756 146.909 69.2624 141.151 65.4825 133.645C60.8755 124.499 53.1388 115.84 41.2158 116.05C32.3168 116.208 24.4958 120.91 16.2584 124.28C16.2584 124.28 15.7767 129.742 17.7255 133.905C13.9557 136.534 11.637 141.502 11.637 141.502C17.0798 148.544 21.4965 156.53 29.123 161.121C39.3396 167.272 50.3716 163.649 58.9384 158.037C65.9671 153.431 72.1513 150.355 74.4293 150.291L75.0171 148.104Z" fill="white"/>
<path d="M74.9604 148.309C73.3832 147.338 70.2868 142.66 67.2164 136.563C63.4728 129.134 57.19 122.099 47.5031 122.271C40.2741 122.398 33.9216 126.217 27.2296 128.957C27.2296 128.957 26.8392 133.393 28.4223 136.775C25.3606 138.911 23.4773 142.948 23.4773 142.948C27.8985 148.669 31.4854 155.155 37.6812 158.884C45.9809 163.881 54.9438 160.937 61.9014 156.379C67.6126 152.639 72.6345 150.139 74.486 150.089L74.9604 148.309Z" fill="#F6DCEF"/>
</g>
<mask id="mask3_207_4798" style="mask-type:luminance" maskUnits="userSpaceOnUse" x="11" y="116" width="65" height="49">
<path d="M75.0171 148.104C73.0756 146.909 69.2624 141.151 65.4825 133.645C60.8755 124.499 53.1388 115.84 41.2158 116.05C32.3168 116.208 24.4958 120.91 16.2584 124.28C16.2584 124.28 15.7767 129.742 17.7255 133.905C13.9557 136.534 11.637 141.502 11.637 141.502C17.0798 148.544 21.4965 156.53 29.123 161.121C39.3396 167.272 50.3716 163.649 58.9384 158.037C65.9671 153.431 72.1513 150.355 74.4293 150.291L75.0171 148.104Z" fill="white"/>
</mask>
<g mask="url(#mask3_207_4798)">
<path d="M74.8575 148.696C73.8998 148.13 70.9296 145.163 69.023 141.675C66.6985 137.423 62.8489 133.374 57.026 133.375C56.8722 133.375 56.7025 133.382 56.5196 133.397C46.4641 134.169 42.735 148.067 51.0536 153.768C51.2045 153.872 51.3482 153.963 51.4832 154.04C56.524 156.957 61.884 155.375 66.0237 152.861C69.4205 150.796 73.4776 149.714 74.589 149.702L74.8575 148.696Z" fill="#E89DD5"/>
</g>
<mask id="mask4_207_4798" style="mask-type:luminance" maskUnits="userSpaceOnUse" x="33" y="154" width="50" height="59">
<path d="M76.1126 154.682C74.3772 156.159 67.7214 158.006 59.4143 159.281C49.2921 160.837 38.6664 165.519 35.1825 176.923C32.5823 185.434 34.637 194.326 35.2986 203.203C35.2986 203.203 40.3452 205.348 44.9043 204.782C46.2407 209.18 50.2498 212.919 50.2498 212.919C58.6308 209.919 67.5894 208.186 74.3119 202.352C83.3198 194.537 83.282 182.923 80.5933 173.043C78.3849 164.935 77.3691 158.103 78.0148 155.917L76.1126 154.682Z" fill="white"/>
</mask>
<g mask="url(#mask4_207_4798)">
<path d="M76.1126 154.682C74.3772 156.159 67.7214 158.006 59.4143 159.281C49.2921 160.837 38.6664 165.519 35.1825 176.923C32.5823 185.434 34.637 194.326 35.2986 203.203C35.2986 203.203 40.3452 205.348 44.9043 204.782C46.2407 209.18 50.2498 212.919 50.2498 212.919C58.6308 209.919 67.5894 208.186 74.3119 202.352C83.3198 194.537 83.282 182.923 80.5933 173.043C78.3849 164.935 77.3691 158.103 78.0148 155.917L76.1126 154.682Z" fill="white"/>
<path d="M76.2897 154.798C74.8807 155.998 69.4728 157.497 62.7271 158.534C54.5042 159.798 45.8721 163.601 43.0412 172.866C40.9285 179.781 42.5987 187.003 43.1356 194.215C43.1356 194.215 47.2347 195.957 50.9391 195.497C52.0244 199.07 55.2805 202.108 55.2805 202.108C62.0886 199.67 69.3654 198.261 74.8255 193.524C82.143 187.176 82.1111 177.741 79.9273 169.716C78.1339 163.128 77.3097 157.579 77.8321 155.803L76.2897 154.798Z" fill="#F6DCEF"/>
</g>
<mask id="mask5_207_4798" style="mask-type:luminance" maskUnits="userSpaceOnUse" x="33" y="154" width="50" height="59">
<path d="M76.1126 154.682C74.3772 156.159 67.7214 158.006 59.4143 159.281C49.2921 160.837 38.6664 165.519 35.1825 176.923C32.5823 185.434 34.637 194.326 35.2986 203.203C35.2986 203.203 40.3452 205.348 44.9043 204.782C46.2407 209.18 50.2498 212.919 50.2498 212.919C58.6308 209.919 67.5894 208.186 74.3119 202.352C83.3198 194.537 83.282 182.923 80.5933 173.043C78.3849 164.935 77.3691 158.103 78.0148 155.917L76.1126 154.682Z" fill="white"/>
</mask>
<g mask="url(#mask5_207_4798)">
<path d="M76.6277 155.017C75.7934 155.753 72.0527 157.659 68.1466 158.396C63.3859 159.295 58.3436 161.702 56.5443 167.242C56.4964 167.388 56.4515 167.552 56.4079 167.732C54.0326 177.534 66.1007 185.377 74.0943 179.226C74.2408 179.114 74.3714 179.007 74.4875 178.902C78.8187 175.009 78.9726 169.423 77.8582 164.707C76.9441 160.838 77.1675 156.645 77.5012 155.583L76.6277 155.017Z" fill="#E89DD5"/>
</g>
<mask id="mask6_207_4798" style="mask-type:luminance" maskUnits="userSpaceOnUse" x="81" y="154" width="50" height="56">
<path d="M82.7074 155.673C83.5751 157.78 83.2762 164.681 81.9224 172.973C80.2726 183.08 81.4421 194.632 91.2117 201.471C98.5045 206.576 107.594 207.368 116.242 209.481C116.242 209.481 119.84 205.345 120.712 200.831C125.308 200.92 130.103 198.263 130.103 198.263C129.839 189.365 130.958 180.31 127.488 172.113C122.838 161.13 111.784 157.578 101.556 157.083C93.1634 156.677 86.3509 155.532 84.4704 154.244L82.7074 155.673Z" fill="white"/>
</mask>
<g mask="url(#mask6_207_4798)">
<path d="M82.7074 155.673C83.5751 157.78 83.2762 164.681 81.9224 172.973C80.2726 183.08 81.4421 194.632 91.2117 201.471C98.5045 206.576 107.594 207.368 116.242 209.481C116.242 209.481 119.84 205.345 120.712 200.831C125.308 200.92 130.103 198.263 130.103 198.263C129.839 189.365 130.958 180.31 127.488 172.113C122.838 161.13 111.784 157.578 101.556 157.083C93.1634 156.677 86.3509 155.532 84.4704 154.244L82.7074 155.673Z" fill="white"/>
<path d="M82.8728 155.539C83.578 157.252 83.3342 162.855 82.2344 169.594C80.8951 177.805 81.844 187.19 89.781 192.745C95.7055 196.89 103.09 197.536 110.114 199.253C110.114 199.253 113.038 195.893 113.746 192.228C117.479 192.299 121.374 190.14 121.374 190.14C121.161 182.913 122.069 175.556 119.25 168.897C115.473 159.975 106.491 157.091 98.1824 156.687C91.3641 156.358 85.8314 155.428 84.305 154.38L82.8728 155.539Z" fill="#F6DCEF"/>
</g>
<mask id="mask7_207_4798" style="mask-type:luminance" maskUnits="userSpaceOnUse" x="81" y="154" width="50" height="56">
<path d="M82.7074 155.673C83.5751 157.78 83.2762 164.681 81.9224 172.973C80.2726 183.08 81.4421 194.632 91.2117 201.471C98.5045 206.576 107.594 207.368 116.242 209.481C116.242 209.481 119.84 205.345 120.712 200.831C125.308 200.92 130.103 198.263 130.103 198.263C129.839 189.365 130.958 180.31 127.488 172.113C122.838 161.13 111.784 157.578 101.556 157.083C93.1634 156.677 86.3509 155.532 84.4704 154.244L82.7074 155.673Z" fill="white"/>
</mask>
<g mask="url(#mask7_207_4798)">
<path d="M83.1848 155.288C83.6273 156.308 84.2846 160.457 83.7782 164.399C83.1601 169.205 83.8929 174.744 88.6044 178.166C88.7306 178.258 88.8713 178.352 89.028 178.448C97.6165 183.734 108.804 174.683 105.424 165.18C105.362 165.007 105.3 164.849 105.239 164.707C102.875 159.386 97.6093 157.513 92.7803 157.115C88.8176 156.789 84.9013 155.281 83.9945 154.635L83.1848 155.288Z" fill="#E89DD5"/>
</g>
<mask id="mask8_207_4798" style="mask-type:luminance" maskUnits="userSpaceOnUse" x="81" y="154" width="50" height="56">
<path d="M82.7074 155.673C83.5751 157.78 83.2762 164.681 81.9224 172.973C80.2726 183.08 81.4421 194.632 91.2117 201.471C98.5045 206.576 107.594 207.368 116.242 209.481C116.242 209.481 119.84 205.345 120.712 200.831C125.308 200.92 130.103 198.263 130.103 198.263C129.839 189.365 130.958 180.31 127.488 172.113C122.838 161.13 111.784 157.578 101.556 157.083C93.1634 156.677 86.3509 155.532 84.4704 154.244L82.7074 155.673Z" fill="white"/>
</mask>
<g mask="url(#mask8_207_4798)">
<path d="M82.8017 155.036C83.2442 156.056 83.9015 160.204 83.3951 164.147C82.7784 168.951 83.5097 174.491 88.2212 177.914C88.3474 178.005 88.4882 178.1 88.6449 178.196C97.2334 183.482 108.421 174.43 105.041 164.928C104.979 164.755 104.917 164.597 104.856 164.455C102.49 159.132 97.2261 157.26 92.3971 156.863C88.4344 156.536 84.5182 155.029 83.6113 154.383L82.8017 155.036Z" fill="#E89DD5"/>
</g>
<mask id="mask9_207_4798" style="mask-type:luminance" maskUnits="userSpaceOnUse" x="84" y="112" width="64" height="49">
<path d="M85.6878 149.706C87.9601 149.532 94.4301 151.951 101.9 155.799C111.002 160.49 122.352 162.948 131.873 155.769C138.982 150.41 142.544 142.01 147.227 134.44C147.227 134.44 144.406 129.739 140.384 127.516C141.888 123.173 140.842 117.791 140.842 117.791C132.299 115.293 124.032 111.429 115.165 112.196C103.283 113.225 96.4891 122.642 92.8558 132.216C89.8769 140.073 86.6817 146.196 84.8752 147.588L85.6878 149.706Z" fill="white"/>
</mask>
<g mask="url(#mask9_207_4798)">
<path d="M85.6878 149.706C87.9601 149.532 94.4301 151.951 101.9 155.799C111.002 160.49 122.352 162.948 131.873 155.769C138.982 150.41 142.544 142.01 147.227 134.44C147.227 134.44 144.406 129.739 140.384 127.516C141.888 123.173 140.842 117.791 140.842 117.791C132.299 115.293 124.032 111.429 115.165 112.196C103.283 113.225 96.4891 122.642 92.8558 132.216C89.8769 140.073 86.6817 146.196 84.8752 147.588L85.6878 149.706Z" fill="white"/>
<path d="M85.6123 149.509C87.458 149.367 92.7135 151.331 98.7816 154.46C106.176 158.27 115.394 160.268 123.131 154.435C128.906 150.082 131.799 143.26 135.602 137.109C135.602 137.109 133.311 133.291 130.044 131.483C131.265 127.954 130.417 123.582 130.417 123.582C123.476 121.552 116.761 118.415 109.557 119.038C99.9048 119.874 94.3851 127.523 91.4338 135.301C89.012 141.684 86.4176 146.658 84.9506 147.788L85.6123 149.509Z" fill="#F6DCEF"/>
</g>
<mask id="mask10_207_4798" style="mask-type:luminance" maskUnits="userSpaceOnUse" x="84" y="112" width="64" height="49">
<path d="M85.6878 149.706C87.9601 149.532 94.4301 151.951 101.9 155.799C111.002 160.49 122.352 162.948 131.873 155.769C138.982 150.41 142.544 142.01 147.227 134.44C147.227 134.44 144.406 129.739 140.384 127.516C141.888 123.173 140.842 117.791 140.842 117.791C132.299 115.293 124.032 111.429 115.165 112.196C103.283 113.225 96.4891 122.642 92.8558 132.216C89.8769 140.073 86.6817 146.196 84.8752 147.588L85.6878 149.706Z" fill="white"/>
</mask>
<g mask="url(#mask10_207_4798)">
<path d="M85.4686 149.133C86.5757 149.027 90.7227 149.683 94.3169 151.385C98.696 153.457 104.192 154.473 108.902 151.049C109.029 150.957 109.161 150.851 109.3 150.732C116.983 144.198 111.828 130.761 101.748 131.038C101.563 131.042 101.395 131.054 101.24 131.07C95.4472 131.673 92.0388 136.103 90.1699 140.572C88.6347 144.24 85.9895 147.501 85.0957 148.162L85.4686 149.133Z" fill="#E89DD5"/>
</g>
<path d="M78.7679 145.941C76.9077 141.382 75.2405 136.665 73.0321 132.262C71.9902 130.187 70.8614 128.185 69.6236 126.222C68.3714 124.235 66.34 122.869 65.1879 120.918C64.9209 120.469 64.2433 120.914 64.5103 121.364C65.4897 123.022 67.0422 123.896 68.1769 125.512C69.5061 127.407 70.6466 129.427 71.7334 131.469C74.2291 136.155 75.9964 141.289 78.0003 146.198C78.1933 146.678 78.9652 146.426 78.7679 145.941Z" fill="white"/>
<path d="M80.367 149.725C79.0146 144.702 77.9874 139.908 79.0466 134.728C80.0043 130.052 82.8715 125.978 86.1275 122.615C86.4917 122.239 85.888 121.696 85.5238 122.072C82.0472 125.665 79.5384 129.703 78.2543 134.554C76.8904 139.699 78.2543 144.995 79.5965 149.982C79.7329 150.487 80.5019 150.229 80.367 149.725Z" fill="white"/>
<path d="M80.2698 151.059C79.2163 146.801 75.5874 143.332 72.414 140.542C68.1756 136.817 62.9215 133.731 57.2815 132.911C56.7649 132.835 56.5878 133.628 57.1073 133.703C62.3512 134.466 66.9365 137.206 71.0341 140.447C74.4657 143.162 78.4139 146.922 79.5021 151.315C79.624 151.823 80.3946 151.564 80.2698 151.059Z" fill="white"/>
<path d="M79.8867 149.997C69.5976 145.927 59.3389 141.742 49.5402 136.578C49.0759 136.334 48.7059 137.055 49.1673 137.299C58.966 142.463 69.2247 146.648 79.5138 150.718C79.997 150.908 80.3714 150.188 79.8867 149.997Z" fill="white"/>
<path d="M79.4775 150.055C70.1388 152.513 60.3764 153.578 51.2176 149.846C50.7359 149.648 50.3601 150.369 50.8447 150.567C60.2124 154.383 70.1678 153.343 79.7329 150.824C80.2393 150.692 79.981 149.923 79.4775 150.055Z" fill="white"/>
<path d="M80.1014 150.159C77.285 150.764 74.1799 155.312 72.3226 157.23C67.9347 161.766 63.9778 166.703 60.327 171.846C60.0281 172.267 60.6274 172.816 60.9307 172.388C63.7456 168.424 66.7507 164.63 69.9632 160.982C71.5666 159.161 73.2556 157.417 74.962 155.693C76.1939 154.45 78.5503 151.318 80.3568 150.931C80.869 150.819 80.6078 150.05 80.1014 150.159Z" fill="white"/>
<path d="M80.1131 150.142C77.7929 152.308 77.2226 157.083 76.5131 159.94C74.975 166.133 74.3453 172.602 73.3905 178.905C73.3136 179.42 74.1059 179.597 74.1828 179.079C74.9315 174.128 75.641 169.167 76.4478 164.225C77.0557 160.506 77.7986 153.405 80.7151 150.686C81.0982 150.326 80.4932 149.788 80.1131 150.142Z" fill="white"/>
<path d="M79.669 151.407C81.5263 156.062 83.266 160.674 83.9785 165.664C84.7098 170.787 83.4837 176.041 82.4129 181.026C82.304 181.539 83.0949 181.711 83.2051 181.2C84.2092 176.525 85.0856 171.914 84.9217 167.115C84.7316 161.58 82.4622 156.214 80.4395 151.15C80.2465 150.667 79.4745 150.919 79.669 151.407Z" fill="white"/>
<path d="M79.5398 151.632C85.4005 159.672 90.6952 168.072 95.4197 176.83C95.6678 177.29 96.3454 176.842 96.0973 176.384C91.3728 167.626 86.081 159.226 80.2175 151.186C79.9128 150.766 79.2322 151.208 79.5398 151.632Z" fill="white"/>
<path d="M79.8112 151.297C88.3257 159.948 97.6615 167.748 106.917 175.608C107.316 175.946 107.859 175.346 107.462 175.006C98.2071 167.148 88.8698 159.345 80.3553 150.694C79.9868 150.32 79.4455 150.925 79.8112 151.297Z" fill="white"/>
<path d="M80.4946 150.581C89.8725 154.442 98.207 160.093 105.263 167.378C105.627 167.754 106.169 167.149 105.806 166.774C98.6989 159.438 90.3136 153.749 80.8661 149.859C80.3858 149.663 80.0114 150.382 80.4946 150.581Z" fill="white"/>
<path d="M79.7735 151.14C85.6472 152.904 91.8343 152.585 97.8676 153.328C103.627 154.038 108.331 154.601 114.048 153.129C114.554 153 114.296 152.228 113.791 152.359C107.807 153.9 102.805 153.123 96.7938 152.382C91.1537 151.687 85.4455 151.998 79.9476 150.348C79.4456 150.197 79.2758 150.991 79.7735 151.14Z" fill="white"/>
<path d="M80.4467 149.663C84.5893 150.59 88.6261 149.354 92.6265 148.261C98.2332 146.732 103.648 144.561 108.873 142.032C109.336 141.807 109.088 141.034 108.618 141.263C104.686 143.164 100.671 144.811 96.534 146.217C91.6441 147.88 85.7807 150.026 80.6209 148.871C80.1087 148.756 79.9374 149.548 80.4467 149.663Z" fill="white"/>
<path d="M80.2494 150.702C81.7309 145.895 87.7642 143.083 91.4933 140.183C95.1165 137.367 97.6615 133.853 99.529 129.684C99.7423 129.207 99.0211 128.834 98.8078 129.311C96.3484 134.806 92.6468 138.432 87.8309 141.898C84.6866 144.161 80.6673 146.598 79.4586 150.529C79.3019 151.028 80.0971 151.197 80.2494 150.702Z" fill="white"/>
<path d="M80.2001 150.02C76.5987 140.043 74.1015 129.214 74.2263 118.563C74.2335 118.04 73.4224 118.085 73.4151 118.605C73.2889 129.304 75.8123 140.255 79.4282 150.275C79.6067 150.767 80.3771 150.513 80.2001 150.02Z" fill="white"/>
<path d="M80.2451 149.838C72.5083 159.778 66.7928 170.961 63.2654 183.052C63.1189 183.555 63.9125 183.725 64.0576 183.226C67.5459 171.261 73.1918 160.215 80.8458 150.381C81.168 149.972 80.5687 149.425 80.2451 149.838Z" fill="white"/>
<path d="M81.1708 150.256C77.9916 141.026 82.8307 132.452 90.3701 127.206C90.7982 126.908 90.3556 126.228 89.9247 126.528C82.0805 131.987 77.1094 140.963 80.4003 150.513C80.5701 151.005 81.3405 150.751 81.1708 150.256Z" fill="white"/>
<path d="M78.0338 150.044C71.0516 154.899 63.7167 159.117 56.0002 162.696C55.533 162.913 55.7811 163.687 56.257 163.466C64.0344 159.859 71.4404 155.619 78.4807 150.723C78.9073 150.425 78.4648 149.744 78.0338 150.044Z" fill="white"/>
<path d="M81.1999 149.473C83.9525 146.845 88.1009 145.68 91.5688 144.278C95.0091 142.887 98.4858 141.589 101.975 140.328C102.466 140.151 102.212 139.381 101.719 139.558C97.2306 141.179 92.7819 142.894 88.3679 144.707C85.595 145.847 82.793 146.832 80.5977 148.928C80.219 149.293 80.8226 149.832 81.1999 149.473Z" fill="white"/>
<path d="M62.2758 172.442C62.3222 173.339 61.6331 174.104 60.7349 174.151C59.8382 174.198 59.0734 173.509 59.0255 172.61C58.9791 171.714 59.6683 170.949 60.5665 170.901C61.4647 170.856 62.2293 171.545 62.2758 172.442Z" fill="#A61C57"/>
<path d="M65.4028 183.381C65.4536 184.332 64.7222 185.141 63.7718 185.192C62.8214 185.24 62.0117 184.512 61.961 183.561C61.9116 182.609 62.6429 181.8 63.5919 181.75C64.5408 181.701 65.352 182.431 65.4028 183.381Z" fill="#A61C57"/>
<path d="M76.1025 179.168C76.1562 180.208 75.3581 181.096 74.3177 181.15C73.2774 181.203 72.3907 180.404 72.3356 179.365C72.2819 178.324 73.0814 177.438 74.1204 177.383C75.1607 177.329 76.0488 178.127 76.1025 179.168Z" fill="#A61C57"/>
<path d="M84.7838 181.424C84.8433 182.58 83.9553 183.567 82.7974 183.628C81.641 183.687 80.6543 182.799 80.5933 181.641C80.5338 180.485 81.4219 179.498 82.5798 179.437C83.7377 179.379 84.7243 180.267 84.7838 181.424Z" fill="#A61C57"/>
<path d="M97.6907 176.506C97.7313 177.296 97.1248 177.969 96.334 178.011C95.5446 178.052 94.8713 177.445 94.8292 176.654C94.7886 175.865 95.3937 175.19 96.186 175.15C96.9753 175.109 97.65 175.717 97.6907 176.506Z" fill="#A61C57"/>
<path d="M109.555 175.539C109.605 176.508 108.862 177.335 107.891 177.386C106.92 177.437 106.095 176.692 106.044 175.721C105.993 174.751 106.737 173.925 107.708 173.874C108.677 173.822 109.505 174.568 109.555 175.539Z" fill="#A61C57"/>
<path d="M107.36 166.982C107.412 167.989 106.639 168.849 105.629 168.902C104.622 168.954 103.762 168.18 103.709 167.171C103.657 166.164 104.43 165.303 105.44 165.251C106.449 165.2 107.308 165.975 107.36 166.982Z" fill="#A61C57"/>
<path d="M115.812 152.868C115.867 153.907 115.068 154.793 114.029 154.849C112.99 154.904 112.103 154.104 112.048 153.065C111.995 152.025 112.793 151.14 113.832 151.085C114.873 151.03 115.759 151.828 115.812 152.868Z" fill="#A61C57"/>
<path d="M111.439 141.507C111.501 142.701 110.584 143.716 109.391 143.78C108.197 143.843 107.182 142.926 107.118 141.733C107.055 140.539 107.972 139.523 109.165 139.459C110.359 139.397 111.376 140.315 111.439 141.507Z" fill="#A61C57"/>
<path d="M100.775 129.143C100.822 130.036 100.134 130.8 99.2389 130.847C98.345 130.894 97.5818 130.206 97.5339 129.311C97.4875 128.417 98.1753 127.654 99.0705 127.606C99.9658 127.558 100.729 128.246 100.775 129.143Z" fill="#A61C57"/>
<path d="M87.9877 121.886C88.0312 122.734 87.3811 123.453 86.5352 123.498C85.6892 123.543 84.968 122.892 84.923 122.046C84.8781 121.2 85.5296 120.479 86.3755 120.434C87.2229 120.39 87.9427 121.04 87.9877 121.886Z" fill="#A61C57"/>
<path d="M75.8688 118.479C75.924 119.538 75.11 120.439 74.0522 120.496C72.993 120.551 72.0919 119.737 72.0354 118.679C71.9802 117.62 72.7927 116.718 73.8519 116.662C74.9112 116.607 75.8137 117.42 75.8688 118.479Z" fill="#A61C57"/>
<path d="M59.3825 133.192C59.4464 134.402 58.5163 135.434 57.3061 135.498C56.0975 135.56 55.0644 134.632 55.002 133.423C54.9381 132.213 55.8682 131.181 57.0769 131.119C58.2885 131.054 59.3187 131.982 59.3825 133.192Z" fill="#A61C57"/>
<path d="M51.0711 136.672C51.1219 137.625 50.3891 138.439 49.4344 138.489C48.4796 138.538 47.667 137.807 47.6177 136.852C47.5684 135.897 48.3011 135.086 49.2544 135.035C50.2077 134.984 51.0218 135.717 51.0711 136.672Z" fill="#A61C57"/>
<path d="M52.3989 149.68C52.4671 150.993 51.4587 152.112 50.1455 152.18C48.8324 152.248 47.7136 151.24 47.6454 149.927C47.5772 148.614 48.5856 147.495 49.8988 147.427C51.212 147.359 52.3322 148.368 52.3989 149.68Z" fill="#A61C57"/>
<path d="M66.372 120.895C66.417 121.741 65.7656 122.462 64.9196 122.507C64.0737 122.552 63.3525 121.901 63.3075 121.055C63.2625 120.209 63.914 119.488 64.76 119.443C65.6059 119.398 66.327 120.049 66.372 120.895Z" fill="#A61C57"/>
<path d="M57.4643 163.011C57.5107 163.913 56.8186 164.681 55.9175 164.729C55.0149 164.775 54.2474 164.083 54.1995 163.182C54.1516 162.281 54.8452 161.512 55.7477 161.465C56.6488 161.414 57.4179 162.108 57.4643 163.011Z" fill="#A61C57"/>
<path d="M92.1899 126.759C92.2392 127.713 91.5079 128.526 90.5531 128.575C89.5983 128.625 88.7858 127.893 88.7365 126.938C88.6857 125.985 89.4185 125.171 90.3733 125.122C91.3251 125.073 92.1391 125.805 92.1899 126.759Z" fill="#A61C57"/>
<path d="M103.82 139.738C103.865 140.584 103.213 141.305 102.367 141.35C101.521 141.395 100.8 140.743 100.755 139.898C100.71 139.052 101.362 138.33 102.208 138.285C103.052 138.242 103.775 138.892 103.82 139.738Z" fill="#A61C57"/>
<path d="M90.1584 150.114C90.4486 155.674 86.1754 160.415 80.6166 160.704C75.0563 160.994 70.3158 156.721 70.0271 151.162C69.7369 145.601 74.0101 140.861 79.5689 140.572C85.1277 140.283 89.8696 144.555 90.1584 150.114Z" fill="white"/>
<path d="M87.574 150.249C87.7888 154.382 84.614 157.905 80.4815 158.119C76.349 158.334 72.826 155.159 72.6098 151.028C72.3951 146.896 75.5699 143.373 79.7009 143.157C83.8334 142.942 87.3593 146.117 87.574 150.249Z" fill="#A61C57"/>
<path d="M85.389 150.362C85.5413 153.289 83.2937 155.783 80.367 155.936C77.4404 156.088 74.9461 153.84 74.7937 150.914C74.6414 147.987 76.889 145.493 79.8157 145.34C82.7409 145.189 85.2366 147.438 85.389 150.362Z" fill="#6B0D2E"/>
<path d="M76.1895 153.07C76.2229 153.721 75.7223 154.277 75.0693 154.312C74.4178 154.345 73.8621 153.845 73.8273 153.192C73.7939 152.54 74.2944 151.984 74.9474 151.95C75.5989 151.916 76.1561 152.418 76.1895 153.07Z" fill="#A61C57"/>
<path d="M73.3672 148.486C73.4021 149.139 72.9014 149.695 72.2485 149.73C71.5955 149.764 71.0413 149.262 71.0065 148.609C70.9731 147.958 71.4737 147.402 72.1267 147.367C72.7767 147.333 73.331 147.835 73.3672 148.486Z" fill="#A61C57"/>
<path d="M78.0265 145.931C78.0598 146.582 77.5593 147.138 76.9064 147.173C76.2549 147.206 75.6991 146.706 75.6643 146.053C75.6309 145.401 76.1315 144.846 76.7845 144.811C77.436 144.777 77.9931 145.279 78.0265 145.931Z" fill="#C4246B"/>
<path d="M78.9232 142.881C78.958 143.534 78.4561 144.088 77.8031 144.123C77.1516 144.156 76.5958 143.656 76.561 143.003C76.5276 142.351 77.0282 141.796 77.6812 141.761C78.3327 141.727 78.8898 142.229 78.9232 142.881Z" fill="#A61C57"/>
<path d="M76.3664 144.021C76.3998 144.673 75.8992 145.229 75.2462 145.263C74.5947 145.297 74.0391 144.796 74.0042 144.143C73.9709 143.492 74.4714 142.936 75.1243 142.901C75.7758 142.868 76.333 143.37 76.3664 144.021Z" fill="#891542"/>
<path d="M74.4903 145.86C74.5237 146.511 74.0231 147.067 73.3701 147.102C72.7186 147.135 72.163 146.635 72.1281 145.982C72.0948 145.33 72.5953 144.774 73.2482 144.74C73.8997 144.706 74.4569 145.208 74.4903 145.86Z" fill="#891542"/>
<path d="M80.6746 145.793C80.7079 146.445 80.2073 147 79.5544 147.035C78.9014 147.07 78.3471 146.568 78.3123 145.915C78.2789 145.263 78.7795 144.708 79.4325 144.673C80.0854 144.641 80.6412 145.142 80.6746 145.793Z" fill="#891542"/>
<path d="M84.4342 143.676C84.469 144.329 83.9655 144.885 83.3154 144.919C82.6639 144.953 82.1082 144.452 82.0734 143.799C82.04 143.148 82.5406 142.592 83.1936 142.557C83.8436 142.522 84.3994 143.023 84.4342 143.676Z" fill="#891542"/>
<path d="M87.0169 144.52C87.0502 145.172 86.5497 145.728 85.8968 145.763C85.2438 145.797 84.688 145.297 84.6532 144.644C84.6198 143.992 85.1204 143.437 85.7734 143.402C86.4263 143.367 86.982 143.868 87.0169 144.52Z" fill="#A61C57"/>
<path d="M88.9177 146.993C88.9511 147.645 88.4505 148.2 87.7975 148.235C87.146 148.268 86.5903 147.768 86.5555 147.115C86.5221 146.463 87.0227 145.908 87.6757 145.873C88.3287 145.841 88.8843 146.342 88.9177 146.993Z" fill="#891542"/>
<path d="M89.4009 149.725C89.4358 150.378 88.9337 150.933 88.2822 150.969C87.6292 151.004 87.0749 150.502 87.0401 149.849C87.0067 149.197 87.5073 148.641 88.1603 148.607C88.8118 148.573 89.3676 149.074 89.4009 149.725Z" fill="#A61C57"/>
<path d="M81.5756 143.125C81.609 143.776 81.1084 144.332 80.4554 144.367C79.8039 144.4 79.2482 143.9 79.2133 143.247C79.1785 142.594 79.6806 142.039 80.3321 142.003C80.9851 141.971 81.5422 142.473 81.5756 143.125Z" fill="#C4246B"/>
<path d="M83.3764 146.098C83.4112 146.751 82.9092 147.305 82.2577 147.341C81.6062 147.375 81.0504 146.874 81.0156 146.221C80.9822 145.57 81.4828 145.014 82.1358 144.979C82.7858 144.944 83.343 145.446 83.3764 146.098Z" fill="#C4246B"/>
<path d="M86.1333 146.934C86.1682 147.586 85.6675 148.142 85.0146 148.177C84.3631 148.21 83.8074 147.71 83.7726 147.057C83.7392 146.405 84.2398 145.85 84.8927 145.815C85.5428 145.78 86.1 146.282 86.1333 146.934Z" fill="#C4246B"/>
<path d="M86.4511 153.038C86.4859 153.691 85.9853 154.247 85.3309 154.28C84.6794 154.313 84.1236 153.813 84.0887 153.16C84.0554 152.508 84.556 151.953 85.209 151.918C85.8619 151.886 86.4177 152.386 86.4511 153.038Z" fill="#891542"/>
<path d="M86.541 149.875C86.5743 150.526 86.0737 151.082 85.4208 151.117C84.7693 151.15 84.2135 150.65 84.1786 149.997C84.1453 149.345 84.6459 148.789 85.2989 148.755C85.9518 148.723 86.5076 149.223 86.541 149.875Z" fill="#A61C57"/>
<path d="M88.938 152.553C88.9728 153.206 88.4708 153.761 87.8178 153.795C87.1663 153.829 86.6106 153.328 86.5758 152.675C86.5424 152.024 87.043 151.468 87.6959 151.433C88.3474 151.4 88.9032 151.903 88.938 152.553Z" fill="#C4246B"/>
<path d="M73.73 151.333C73.7634 151.985 73.2627 152.54 72.6098 152.575C71.9583 152.609 71.4025 152.108 71.3677 151.455C71.3343 150.803 71.8349 150.248 72.4879 150.213C73.1423 150.179 73.6981 150.68 73.73 151.333Z" fill="#C4246B"/>
<path d="M76.1082 147.835C76.143 148.488 75.6411 149.042 74.9881 149.077C74.3366 149.11 73.7808 148.609 73.746 147.957C73.7126 147.305 74.2132 146.749 74.8662 146.714C75.5177 146.681 76.0734 147.182 76.1082 147.835Z" fill="#A61C57"/>
<path d="M76.426 150.401C76.4593 151.053 75.9587 151.609 75.3057 151.644C74.6542 151.677 74.0986 151.176 74.0637 150.523C74.0304 149.872 74.531 149.316 75.1839 149.281C75.8354 149.248 76.3911 149.749 76.426 150.401Z" fill="#891542"/>
<path d="M78.9363 153.132C78.9696 153.784 78.469 154.34 77.8161 154.374C77.1646 154.408 76.6088 153.907 76.574 153.254C76.5392 152.601 77.0413 152.047 77.6928 152.011C78.3457 151.979 78.9014 152.479 78.9363 153.132Z" fill="#891542"/>
<path d="M79.7474 150.722C79.7807 151.374 79.2801 151.929 78.6272 151.964C77.9757 151.998 77.42 151.497 77.3851 150.844C77.3518 150.193 77.8524 149.637 78.5053 149.602C79.1568 149.569 79.714 150.071 79.7474 150.722Z" fill="#C4246B"/>
<path d="M81.9761 150.702C82.0051 151.282 81.5597 151.777 80.9807 151.807C80.4018 151.838 79.907 151.392 79.875 150.812C79.8446 150.233 80.29 149.738 80.8704 149.706C81.4508 149.674 81.9456 150.12 81.9761 150.702Z" fill="#891542"/>
<path d="M84.4355 154.876C84.4689 155.528 83.9683 156.084 83.3154 156.118C82.6639 156.152 82.1082 155.651 82.0734 154.998C82.0385 154.345 82.5406 153.791 83.1935 153.756C83.845 153.723 84.4007 154.223 84.4355 154.876Z" fill="#A61C57"/>
<path d="M81.8701 156.194C81.9035 156.845 81.4029 157.401 80.7499 157.436C80.0984 157.469 79.5427 156.969 79.5079 156.316C79.4731 155.663 79.9751 155.108 80.628 155.074C81.2795 155.04 81.8367 155.542 81.8701 156.194Z" fill="#891542"/>
<path d="M79.1278 155.762C79.1611 156.413 78.6605 156.969 78.0076 157.004C77.3561 157.037 76.8003 156.536 76.7655 155.883C76.7321 155.232 77.2327 154.676 77.8857 154.641C78.5372 154.608 79.0929 155.109 79.1278 155.762Z" fill="#C4246B"/>
<path d="M81.6381 153.46C81.6714 154.112 81.1708 154.667 80.5179 154.702C79.8664 154.736 79.3106 154.235 79.2758 153.582C79.2424 152.931 79.743 152.375 80.396 152.34C81.0475 152.307 81.6032 152.807 81.6381 153.46Z" fill="#A61C57"/>
<path d="M75.7934 155.747C75.8267 156.399 75.3261 156.954 74.6732 156.989C74.0202 157.024 73.4659 156.522 73.4296 155.87C73.3963 155.219 73.8969 154.663 74.5498 154.628C75.2028 154.593 75.7585 155.094 75.7934 155.747Z" fill="#A61C57"/>
<path d="M73.8867 154.299C73.9201 154.95 73.4195 155.506 72.7665 155.541C72.115 155.574 71.5593 155.074 71.5245 154.421C71.4911 153.769 71.9917 153.214 72.6446 153.179C73.2961 153.145 73.8519 153.646 73.8867 154.299Z" fill="#C4246B"/>
<path d="M77.9988 157.868C78.0322 158.52 77.5316 159.076 76.8787 159.11C76.2272 159.144 75.6714 158.643 75.6366 157.99C75.6018 157.337 76.1038 156.783 76.7568 156.748C77.4083 156.718 77.964 157.218 77.9988 157.868Z" fill="#891542"/>
<path d="M80.734 158.848C80.7674 159.499 80.2668 160.055 79.6138 160.09C78.9623 160.123 78.4066 159.623 78.3717 158.97C78.3384 158.318 78.839 157.762 79.4919 157.728C80.1434 157.694 80.7006 158.196 80.734 158.848Z" fill="#A61C57"/>
<path d="M83.6332 158.343C83.668 158.996 83.166 159.55 82.513 159.585C81.8615 159.618 81.3057 159.118 81.2709 158.465C81.2375 157.813 81.7381 157.257 82.3911 157.223C83.0426 157.189 83.5984 157.69 83.6332 158.343Z" fill="#891542"/>
<path d="M86.11 157.03C86.1449 157.683 85.6428 158.237 84.9899 158.272C84.3369 158.307 83.7826 157.804 83.7478 157.152C83.7144 156.5 84.215 155.944 84.8679 155.909C85.5209 155.875 86.0767 156.378 86.11 157.03Z" fill="#C4246B"/>
<path d="M88.1574 155.104C88.1908 155.756 87.6902 156.311 87.0372 156.346C86.3843 156.381 85.8299 155.879 85.7951 155.226C85.7617 154.575 86.2623 154.019 86.9153 153.984C87.5668 153.951 88.1226 154.451 88.1574 155.104Z" fill="#A61C57"/>
<path d="M84.3891 151.664C84.4225 152.315 83.9219 152.871 83.2689 152.906C82.6174 152.939 82.0616 152.439 82.0268 151.786C81.992 151.133 82.4941 150.578 83.147 150.544C83.7985 150.51 84.3543 151.011 84.3891 151.664Z" fill="#C4246B"/>
<path d="M84.1163 148.753C84.1497 149.405 83.6491 149.96 82.9961 149.995C82.3432 150.03 81.7889 149.528 81.7526 148.876C81.7178 148.223 82.2198 147.669 82.8728 147.634C83.5257 147.6 84.083 148.102 84.1163 148.753Z" fill="#891542"/>
<path d="M81.458 148.266C81.4914 148.917 80.9908 149.473 80.3379 149.508C79.6864 149.541 79.1306 149.041 79.0958 148.388C79.0624 147.736 79.563 147.18 80.216 147.146C80.8675 147.112 81.4232 147.613 81.458 148.266Z" fill="#A61C57"/>
<path d="M78.6939 148.505C78.7287 149.158 78.2267 149.712 77.5752 149.749C76.9237 149.782 76.3679 149.281 76.3331 148.628C76.2997 147.977 76.8003 147.421 77.4533 147.386C78.1033 147.351 78.6605 147.853 78.6939 148.505Z" fill="#891542"/>
<path d="M153.578 248.688C153.578 248.688 154.602 250.023 156.394 252.358C157.296 253.478 158.363 255.05 159.64 256.463C160.914 257.931 162.352 259.59 163.923 261.399C165.637 263.124 167.455 265.053 169.462 267.007C171.569 268.847 173.648 270.976 176.084 272.852C178.433 274.833 180.962 276.767 183.603 278.659C186.237 280.561 188.987 282.408 191.791 284.197C197.381 287.802 203.218 291.126 208.646 294.366C211.354 296.009 213.97 297.595 216.451 299.098C218.882 300.701 221.228 302.125 223.28 303.628C225.353 305.092 227.253 306.428 228.841 307.742C230.455 309.021 231.88 310.104 232.954 311.122C235.15 313.084 236.407 314.207 236.407 314.207C236.407 314.207 235.053 313.21 232.682 311.469C231.529 310.565 230.008 309.625 228.296 308.513C226.608 307.369 224.606 306.228 222.429 304.983C220.279 303.7 217.819 302.512 215.287 301.167C212.695 299.915 209.961 298.594 207.131 297.228C201.446 294.529 195.296 291.764 189.251 288.636C186.225 287.088 183.216 285.46 180.308 283.753C177.389 282.056 174.561 280.293 171.898 278.451C169.157 276.723 166.75 274.702 164.332 272.958C162.011 271.095 159.887 269.238 157.884 267.563C155.967 265.733 154.207 264.057 152.649 262.569C151.043 261.073 149.978 259.761 148.927 258.684C146.922 256.531 145.776 255.298 145.776 255.298L153.578 248.688Z" fill="#891542"/>
<path d="M203.327 284.923C206.32 277.199 225.994 271.385 239.728 276.355C264.662 285.377 265.973 311.709 265.973 311.709C265.973 311.709 261.47 319.737 243.34 315.374C225.211 311.009 199.437 294.963 203.327 284.923Z" fill="#F6DCEF"/>
<path d="M198.49 297.403C195.497 305.127 206.116 322.681 219.611 328.263C244.115 338.399 262.825 319.827 262.825 319.827C262.825 319.827 264.909 310.86 248.572 301.868C232.238 292.873 202.382 287.362 198.49 297.403Z" fill="white"/>
<path d="M197.9 289.891L202.442 278.173C192.18 274.197 185.031 284.904 185.031 284.904C185.031 284.904 183.1 297.634 193.36 301.611L197.9 289.891Z" fill="#891542"/>
<path d="M222.946 299.597C216.749 287.3 209.804 284.197 209.804 284.197C204.602 282.231 194.667 288.64 194.667 288.64C194.667 288.64 197.691 300.072 202.858 302.122C202.858 302.122 210.081 304.507 222.946 299.597Z" fill="#A61C57"/>
<path d="M229.427 278.155C223.877 271.897 202.314 268.91 194.669 288.639C194.669 288.639 207.617 288.329 212.552 288.632C212.552 288.632 220.399 285.08 229.427 278.155Z" fill="#A61C57"/>
<path d="M213.288 319.807C204.971 320.692 187.023 308.368 194.669 288.639C194.669 288.639 204.028 297.595 207.877 300.695C207.877 300.695 211.281 308.606 213.288 319.807Z" fill="#A61C57"/>
<path d="M253.215 244.266C250.052 237.022 259.472 219.865 272.115 214.002C295.067 203.36 313.648 220.314 313.648 220.314C313.648 220.314 315.995 228.778 300.781 238.005C285.569 247.233 257.326 253.681 253.215 244.266Z" fill="#F6DCEF"/>
<path d="M258.326 255.969C261.489 263.213 280.476 267.968 293.369 262.68C316.777 253.08 316.973 227.927 316.973 227.927C316.973 227.927 312.359 220.455 295.251 225.339C278.142 230.224 254.215 246.554 258.326 255.969Z" fill="white"/>
<path d="M252.88 251.278L248.082 240.29C238.46 244.491 240.811 256.548 240.811 256.548C240.811 256.548 248.056 266.469 257.677 262.268L252.88 251.278Z" fill="#891542"/>
<path d="M276.368 241.024C263.906 236.86 257.119 239.422 257.119 239.422C252.275 241.584 249.85 252.602 249.85 252.602C249.85 252.602 259.578 258.313 264.458 256.231C264.458 256.231 270.951 252.994 276.368 241.024Z" fill="#A61C57"/>
<path d="M266.349 222.145C258.384 221.636 241.77 234.1 249.848 252.602C249.848 252.602 258.411 243.69 261.956 240.58C261.956 240.58 264.887 232.901 266.349 222.145Z" fill="#A61C57"/>
<path d="M283.404 261.203C278.364 267.392 257.928 271.103 249.849 252.6C249.849 252.6 262.207 252.378 266.897 251.891C266.897 251.891 274.519 254.965 283.404 261.203Z" fill="#A61C57"/>
<path d="M151.915 212.97C150.306 221.376 167.4 230.06 178.795 239.305C190.19 248.549 203.783 248.012 210.456 240.657C217.129 233.302 217.129 233.302 217.129 233.302L212.775 228.544L218.579 225.732C218.579 225.732 219.532 213.87 201.921 207.887C184.309 201.906 154.007 202.047 151.915 212.97Z" fill="white"/>
<path d="M155.116 196.257C156.725 187.852 175.819 186.095 189.819 181.711C203.822 177.329 216.257 182.849 219.742 192.147C223.227 201.448 223.227 201.448 223.227 201.448L217.423 204.26L221.778 209.018C221.778 209.018 218.284 220.394 199.708 219.447C181.131 218.503 153.023 207.181 155.116 196.257Z" fill="white"/>
<path d="M153.534 204.522C151.926 212.927 166.487 223.28 181.531 231.072C194.928 238.012 207.753 238.389 214.61 231.07C221.467 223.748 221.768 222.183 221.768 222.183L215.981 216.477L223.467 213.313C223.467 213.313 223.766 211.746 220.098 202.41C216.428 193.075 204.37 188.691 189.358 190.194C172.499 191.875 155.142 196.118 153.534 204.522Z" fill="#F6DCEF"/>
<path d="M150.31 203.904L152.59 191.999C142.164 190.004 137.234 201.403 137.234 201.403C137.234 201.403 137.605 213.818 148.03 215.813L150.31 203.904Z" fill="#891542"/>
<path d="M175.758 208.777C167.745 198.182 160.619 196.439 160.619 196.439C155.344 195.475 147.026 203.276 147.026 203.276C147.026 203.276 151.876 213.598 157.134 214.652C157.134 214.652 164.399 215.663 175.758 208.777Z" fill="#A61C57"/>
<path d="M178.193 187.308C171.842 182.329 150.861 183.23 147.025 203.278C147.025 203.278 159.258 200.74 163.993 200.172C163.993 200.172 170.824 195.442 178.193 187.308Z" fill="#A61C57"/>
<path d="M170.093 229.628C162.353 231.909 143.188 223.325 147.025 203.278C147.025 203.278 157.456 210.154 161.648 212.431C161.648 212.431 166.249 219.348 170.093 229.628Z" fill="#A61C57"/>
<path d="M131.47 315.887C145.087 305.722 147.884 286.443 137.719 272.826C127.554 259.21 108.275 256.413 94.6585 266.578C81.0423 276.743 78.2448 296.022 88.4101 309.638C98.5754 323.255 117.854 326.052 131.47 315.887Z" fill="#A61C57"/>
<mask id="mask11_207_4798" style="mask-type:luminance" maskUnits="userSpaceOnUse" x="116" y="242" width="57" height="49">
<path d="M118.224 288.755C120.355 287.947 127.243 288.442 135.497 290.029C145.554 291.963 157.134 291.12 164.245 281.545C169.553 274.4 170.602 265.336 172.959 256.752C172.959 256.752 168.926 253.038 164.441 252.039C164.659 247.448 162.139 242.58 162.139 242.58C153.237 242.593 144.217 241.217 135.926 244.456C124.817 248.794 120.955 259.744 120.171 269.956C119.528 278.335 118.192 285.11 116.85 286.954L118.224 288.755Z" fill="white"/>
</mask>
<g mask="url(#mask11_207_4798)">
<path d="M118.224 288.755C120.355 287.947 127.243 288.442 135.497 290.029C145.554 291.963 157.134 291.12 164.245 281.545C169.553 274.4 170.602 265.336 172.959 256.752C172.959 256.752 168.926 253.038 164.441 252.039C164.659 247.448 162.139 242.58 162.139 242.58C153.237 242.593 144.217 241.217 135.926 244.456C124.817 248.794 120.955 259.744 120.171 269.956C119.528 278.335 118.192 285.11 116.85 286.954L118.224 288.755Z" fill="white"/>
<path d="M118.095 288.585C119.826 287.928 125.422 288.33 132.124 289.62C140.294 291.19 149.7 290.506 155.478 282.729C159.791 276.925 160.643 269.561 162.556 262.589C162.556 262.589 159.28 259.571 155.637 258.76C155.814 255.031 153.766 251.077 153.766 251.077C146.536 251.087 139.208 249.969 132.473 252.599C123.449 256.123 120.31 265.019 119.673 273.312C119.151 280.117 118.066 285.622 116.974 287.12L118.095 288.585Z" fill="#F6DCEF"/>
</g>
<mask id="mask12_207_4798" style="mask-type:luminance" maskUnits="userSpaceOnUse" x="116" y="242" width="57" height="49">
<path d="M118.224 288.755C120.355 287.947 127.243 288.442 135.497 290.029C145.554 291.963 157.134 291.12 164.245 281.545C169.553 274.4 170.602 265.336 172.959 256.752C172.959 256.752 168.926 253.038 164.441 252.039C164.659 247.448 162.139 242.58 162.139 242.58C153.237 242.593 144.217 241.217 135.926 244.456C124.817 248.794 120.955 259.744 120.171 269.956C119.528 278.335 118.192 285.11 116.85 286.954L118.224 288.755Z" fill="white"/>
</mask>
<g mask="url(#mask12_207_4798)">
<path d="M117.851 288.266C118.885 287.853 123.047 287.313 126.975 287.929C131.76 288.684 137.319 288.108 140.873 283.492C140.967 283.369 141.064 283.231 141.166 283.077C146.693 274.643 137.959 263.204 128.366 266.314C128.191 266.37 128.033 266.427 127.889 266.486C122.501 268.699 120.483 273.91 119.949 278.724C119.511 282.674 117.893 286.55 117.223 287.438L117.851 288.266Z" fill="#E89DD5"/>
</g>
<mask id="mask13_207_4798" style="mask-type:luminance" maskUnits="userSpaceOnUse" x="75" y="223" width="49" height="64">
<path d="M112.343 285.608C112.233 283.33 114.831 276.932 118.893 269.574C123.839 260.608 126.618 249.333 119.708 239.611C114.553 232.354 106.256 228.556 98.8209 223.663C98.8209 223.663 94.0427 226.349 91.7066 230.307C87.4072 228.68 81.9994 229.573 81.9994 229.573C79.2613 238.042 75.1652 246.196 75.6832 255.083C76.3753 266.988 85.5979 274.046 95.0657 277.948C102.836 281.147 108.866 284.514 110.206 286.358L112.343 285.608Z" fill="white"/>
</mask>
<g mask="url(#mask13_207_4798)">
<path d="M112.343 285.608C112.233 283.33 114.831 276.932 118.893 269.574C123.839 260.608 126.618 249.333 119.708 239.611C114.553 232.354 106.256 228.556 98.8209 223.663C98.8209 223.663 94.0427 226.349 91.7066 230.307C87.4072 228.68 81.9994 229.573 81.9994 229.573C79.2613 238.042 75.1652 246.196 75.6832 255.083C76.3753 266.988 85.5979 274.046 95.0657 277.948C102.836 281.147 108.866 284.514 110.206 286.358L112.343 285.608Z" fill="white"/>
<path d="M112.143 285.677C112.053 283.829 114.164 278.63 117.462 272.653C121.481 265.369 123.736 256.21 118.125 248.313C113.937 242.419 107.197 239.332 101.158 235.357C101.158 235.357 97.277 237.54 95.3791 240.756C91.8865 239.434 87.4927 240.159 87.4927 240.159C85.2684 247.039 81.9412 253.662 82.3605 260.881C82.9235 270.554 90.4138 276.285 98.1056 279.456C104.417 282.056 109.316 284.789 110.403 286.288L112.143 285.677Z" fill="#F6DCEF"/>
</g>
<mask id="mask14_207_4798" style="mask-type:luminance" maskUnits="userSpaceOnUse" x="75" y="223" width="49" height="64">
<path d="M112.343 285.608C112.233 283.33 114.831 276.932 118.893 269.574C123.839 260.608 126.618 249.333 119.708 239.611C114.553 232.354 106.256 228.556 98.8209 223.663C98.8209 223.663 94.0427 226.349 91.7066 230.307C87.4072 228.68 81.9994 229.573 81.9994 229.573C79.2613 238.042 75.1652 246.196 75.6832 255.083C76.3753 266.988 85.5979 274.046 95.0657 277.948C102.836 281.147 108.866 284.514 110.206 286.358L112.343 285.608Z" fill="white"/>
</mask>
<g mask="url(#mask14_207_4798)">
<path d="M111.764 285.81C111.69 284.7 112.462 280.573 114.264 277.029C116.459 272.71 117.63 267.247 114.339 262.441C114.251 262.312 114.151 262.177 114.035 262.035C107.721 254.172 94.1428 258.943 94.1355 269.029C94.1355 269.211 94.1414 269.383 94.153 269.536C94.5941 275.343 98.9239 278.875 103.339 280.87C106.962 282.508 110.147 285.244 110.783 286.155L111.764 285.81Z" fill="#E89DD5"/>
</g>
<mask id="mask15_207_4798" style="mask-type:luminance" maskUnits="userSpaceOnUse" x="44" y="267" width="64" height="50">
<path d="M107.533 290.226C105.333 289.628 100.05 285.178 94.3068 279.043C87.3086 271.569 77.4432 265.442 66.0629 269.01C57.5687 271.671 51.3918 278.388 44.4401 283.946C44.4401 283.946 45.5196 289.321 48.5609 292.766C45.6864 296.351 44.8637 301.771 44.8637 301.771C52.0723 306.991 58.5612 313.408 67.1729 315.661C78.7099 318.681 88.2721 312.093 94.9061 304.292C100.352 297.892 105.416 293.197 107.585 292.493L107.533 290.226Z" fill="white"/>
</mask>
<g mask="url(#mask15_207_4798)">
<path d="M107.533 290.226C105.333 289.628 100.05 285.178 94.3068 279.043C87.3086 271.569 77.4432 265.442 66.0629 269.01C57.5687 271.671 51.3918 278.388 44.4401 283.946C44.4401 283.946 45.5196 289.321 48.5609 292.766C45.6864 296.351 44.8637 301.771 44.8637 301.771C52.0723 306.991 58.5612 313.408 67.1729 315.661C78.7099 318.681 88.2721 312.093 94.9061 304.292C100.352 297.892 105.416 293.197 107.585 292.493L107.533 290.226Z" fill="white"/>
<path d="M107.539 290.438C105.752 289.952 101.462 286.338 96.7952 281.355C91.1087 275.282 83.0963 270.305 73.852 273.203C66.9524 275.364 61.9333 280.821 56.286 285.336C56.286 285.336 57.1624 289.704 59.6349 292.501C57.2988 295.415 56.6314 299.817 56.6314 299.817C62.4862 304.059 67.7591 309.271 74.753 311.102C84.1251 313.556 91.8923 308.203 97.2828 301.866C101.705 296.666 105.821 292.853 107.582 292.281L107.539 290.438Z" fill="#F6DCEF"/>
</g>
<mask id="mask16_207_4798" style="mask-type:luminance" maskUnits="userSpaceOnUse" x="44" y="267" width="64" height="50">
<path d="M107.533 290.226C105.333 289.628 100.05 285.178 94.3068 279.043C87.3086 271.569 77.4432 265.442 66.0629 269.01C57.5687 271.671 51.3918 278.388 44.4401 283.946C44.4401 283.946 45.5196 289.321 48.5609 292.766C45.6864 296.351 44.8637 301.771 44.8637 301.771C52.0723 306.991 58.5612 313.408 67.1729 315.661C78.7099 318.681 88.2721 312.093 94.9061 304.292C100.352 297.892 105.416 293.197 107.585 292.493L107.533 290.226Z" fill="white"/>
</mask>
<g mask="url(#mask16_207_4798)">
<path d="M107.547 290.839C106.468 290.566 102.782 288.555 99.9687 285.747C96.54 282.324 91.7052 279.524 86.1173 281.168C85.9693 281.211 85.8068 281.266 85.637 281.332C76.2069 284.908 76.5493 299.294 86.139 302.418C86.3146 302.474 86.4772 302.521 86.6281 302.558C92.287 303.934 96.9839 300.906 100.246 297.325C102.923 294.386 106.508 292.203 107.573 291.878L107.547 290.839Z" fill="#E89DD5"/>
</g>
<mask id="mask17_207_4798" style="mask-type:luminance" maskUnits="userSpaceOnUse" x="77" y="296" width="49" height="64">
<path d="M110.439 296.229C109.191 298.136 103.326 301.784 95.7172 305.35C86.4453 309.697 77.5695 317.186 77.4447 329.11C77.3518 338.011 81.8296 345.962 84.9681 354.29C84.9681 354.29 90.4138 354.924 94.6304 353.096C97.1523 356.938 102.054 359.396 102.054 359.396C109.246 354.153 117.353 349.964 122.159 342.471C128.596 332.433 125.286 321.303 119.917 312.582C115.512 305.426 112.611 299.159 112.613 296.879L110.439 296.229Z" fill="white"/>
</mask>
<g mask="url(#mask17_207_4798)">
<path d="M110.439 296.229C109.191 298.136 103.326 301.784 95.7172 305.35C86.4453 309.697 77.5695 317.186 77.4447 329.11C77.3518 338.011 81.8296 345.962 84.9681 354.29C84.9681 354.29 90.4138 354.924 94.6304 353.096C97.1523 356.938 102.054 359.396 102.054 359.396C109.246 354.153 117.353 349.964 122.159 342.471C128.596 332.433 125.286 321.303 119.917 312.582C115.512 305.426 112.611 299.159 112.613 296.879L110.439 296.229Z" fill="white"/>
<path d="M110.644 296.289C109.63 297.837 104.866 300.801 98.6832 303.699C91.151 307.229 83.9409 313.313 83.8393 323C83.7624 330.231 87.4016 336.688 89.951 343.454C89.951 343.454 94.3751 343.969 97.7995 342.483C99.8483 345.605 103.83 347.599 103.83 347.599C109.673 343.34 116.259 339.938 120.161 333.851C125.39 325.696 122.702 316.655 118.341 309.57C114.763 303.757 112.407 298.664 112.408 296.814L110.644 296.289Z" fill="#F6DCEF"/>
</g>
<mask id="mask18_207_4798" style="mask-type:luminance" maskUnits="userSpaceOnUse" x="77" y="296" width="49" height="64">
<path d="M110.439 296.229C109.191 298.136 103.326 301.784 95.7172 305.35C86.4453 309.697 77.5695 317.186 77.4447 329.11C77.3518 338.011 81.8296 345.962 84.9681 354.29C84.9681 354.29 90.4138 354.924 94.6304 353.096C97.1523 356.938 102.054 359.396 102.054 359.396C109.246 354.153 117.353 349.964 122.159 342.471C128.596 332.433 125.286 321.303 119.917 312.582C115.512 305.426 112.611 299.159 112.613 296.879L110.439 296.229Z" fill="white"/>
</mask>
<g mask="url(#mask18_207_4798)">
<path d="M111.027 296.405C110.433 297.346 107.383 300.231 103.843 302.039C99.5276 304.242 95.3705 307.975 95.208 313.796C95.2036 313.952 95.2051 314.121 95.2138 314.304C95.7013 324.377 109.49 328.497 115.422 320.342C115.529 320.194 115.625 320.052 115.706 319.921C118.764 314.966 117.334 309.561 114.937 305.353C112.97 301.9 112.001 297.814 112.022 296.701L111.027 296.405Z" fill="#E89DD5"/>
</g>
<mask id="mask19_207_4798" style="mask-type:luminance" maskUnits="userSpaceOnUse" x="77" y="296" width="49" height="64">
<path d="M110.439 296.229C109.191 298.136 103.326 301.784 95.7172 305.35C86.4453 309.697 77.5695 317.186 77.4447 329.11C77.3518 338.011 81.8296 345.962 84.9681 354.29C84.9681 354.29 90.4138 354.924 94.6304 353.096C97.1523 356.938 102.054 359.396 102.054 359.396C109.246 354.153 117.353 349.964 122.159 342.471C128.596 332.433 125.286 321.303 119.917 312.582C115.512 305.426 112.611 299.159 112.613 296.879L110.439 296.229Z" fill="white"/>
</mask>
<g mask="url(#mask19_207_4798)">
<path d="M111.018 295.946C110.425 296.888 107.375 299.772 103.834 301.58C99.5203 303.785 95.3617 307.516 95.1992 313.338C95.1948 313.493 95.1978 313.664 95.2065 313.847C95.694 323.92 109.481 328.041 115.415 319.885C115.523 319.735 115.618 319.595 115.699 319.464C118.756 314.509 117.327 309.104 114.93 304.896C112.962 301.443 111.993 297.357 112.015 296.244L111.018 295.946Z" fill="#E89DD5"/>
</g>
<mask id="mask20_207_4798" style="mask-type:luminance" maskUnits="userSpaceOnUse" x="117" y="290" width="58" height="49">
<path d="M117.046 295.319C118.473 297.095 120.132 303.801 121.172 312.14C122.442 322.301 126.821 333.056 138.124 336.86C146.559 339.7 155.506 337.898 164.396 337.487C164.396 337.487 166.683 332.504 166.246 327.929C170.679 326.718 174.532 322.816 174.532 322.816C171.769 314.354 170.29 305.35 164.647 298.465C157.089 289.241 145.481 288.951 135.527 291.36C127.359 293.337 120.502 294.159 118.334 293.453L117.046 295.319Z" fill="white"/>
</mask>
<g mask="url(#mask20_207_4798)">
<path d="M117.046 295.319C118.473 297.095 120.132 303.801 121.172 312.14C122.442 322.301 126.821 333.056 138.124 336.86C146.559 339.7 155.506 337.898 164.396 337.487C164.396 337.487 166.683 332.504 166.246 327.929C170.679 326.718 174.532 322.816 174.532 322.816C171.769 314.354 170.29 305.35 164.647 298.465C157.089 289.241 145.481 288.951 135.527 291.36C127.359 293.337 120.502 294.159 118.334 293.453L117.046 295.319Z" fill="white"/>
<path d="M117.166 295.144C118.325 296.588 119.673 302.033 120.519 308.808C121.55 317.061 125.108 325.799 134.289 328.89C141.141 331.197 148.408 329.731 155.631 329.398C155.631 329.398 157.488 325.349 157.133 321.633C160.734 320.65 163.862 317.481 163.862 317.481C161.618 310.607 160.416 303.294 155.833 297.7C149.692 290.207 140.262 289.971 132.177 291.93C125.541 293.536 119.971 294.205 118.212 293.63L117.166 295.144Z" fill="#F6DCEF"/>
</g>
<mask id="mask21_207_4798" style="mask-type:luminance" maskUnits="userSpaceOnUse" x="117" y="290" width="58" height="49">
<path d="M117.046 295.319C118.473 297.095 120.132 303.801 121.172 312.14C122.442 322.301 126.821 333.056 138.124 336.86C146.559 339.7 155.506 337.898 164.396 337.487C164.396 337.487 166.683 332.504 166.246 327.929C170.679 326.718 174.532 322.816 174.532 322.816C171.769 314.354 170.29 305.35 164.647 298.465C157.089 289.241 145.481 288.951 135.527 291.36C127.359 293.337 120.502 294.159 118.334 293.453L117.046 295.319Z" fill="white"/>
</mask>
<g mask="url(#mask21_207_4798)">
<path d="M117.395 294.813C118.108 295.668 119.907 299.461 120.534 303.387C121.296 308.171 123.562 313.279 129.048 315.233C129.195 315.284 129.357 315.336 129.534 315.382C139.265 318.032 147.446 306.192 141.523 298.028C141.415 297.88 141.309 297.746 141.209 297.628C137.439 293.188 131.859 292.877 127.117 293.858C123.224 294.664 119.039 294.321 117.987 293.957L117.395 294.813Z" fill="#E89DD5"/>
</g>
<path d="M116.248 287.481C118.958 283.372 121.909 279.332 124.298 275.023C125.424 272.991 126.435 270.929 127.356 268.798C128.288 266.642 128.271 264.195 129.23 262.142C129.452 261.668 128.7 261.36 128.48 261.833C127.664 263.577 127.819 265.352 127.127 267.202C126.315 269.369 125.29 271.45 124.221 273.498C121.763 278.205 118.524 282.561 115.603 286.988C115.315 287.424 115.957 287.919 116.248 287.481Z" fill="white"/>
<path d="M114.024 290.937C117.405 286.985 120.782 283.428 125.656 281.378C130.057 279.528 135.036 279.595 139.651 280.381C140.167 280.468 140.273 279.666 139.758 279.577C134.83 278.739 130.081 278.949 125.351 280.627C120.333 282.406 116.735 286.523 113.377 290.447C113.038 290.845 113.685 291.335 114.024 290.937Z" fill="white"/>
<path d="M112.87 291.611C115.789 288.337 116.603 283.382 117.112 279.187C117.793 273.585 117.373 267.507 114.865 262.389C114.635 261.922 113.882 262.222 114.112 262.692C116.442 267.451 116.773 272.782 116.411 277.993C116.11 282.358 115.235 287.739 112.224 291.119C111.877 291.509 112.523 291.998 112.87 291.611Z" fill="white"/>
<path d="M113.531 290.694C111.08 279.902 108.739 269.075 107.467 258.071C107.408 257.55 106.601 257.651 106.662 258.171C107.933 269.172 110.275 280.003 112.726 290.794C112.84 291.3 113.647 291.204 113.531 290.694Z" fill="white"/>
<path d="M113.251 290.39C105.948 284.071 99.558 276.616 97.4642 266.951C97.3539 266.443 96.5486 266.54 96.6589 267.051C98.7991 276.937 105.279 284.563 112.761 291.037C113.155 291.377 113.644 290.731 113.251 290.39Z" fill="white"/>
<path d="M113.518 290.965C111.429 288.983 105.922 288.987 103.292 288.539C97.0696 287.48 90.7605 287.001 84.4559 286.892C83.9394 286.883 83.8263 287.687 84.3486 287.696C89.2095 287.78 94.0384 288.117 98.863 288.71C101.272 289.006 103.664 289.414 106.051 289.848C107.772 290.161 111.689 290.34 113.029 291.611C113.407 291.971 113.895 291.322 113.518 290.965Z" fill="white"/>
<path d="M113.54 290.964C110.442 290.271 106.179 292.497 103.421 293.526C97.441 295.753 91.7472 298.887 86.007 301.659C85.5369 301.885 85.8401 302.638 86.3102 302.412C90.82 300.235 95.3137 298.02 99.8481 295.894C103.261 294.295 109.541 290.9 113.434 291.769C113.943 291.881 114.046 291.075 113.54 290.964Z" fill="white"/>
<path d="M112.244 291.31C109.451 295.473 106.627 299.513 102.911 302.918C99.0966 306.414 94.0675 308.37 89.3488 310.303C88.8627 310.501 89.1688 311.254 89.652 311.056C94.0776 309.245 98.3784 307.364 102.245 304.519C106.706 301.237 109.853 296.331 112.891 291.804C113.18 291.37 112.537 290.875 112.244 291.31Z" fill="white"/>
<path d="M111.986 291.334C108.66 300.713 104.718 309.824 100.157 318.668C99.9178 319.133 100.669 319.438 100.907 318.977C105.468 310.133 109.409 301.02 112.736 291.643C112.912 291.151 112.161 290.839 111.986 291.334Z" fill="white"/>
<path d="M112.415 291.368C110.086 303.28 108.919 315.391 107.659 327.467C107.604 327.986 108.409 328.095 108.463 327.574C109.722 315.499 110.889 303.386 113.219 291.476C113.319 290.961 112.515 290.856 112.415 291.368Z" fill="white"/>
<path d="M113.392 291.526C115.502 301.446 115.545 311.516 113.518 321.454C113.414 321.967 114.218 322.072 114.322 321.561C116.364 311.553 116.321 301.418 114.197 291.426C114.088 290.92 113.282 291.016 113.392 291.526Z" fill="white"/>
<path d="M112.523 291.246C114.384 297.09 118.141 302.016 120.934 307.415C123.601 312.569 125.794 316.77 130.237 320.655C130.63 320.999 131.12 320.352 130.727 320.008C126.077 315.941 123.893 311.375 121.11 305.995C118.498 300.948 115.019 296.412 113.276 290.943C113.118 290.443 112.365 290.752 112.523 291.246Z" fill="white"/>
<path d="M114.122 290.968C115.695 294.912 118.994 297.544 122.154 300.228C126.583 303.992 131.434 307.235 136.472 310.12C136.918 310.375 137.416 309.732 136.963 309.474C133.173 307.303 129.547 304.919 126.052 302.3C121.919 299.204 116.835 295.576 114.875 290.665C114.68 290.177 113.93 290.483 114.122 290.968Z" fill="white"/>
<path d="M113.154 291.393C117.958 289.9 123.684 293.292 128.185 294.732C132.555 296.13 136.892 296.248 141.389 295.434C141.903 295.341 141.804 294.534 141.289 294.629C135.364 295.701 130.282 294.695 124.702 292.677C121.06 291.36 116.779 289.42 112.851 290.64C112.35 290.795 112.658 291.547 113.154 291.393Z" fill="white"/>
<path d="M113.688 290.966C119.888 282.361 127.414 274.184 136.274 268.273C136.71 267.982 136.215 267.34 135.781 267.628C126.881 273.566 119.269 281.831 113.041 290.476C112.736 290.9 113.382 291.392 113.688 290.966Z" fill="white"/>
<path d="M113.863 290.901C101.292 290.129 88.8349 291.727 76.8641 295.644C76.3664 295.808 76.6741 296.56 77.1674 296.398C89.0105 292.52 101.318 290.942 113.755 291.704C114.275 291.737 114.387 290.934 113.863 290.901Z" fill="white"/>
<path d="M114.043 291.899C119.865 284.064 129.672 283.215 138.261 286.475C138.748 286.661 139.06 285.911 138.57 285.725C129.633 282.334 119.421 283.301 113.396 291.409C113.086 291.83 113.73 292.32 114.043 291.899Z" fill="white"/>
<path d="M112.446 289.193C104.496 286.174 96.8722 282.5 89.562 278.153C89.118 277.889 88.6202 278.531 89.0715 278.8C96.4397 283.182 104.123 286.898 112.138 289.945C112.626 290.128 112.936 289.379 112.446 289.193Z" fill="white"/>
<path d="M114.704 291.483C118.428 292.271 121.731 295.037 124.846 297.107C127.935 299.16 130.971 301.296 133.982 303.465C134.405 303.77 134.899 303.126 134.472 302.818C130.601 300.029 126.672 297.328 122.683 294.709C120.178 293.063 117.781 291.307 114.811 290.679C114.299 290.57 114.196 291.376 114.704 291.483Z" fill="white"/>
<path d="M85.0624 288.836C84.3485 289.382 83.3285 289.244 82.7829 288.53C82.2373 287.816 82.3752 286.796 83.0891 286.251C83.803 285.705 84.823 285.843 85.3686 286.557C85.9127 287.269 85.7763 288.291 85.0624 288.836Z" fill="#A61C57"/>
<path d="M77.7987 297.595C77.0413 298.172 75.9617 298.027 75.3828 297.271C74.8052 296.514 74.9503 295.434 75.7063 294.855C76.4637 294.278 77.5433 294.423 78.1223 295.179C78.7013 295.935 78.5547 297.016 77.7987 297.595Z" fill="#A61C57"/>
<path d="M87.3188 304.047C86.4917 304.68 85.3077 304.52 84.6751 303.693C84.0424 302.866 84.2006 301.681 85.0291 301.049C85.8562 300.417 87.0416 300.575 87.6728 301.403C88.3054 302.231 88.1473 303.413 87.3188 304.047Z" fill="#A61C57"/>
<path d="M90.3601 312.486C89.4387 313.19 88.1241 313.013 87.4204 312.091C86.7166 311.17 86.8936 309.855 87.815 309.152C88.7349 308.449 90.0511 308.625 90.7548 309.546C91.4571 310.466 91.2815 311.782 90.3601 312.486Z" fill="#A61C57"/>
<path d="M101.707 320.359C101.079 320.84 100.179 320.718 99.6988 320.089C99.2186 319.461 99.3405 318.562 99.9687 318.081C100.597 317.601 101.495 317.721 101.977 318.351C102.456 318.981 102.335 319.879 101.707 320.359Z" fill="#A61C57"/>
<path d="M109.207 329.604C108.435 330.193 107.333 330.045 106.743 329.273C106.154 328.501 106.302 327.398 107.074 326.809C107.846 326.22 108.949 326.368 109.538 327.14C110.126 327.91 109.978 329.013 109.207 329.604Z" fill="#A61C57"/>
<path d="M115.029 322.961C114.226 323.572 113.08 323.418 112.468 322.617C111.855 321.816 112.008 320.669 112.812 320.056C113.613 319.444 114.759 319.598 115.373 320.4C115.985 321.201 115.83 322.349 115.029 322.961Z" fill="#A61C57"/>
<path d="M131.45 321.964C130.623 322.597 129.442 322.437 128.809 321.61C128.176 320.783 128.336 319.602 129.163 318.969C129.99 318.337 131.171 318.496 131.804 319.323C132.435 320.152 132.277 321.334 131.45 321.964Z" fill="#A61C57"/>
<path d="M138.355 311.939C137.406 312.665 136.048 312.482 135.322 311.533C134.597 310.584 134.78 309.226 135.729 308.5C136.678 307.775 138.036 307.958 138.761 308.907C139.487 309.858 139.305 311.215 138.355 311.939Z" fill="#A61C57"/>
<path d="M142.538 296.157C141.826 296.701 140.807 296.564 140.263 295.852C139.719 295.139 139.855 294.121 140.568 293.577C141.28 293.033 142.299 293.169 142.843 293.881C143.387 294.594 143.251 295.613 142.538 296.157Z" fill="#A61C57"/>
<path d="M141.304 281.506C140.63 282.019 139.667 281.892 139.153 281.218C138.64 280.545 138.769 279.583 139.441 279.068C140.114 278.554 141.077 278.682 141.591 279.355C142.107 280.029 141.977 280.992 141.304 281.506Z" fill="#A61C57"/>
<path d="M137.273 269.581C136.43 270.224 135.227 270.063 134.583 269.222C133.94 268.378 134.101 267.176 134.944 266.533C135.787 265.89 136.99 266.051 137.634 266.893C138.277 267.733 138.116 268.939 137.273 269.581Z" fill="#A61C57"/>
<path d="M115.82 264.284C114.858 265.019 113.481 264.835 112.746 263.872C112.011 262.91 112.195 261.533 113.158 260.798C114.12 260.063 115.497 260.247 116.232 261.211C116.966 262.171 116.782 263.548 115.82 264.284Z" fill="#A61C57"/>
<path d="M108.255 259.389C107.496 259.968 106.411 259.823 105.832 259.064C105.253 258.306 105.398 257.22 106.157 256.641C106.916 256.062 108.001 256.207 108.58 256.966C109.159 257.725 109.013 258.809 108.255 259.389Z" fill="#A61C57"/>
<path d="M98.2694 267.831C97.2247 268.63 95.7317 268.428 94.9351 267.385C94.137 266.34 94.3387 264.847 95.382 264.05C96.4267 263.252 97.9198 263.454 98.7164 264.497C99.5144 265.542 99.3142 267.033 98.2694 267.831Z" fill="#A61C57"/>
<path d="M129.916 263.107C129.243 263.621 128.279 263.493 127.766 262.82C127.252 262.146 127.381 261.184 128.053 260.669C128.726 260.156 129.69 260.283 130.203 260.957C130.717 261.63 130.588 262.592 129.916 263.107Z" fill="#A61C57"/>
<path d="M90.1294 279.538C89.4126 280.087 88.3867 279.949 87.8368 279.231C87.2868 278.512 87.4261 277.488 88.1444 276.938C88.8626 276.391 89.887 276.527 90.437 277.246C90.9854 277.965 90.8476 278.991 90.1294 279.538Z" fill="#A61C57"/>
<path d="M139.655 287.725C138.896 288.304 137.811 288.159 137.232 287.4C136.653 286.641 136.798 285.555 137.557 284.976C138.316 284.398 139.401 284.543 139.98 285.302C140.559 286.06 140.414 287.146 139.655 287.725Z" fill="#A61C57"/>
<path d="M135.511 304.652C134.838 305.166 133.874 305.038 133.361 304.365C132.847 303.692 132.975 302.728 133.648 302.215C134.321 301.701 135.285 301.829 135.798 302.502C136.315 303.175 136.186 304.137 135.511 304.652Z" fill="#A61C57"/>
<path d="M119.235 299.239C114.811 302.618 108.485 301.768 105.107 297.345C101.729 292.919 102.576 286.596 107 283.216C111.424 279.837 117.751 280.687 121.129 285.11C124.507 289.536 123.658 295.861 119.235 299.239Z" fill="white"/>
<path d="M117.664 297.182C114.374 299.694 109.674 299.063 107.161 295.775C104.65 292.485 105.279 287.784 108.569 285.272C111.858 282.761 116.558 283.392 119.07 286.681C121.583 289.969 120.953 294.671 117.664 297.182Z" fill="#A61C57"/>
<path d="M116.336 295.443C114.007 297.22 110.68 296.775 108.901 294.447C107.124 292.118 107.571 288.79 109.896 287.012C112.225 285.235 115.552 285.68 117.331 288.008C119.112 290.337 118.665 293.665 116.336 295.443Z" fill="#6B0D2E"/>
<path d="M108.905 289.379C108.387 289.775 107.645 289.676 107.248 289.156C106.852 288.638 106.951 287.895 107.472 287.498C107.99 287.102 108.733 287.201 109.129 287.722C109.525 288.24 109.426 288.983 108.905 289.379Z" fill="#A61C57"/>
<path d="M111.095 284.462C110.577 284.858 109.834 284.759 109.437 284.24C109.04 283.722 109.139 282.979 109.66 282.582C110.178 282.186 110.921 282.285 111.317 282.806C111.715 283.323 111.615 284.064 111.095 284.462Z" fill="#A61C57"/>
<path d="M115.836 286.863C115.318 287.259 114.575 287.16 114.178 286.639C113.782 286.121 113.881 285.378 114.402 284.982C114.92 284.586 115.663 284.685 116.059 285.206C116.454 285.725 116.354 286.467 115.836 286.863Z" fill="#C4246B"/>
<path d="M118.861 285.881C118.343 286.277 117.6 286.178 117.202 285.659C116.806 285.141 116.905 284.398 117.424 284C117.942 283.604 118.685 283.703 119.083 284.222C119.479 284.743 119.379 285.484 118.861 285.881Z" fill="#A61C57"/>
<path d="M116.472 284.415C115.954 284.811 115.213 284.711 114.815 284.192C114.419 283.674 114.518 282.931 115.039 282.535C115.56 282.139 116.3 282.237 116.696 282.758C117.092 283.276 116.993 284.019 116.472 284.415Z" fill="#891542"/>
<path d="M113.897 283.906C113.379 284.302 112.636 284.203 112.238 283.684C111.842 283.166 111.941 282.423 112.462 282.027C112.98 281.631 113.723 281.729 114.12 282.249C114.515 282.768 114.415 283.51 113.897 283.906Z" fill="#891542"/>
<path d="M117.445 288.971C116.927 289.367 116.184 289.269 115.787 288.751C115.391 288.233 115.49 287.49 116.009 287.092C116.529 286.695 117.27 286.795 117.667 287.316C118.063 287.834 117.964 288.577 117.445 288.971Z" fill="#891542"/>
<path d="M121.316 290.878C120.798 291.274 120.055 291.175 119.659 290.654C119.263 290.136 119.361 289.393 119.881 288.996C120.399 288.6 121.142 288.698 121.538 289.219C121.934 289.74 121.834 290.482 121.316 290.878Z" fill="#891542"/>
<path d="M122.078 293.485C121.56 293.881 120.817 293.783 120.421 293.262C120.024 292.744 120.123 292.001 120.644 291.605C121.162 291.209 121.905 291.307 122.301 291.828C122.696 292.348 122.596 293.089 122.078 293.485Z" fill="#A61C57"/>
<path d="M121.11 296.453C120.592 296.849 119.849 296.75 119.451 296.231C119.055 295.713 119.154 294.97 119.675 294.574C120.193 294.177 120.936 294.276 121.33 294.796C121.728 295.315 121.629 296.055 121.11 296.453Z" fill="#891542"/>
<path d="M119.128 298.394C118.61 298.79 117.867 298.692 117.469 298.172C117.073 297.654 117.172 296.911 117.693 296.515C118.211 296.119 118.954 296.218 119.351 296.737C119.746 297.256 119.646 297.998 119.128 298.394Z" fill="#A61C57"/>
<path d="M120.158 288.208C119.64 288.604 118.897 288.506 118.501 287.985C118.105 287.467 118.204 286.724 118.723 286.329C119.241 285.933 119.984 286.032 120.382 286.551C120.775 287.069 120.676 287.812 120.158 288.208Z" fill="#C4246B"/>
<path d="M118.72 291.373C118.202 291.769 117.459 291.67 117.062 291.151C116.665 290.633 116.764 289.89 117.285 289.494C117.803 289.098 118.546 289.196 118.942 289.717C119.338 290.235 119.238 290.977 118.72 291.373Z" fill="#C4246B"/>
<path d="M119.588 294.121C119.07 294.517 118.327 294.418 117.931 293.897C117.535 293.379 117.633 292.636 118.153 292.239C118.671 291.843 119.414 291.941 119.81 292.462C120.206 292.983 120.106 293.725 119.588 294.121Z" fill="#C4246B"/>
<path d="M114.728 297.831C114.21 298.227 113.467 298.129 113.071 297.608C112.675 297.09 112.774 296.347 113.292 295.951C113.81 295.554 114.553 295.653 114.95 296.173C115.348 296.692 115.248 297.433 114.728 297.831Z" fill="#891542"/>
<path d="M117.389 296.119C116.871 296.515 116.128 296.416 115.732 295.895C115.336 295.377 115.435 294.635 115.954 294.237C116.472 293.841 117.215 293.939 117.611 294.46C118.009 294.98 117.909 295.721 117.389 296.119Z" fill="#A61C57"/>
<path d="M116.532 299.609C116.014 300.005 115.271 299.906 114.873 299.387C114.477 298.869 114.576 298.126 115.095 297.728C115.613 297.332 116.356 297.431 116.754 297.95C117.15 298.471 117.051 299.211 116.532 299.609Z" fill="#C4246B"/>
<path d="M108.952 286.37C108.434 286.766 107.691 286.667 107.293 286.148C106.897 285.63 106.996 284.887 107.517 284.491C108.035 284.094 108.778 284.193 109.174 284.711C109.57 285.232 109.471 285.972 108.952 286.37Z" fill="#C4246B"/>
<path d="M113.18 286.355C112.662 286.751 111.919 286.652 111.523 286.132C111.127 285.614 111.226 284.871 111.745 284.473C112.263 284.077 113.006 284.176 113.402 284.696C113.8 285.216 113.701 285.959 113.18 286.355Z" fill="#A61C57"/>
<path d="M111.241 288.067C110.723 288.463 109.981 288.365 109.584 287.847C109.188 287.329 109.287 286.586 109.806 286.188C110.324 285.792 111.067 285.891 111.465 286.41C111.861 286.928 111.761 287.673 111.241 288.067Z" fill="#891542"/>
<path d="M110.406 291.68C109.886 292.078 109.145 291.978 108.749 291.46C108.352 290.942 108.451 290.199 108.971 289.801C109.489 289.405 110.232 289.504 110.628 290.025C111.025 290.541 110.927 291.284 110.406 291.68Z" fill="#891542"/>
<path d="M112.855 290.99C112.337 291.386 111.594 291.287 111.197 290.768C110.8 290.25 110.899 289.507 111.42 289.111C111.938 288.715 112.681 288.813 113.079 289.333C113.473 289.852 113.373 290.594 112.855 290.99Z" fill="#C4246B"/>
<path d="M114.129 292.818C113.668 293.169 113.009 293.082 112.655 292.621C112.304 292.159 112.392 291.499 112.852 291.146C113.315 290.794 113.974 290.884 114.326 291.344C114.68 291.805 114.591 292.464 114.129 292.818Z" fill="#891542"/>
<path d="M112.073 297.204C111.555 297.6 110.812 297.502 110.415 296.982C110.018 296.464 110.117 295.721 110.638 295.325C111.156 294.929 111.899 295.028 112.297 295.547C112.69 296.065 112.591 296.808 112.073 297.204Z" fill="#A61C57"/>
<path d="M109.537 295.832C109.019 296.228 108.276 296.129 107.88 295.608C107.483 295.09 107.582 294.347 108.103 293.951C108.621 293.555 109.364 293.654 109.76 294.175C110.155 294.694 110.055 295.436 109.537 295.832Z" fill="#891542"/>
<path d="M108.344 293.324C107.826 293.72 107.083 293.622 106.685 293.102C106.289 292.584 106.388 291.841 106.909 291.445C107.427 291.049 108.17 291.148 108.567 291.667C108.963 292.185 108.863 292.927 108.344 293.324Z" fill="#C4246B"/>
<path d="M111.662 294.095C111.144 294.491 110.401 294.392 110.004 293.873C109.608 293.355 109.706 292.612 110.227 292.216C110.745 291.82 111.488 291.918 111.884 292.439C112.28 292.957 112.182 293.7 111.662 294.095Z" fill="#A61C57"/>
<path d="M106.474 290.563C105.956 290.959 105.213 290.861 104.815 290.341C104.419 289.823 104.518 289.08 105.038 288.684C105.557 288.288 106.299 288.387 106.696 288.905C107.092 289.425 106.992 290.167 106.474 290.563Z" fill="#A61C57"/>
<path d="M106.593 288.172C106.075 288.568 105.332 288.469 104.935 287.948C104.539 287.43 104.638 286.687 105.157 286.29C105.675 285.894 106.418 285.992 106.815 286.513C107.211 287.034 107.111 287.776 106.593 288.172Z" fill="#C4246B"/>
<path d="M105.967 293.583C105.449 293.979 104.706 293.88 104.31 293.359C103.914 292.841 104.013 292.098 104.534 291.702C105.052 291.306 105.794 291.405 106.191 291.926C106.585 292.445 106.485 293.187 105.967 293.583Z" fill="#891542"/>
<path d="M106.706 296.393C106.188 296.789 105.445 296.691 105.049 296.17C104.652 295.652 104.751 294.909 105.271 294.511C105.789 294.115 106.532 294.214 106.928 294.735C107.324 295.256 107.224 295.997 106.706 296.393Z" fill="#A61C57"/>
<path d="M108.759 298.498C108.241 298.895 107.498 298.796 107.102 298.275C106.706 297.757 106.804 297.014 107.324 296.616C107.842 296.22 108.585 296.319 108.981 296.84C109.377 297.361 109.278 298.104 108.759 298.498Z" fill="#891542"/>
<path d="M111.241 299.803C110.723 300.199 109.981 300.1 109.583 299.581C109.187 299.063 109.286 298.32 109.805 297.922C110.323 297.526 111.066 297.625 111.462 298.146C111.86 298.665 111.759 299.407 111.241 299.803Z" fill="#C4246B"/>
<path d="M113.987 300.404C113.469 300.8 112.726 300.701 112.33 300.18C111.934 299.662 112.032 298.919 112.553 298.523C113.071 298.127 113.814 298.226 114.21 298.747C114.606 299.265 114.506 300.006 113.987 300.404Z" fill="#A61C57"/>
<path d="M114.698 295.351C114.18 295.747 113.437 295.649 113.041 295.128C112.645 294.61 112.743 293.867 113.263 293.472C113.781 293.076 114.524 293.175 114.921 293.694C115.316 294.214 115.216 294.955 114.698 295.351Z" fill="#C4246B"/>
<path d="M116.945 293.484C116.427 293.88 115.684 293.781 115.288 293.261C114.892 292.743 114.991 292 115.512 291.603C116.03 291.207 116.773 291.306 117.167 291.825C117.564 292.346 117.463 293.088 116.945 293.484Z" fill="#891542"/>
<path d="M115.847 291.013C115.329 291.409 114.586 291.31 114.19 290.789C113.794 290.271 113.893 289.529 114.412 289.134C114.93 288.738 115.673 288.836 116.069 289.354C116.465 289.875 116.366 290.618 115.847 291.013Z" fill="#A61C57"/>
<path d="M114.088 288.868C113.57 289.264 112.828 289.166 112.431 288.645C112.035 288.127 112.134 287.384 112.653 286.989C113.171 286.593 113.914 286.692 114.31 287.21C114.707 287.731 114.609 288.472 114.088 288.868Z" fill="#891542"/>
</svg>
