<svg width="134" height="134" viewBox="0 0 134 134" fill="none" xmlns="http://www.w3.org/2000/svg">
<path d="M133.591 100.108C133.591 100.108 128.537 88.249 114.925 82.815C101.313 77.381 86.6289 81.361 86.6289 81.361C86.6289 81.361 94.5359 94.359 108.148 99.793C121.759 105.227 133.591 100.108 133.591 100.108Z" fill="#A5BF49"/>
<path d="M119.77 94.591C119.77 94.591 116.203 86.222 106.598 82.388C96.9919 78.553 86.6289 81.362 86.6289 81.362C86.6289 81.362 92.2089 90.535 101.815 94.369C111.42 98.204 119.77 94.591 119.77 94.591Z" fill="#92B04A"/>
<path d="M104.405 132.468C104.405 132.468 108.519 120.251 101.968 107.14C95.4169 94.029 81.805 87.233 81.805 87.233C81.805 87.233 79.064 102.198 85.614 115.31C92.166 128.421 104.405 132.468 104.405 132.468Z" fill="#A5BF49"/>
<path d="M97.754 119.155C97.754 119.155 100.657 110.534 96.034 101.281C91.411 92.028 81.805 87.233 81.805 87.233C81.805 87.233 79.871 97.794 84.493 107.047C89.115 116.3 97.754 119.155 97.754 119.155Z" fill="#92B04A"/>
<path d="M5.11193 133.07C5.11193 133.07 17.8639 131.18 26.5639 119.385C35.2649 107.59 35.1289 92.377 35.1289 92.377C35.1289 92.377 20.5529 96.739 11.8529 108.533C3.15193 120.328 5.11193 133.07 5.11193 133.07Z" fill="#A5BF49"/>
<path d="M13.9459 121.094C13.9459 121.094 22.9449 119.761 29.0849 111.437C35.2249 103.113 35.1289 92.377 35.1289 92.377C35.1289 92.377 24.8429 95.455 18.7029 103.779C12.5629 112.102 13.9459 121.094 13.9459 121.094Z" fill="#92B04A"/>
<path d="M67.939 35.368C78.023 44.421 78.86 59.934 69.807 70.019C60.754 80.104 45.241 80.94 35.156 71.887C25.072 62.834 24.235 47.321 33.288 37.236C42.341 27.152 57.854 26.316 67.939 35.368Z" fill="#A61C57"/>
<mask id="mask0_207_1106" style="mask-type:luminance" maskUnits="userSpaceOnUse" x="6" y="11" width="43" height="41">
<path d="M48.853 49.994C47.903 48.444 47.269 42.972 47.288 36.27C47.311 28.103 44.932 19.153 36.375 15.002C29.988 11.903 22.73 12.426 15.655 11.853C15.655 11.853 13.343 15.564 13.226 19.227C9.59601 19.737 6.15601 22.435 6.15601 22.435C7.48701 29.408 7.74701 36.68 11.515 42.697C16.563 50.758 25.716 52.161 33.834 51.26C40.495 50.52 46.003 50.563 47.646 51.34L48.853 49.994Z" fill="white"/>
</mask>
<g mask="url(#mask0_207_1106)">
<path d="M48.853 49.994C47.903 48.444 47.269 42.972 47.288 36.27C47.311 28.103 44.932 19.153 36.375 15.002C29.988 11.903 22.73 12.426 15.655 11.853C15.655 11.853 13.343 15.564 13.226 19.227C9.59601 19.737 6.15601 22.435 6.15601 22.435C7.48701 29.408 7.74701 36.68 11.515 42.697C16.563 50.758 25.716 52.161 33.834 51.26C40.495 50.52 46.003 50.563 47.646 51.34L48.853 49.994Z" fill="white"/>
<path d="M48.739 50.12C47.967 48.861 47.452 44.416 47.468 38.972C47.487 32.338 45.554 25.067 38.603 21.695C33.415 19.178 27.519 19.602 21.771 19.137C21.771 19.137 19.893 22.151 19.798 25.127C16.849 25.541 14.054 27.733 14.054 27.733C15.135 33.397 15.347 39.305 18.407 44.193C22.507 50.741 29.943 51.881 36.537 51.149C41.948 50.548 46.422 50.583 47.757 51.214L48.739 50.12Z" fill="#F6DCEF"/>
</g>
<mask id="mask1_207_1106" style="mask-type:luminance" maskUnits="userSpaceOnUse" x="6" y="11" width="43" height="41">
<path d="M48.853 49.994C47.903 48.444 47.269 42.972 47.288 36.27C47.311 28.103 44.932 19.153 36.375 15.002C29.988 11.903 22.73 12.426 15.655 11.853C15.655 11.853 13.343 15.564 13.226 19.227C9.59601 19.737 6.15601 22.435 6.15601 22.435C7.48701 29.408 7.74701 36.68 11.515 42.697C16.563 50.758 25.716 52.161 33.834 51.26C40.495 50.52 46.003 50.563 47.646 51.34L48.853 49.994Z" fill="white"/>
</mask>
<g mask="url(#mask1_207_1106)">
<path d="M48.5259 50.358C48.0489 49.61 47.0079 46.428 46.9089 43.259C46.7889 39.397 45.5129 35.127 41.3709 33.027C41.2599 32.971 41.1369 32.915 41.0019 32.859C33.5719 29.78 25.9049 38.321 29.7649 45.376C29.8349 45.505 29.9039 45.621 29.9719 45.725C32.5049 49.617 36.8879 50.427 40.7399 50.131C43.9009 49.888 47.1769 50.581 47.9719 50.975L48.5259 50.358Z" fill="#E89DD5"/>
</g>
<mask id="mask2_207_1106" style="mask-type:luminance" maskUnits="userSpaceOnUse" x="0" y="50" width="49" height="40">
<path d="M47.2589 55.068C45.4909 55.492 40.0919 54.405 33.7239 52.316C25.9639 49.77 16.7169 49.267 10.1239 56.122C5.20393 61.239 3.45795 68.303 0.725952 74.855C0.725952 74.855 3.54095 78.201 6.98895 79.444C6.35195 83.054 7.85495 87.159 7.85495 87.159C14.898 88.048 21.8949 90.047 28.7809 88.324C38.0069 86.014 42.17 77.742 43.821 69.744C45.176 63.18 46.9179 57.955 48.1659 56.633L47.2589 55.068Z" fill="white"/>
</mask>
<g mask="url(#mask2_207_1106)">
<path d="M47.2589 55.068C45.4909 55.492 40.0919 54.405 33.7239 52.316C25.9639 49.77 16.7169 49.267 10.1239 56.122C5.20393 61.239 3.45795 68.303 0.725952 74.855C0.725952 74.855 3.54095 78.201 6.98895 79.444C6.35195 83.054 7.85495 87.159 7.85495 87.159C14.898 88.048 21.8949 90.047 28.7809 88.324C38.0069 86.014 42.17 77.742 43.821 69.744C45.176 63.18 46.9179 57.955 48.1659 56.633L47.2589 55.068Z" fill="white"/>
<path d="M47.3439 55.215C45.9079 55.56 41.5219 54.676 36.3489 52.979C30.0449 50.911 22.5339 50.502 17.1779 56.071C13.1809 60.227 11.7629 65.966 9.54395 71.289C9.54395 71.289 11.83 74.007 14.631 75.017C14.114 77.949 15.334 81.285 15.334 81.285C21.055 82.007 26.7389 83.631 32.3329 82.231C39.8279 80.355 43.2089 73.635 44.5509 67.137C45.6519 61.805 47.0669 57.56 48.0799 56.486L47.3439 55.215Z" fill="#F6DCEF"/>
</g>
<mask id="mask3_207_1106" style="mask-type:luminance" maskUnits="userSpaceOnUse" x="0" y="50" width="49" height="40">
<path d="M47.2589 55.068C45.4909 55.492 40.0919 54.405 33.7239 52.316C25.9639 49.77 16.7169 49.267 10.1239 56.122C5.20393 61.239 3.45795 68.303 0.725952 74.855C0.725952 74.855 3.54095 78.201 6.98895 79.444C6.35195 83.054 7.85495 87.159 7.85495 87.159C14.898 88.048 21.8949 90.047 28.7809 88.324C38.0069 86.014 42.17 77.742 43.821 69.744C45.176 63.18 46.9179 57.955 48.1659 56.633L47.2589 55.068Z" fill="white"/>
</mask>
<g mask="url(#mask3_207_1106)">
<path d="M47.504 55.492C46.645 55.715 43.297 55.722 40.253 54.836C36.543 53.757 32.088 53.651 28.81 56.942C28.723 57.03 28.631 57.13 28.536 57.241C23.311 63.356 29.065 73.287 36.968 71.796C37.112 71.769 37.244 71.739 37.364 71.707C41.849 70.501 43.973 66.582 44.882 62.827C45.628 59.746 47.299 56.844 47.92 56.21L47.504 55.492Z" fill="#E89DD5"/>
</g>
<mask id="mask4_207_1106" style="mask-type:luminance" maskUnits="userSpaceOnUse" x="39" y="57" width="39" height="52">
<path d="M51.5919 58.152C51.4489 59.964 48.7459 64.764 44.7919 70.174C39.9729 76.768 36.6369 85.406 41.1189 93.795C44.4649 100.056 50.6439 103.899 56.0309 108.522C56.0309 108.522 60.0829 106.879 62.3309 103.984C65.5669 105.705 69.9369 105.545 69.9369 105.545C72.9589 99.122 77.0229 93.085 77.5109 86.003C78.1659 76.515 71.5839 69.999 64.4879 65.957C58.6639 62.64 54.2329 59.368 53.3609 57.773L51.5919 58.152Z" fill="white"/>
</mask>
<g mask="url(#mask4_207_1106)">
<path d="M51.5919 58.152C51.4489 59.964 48.7459 64.764 44.7919 70.174C39.9729 76.768 36.6369 85.406 41.1189 93.795C44.4649 100.056 50.6439 103.899 56.0309 108.522C56.0309 108.522 60.0829 106.879 62.3309 103.984C65.5669 105.705 69.9369 105.545 69.9369 105.545C72.9589 99.122 77.0229 93.085 77.5109 86.003C78.1659 76.515 71.5839 69.999 64.4879 65.957C58.6639 62.64 54.2329 59.368 53.3609 57.773L51.5919 58.152Z" fill="white"/>
<path d="M51.7579 58.117C51.6419 59.589 49.446 63.488 46.234 67.883C42.319 73.239 39.6089 80.257 43.2499 87.071C45.9679 92.157 50.987 95.279 55.364 99.034C55.364 99.034 58.6549 97.699 60.4809 95.347C63.1099 96.745 66.6589 96.615 66.6589 96.615C69.1139 91.397 72.415 86.493 72.812 80.74C73.344 73.032 67.9969 67.74 62.2329 64.456C57.5019 61.761 53.9029 59.104 53.1939 57.808L51.7579 58.117Z" fill="#F6DCEF"/>
</g>
<mask id="mask5_207_1106" style="mask-type:luminance" maskUnits="userSpaceOnUse" x="39" y="57" width="39" height="52">
<path d="M51.5919 58.152C51.4489 59.964 48.7459 64.764 44.7919 70.174C39.9729 76.768 36.6369 85.406 41.1189 93.795C44.4649 100.056 50.6439 103.899 56.0309 108.522C56.0309 108.522 60.0829 106.879 62.3309 103.984C65.5669 105.705 69.9369 105.545 69.9369 105.545C72.9589 99.122 77.0229 93.085 77.5109 86.003C78.1659 76.515 71.5839 69.999 64.4879 65.957C58.6639 62.64 54.2329 59.368 53.3609 57.773L51.5919 58.152Z" fill="white"/>
</mask>
<g mask="url(#mask5_207_1106)">
<path d="M52.0709 58.05C52.0169 58.936 50.9889 62.123 49.2059 64.744C47.0329 67.938 45.5559 72.143 47.6729 76.277C47.7289 76.387 47.7958 76.505 47.8728 76.63C52.0738 83.488 63.2969 81.085 64.3209 73.108C64.3399 72.963 64.3519 72.828 64.3589 72.704C64.5969 68.066 61.5279 64.835 58.2369 62.81C55.5369 61.149 53.2938 58.663 52.8818 57.876L52.0709 58.05Z" fill="#E89DD5"/>
</g>
<mask id="mask6_207_1106" style="mask-type:luminance" maskUnits="userSpaceOnUse" x="55" y="37" width="52" height="40">
<path d="M55.864 54.984C57.544 55.68 61.273 59.733 65.197 65.166C69.979 71.787 77.164 77.63 86.527 75.958C93.515 74.711 99.08 70.022 105.142 66.327C105.142 66.327 104.831 61.966 102.772 58.933C105.409 56.387 106.607 52.182 106.607 52.182C101.432 47.323 96.946 41.593 90.362 38.94C81.54 35.385 73.31 39.631 67.273 45.131C62.319 49.645 57.838 52.848 56.052 53.185L55.864 54.984Z" fill="white"/>
</mask>
<g mask="url(#mask6_207_1106)">
<path d="M55.864 54.984C57.544 55.68 61.273 59.733 65.197 65.166C69.979 71.787 77.164 77.63 86.527 75.958C93.515 74.711 99.08 70.022 105.142 66.327C105.142 66.327 104.831 61.966 102.772 58.933C105.409 56.387 106.607 52.182 106.607 52.182C101.432 47.323 96.946 41.593 90.362 38.94C81.54 35.385 73.31 39.631 67.273 45.131C62.319 49.645 57.838 52.848 56.052 53.185L55.864 54.984Z" fill="white"/>
<path d="M55.882 54.815C57.246 55.38 60.276 58.673 63.463 63.087C67.348 68.465 73.184 73.211 80.79 71.854C86.467 70.841 90.987 67.032 95.911 64.03C95.911 64.03 95.659 60.487 93.986 58.024C96.128 55.956 97.101 52.54 97.101 52.54C92.897 48.593 89.253 43.938 83.904 41.783C76.738 38.895 70.052 42.344 65.148 46.812C61.123 50.478 57.484 53.081 56.032 53.354L55.882 54.815Z" fill="#F6DCEF"/>
</g>
<mask id="mask7_207_1106" style="mask-type:luminance" maskUnits="userSpaceOnUse" x="55" y="37" width="52" height="40">
<path d="M55.864 54.984C57.544 55.68 61.273 59.733 65.197 65.166C69.979 71.787 77.164 77.63 86.527 75.958C93.515 74.711 99.08 70.022 105.142 66.327C105.142 66.327 104.831 61.966 102.772 58.933C105.409 56.387 106.607 52.182 106.607 52.182C101.432 47.323 96.946 41.593 90.362 38.94C81.54 35.385 73.31 39.631 67.273 45.131C62.319 49.645 57.838 52.848 56.052 53.185L55.864 54.984Z" fill="white"/>
</mask>
<g mask="url(#mask7_207_1106)">
<path d="M55.915 54.497C56.741 54.822 59.454 56.784 61.396 59.29C63.763 62.344 67.305 65.048 71.891 64.312C72.013 64.293 72.146 64.265 72.288 64.231C80.109 62.355 81.291 50.939 74.021 47.5C73.889 47.437 73.764 47.384 73.649 47.339C69.312 45.679 65.29 47.6 62.348 50.104C59.934 52.159 56.876 53.524 56.001 53.672L55.915 54.497Z" fill="#E89DD5"/>
</g>
<mask id="mask8_207_1106" style="mask-type:luminance" maskUnits="userSpaceOnUse" x="55" y="37" width="52" height="40">
<path d="M55.864 54.984C57.544 55.68 61.273 59.733 65.197 65.166C69.979 71.787 77.164 77.63 86.527 75.958C93.515 74.711 99.08 70.022 105.142 66.327C105.142 66.327 104.831 61.966 102.772 58.933C105.409 56.387 106.607 52.182 106.607 52.182C101.432 47.323 96.946 41.593 90.362 38.94C81.54 35.385 73.31 39.631 67.273 45.131C62.319 49.645 57.838 52.848 56.052 53.185L55.864 54.984Z" fill="white"/>
</mask>
<g mask="url(#mask8_207_1106)">
<path d="M55.557 54.572C56.383 54.897 59.096 56.859 61.038 59.365C63.405 62.419 66.947 65.123 71.533 64.387C71.655 64.367 71.788 64.34 71.93 64.306C79.751 62.43 80.934 51.014 73.663 47.575C73.531 47.512 73.406 47.459 73.291 47.414C68.954 45.754 64.932 47.675 61.99 50.179C59.576 52.234 56.518 53.599 55.643 53.747L55.557 54.572Z" fill="#E89DD5"/>
</g>
<mask id="mask9_207_1106" style="mask-type:luminance" maskUnits="userSpaceOnUse" x="45" y="0" width="39" height="50">
<path d="M54.171 49.942C55.352 48.56 60.359 46.266 66.739 44.213C74.513 41.711 82.29 36.683 83.594 27.262C84.568 20.231 81.828 13.489 80.186 6.58199C80.186 6.58199 75.942 5.52999 72.422 6.55099C70.815 3.25699 67.186 0.817993 67.186 0.817993C60.966 4.23799 54.13 6.73399 49.572 12.176C43.465 19.468 44.96 28.607 48.325 36.048C51.087 42.155 52.748 47.406 52.517 49.209L54.171 49.942Z" fill="white"/>
</mask>
<g mask="url(#mask9_207_1106)">
<path d="M54.171 49.942C55.352 48.56 60.359 46.266 66.739 44.213C74.513 41.711 82.29 36.683 83.594 27.262C84.568 20.231 81.828 13.489 80.186 6.58199C80.186 6.58199 75.942 5.52999 72.422 6.55099C70.815 3.25699 67.186 0.817993 67.186 0.817993C60.966 4.23799 54.13 6.73399 49.572 12.176C43.465 19.468 44.96 28.607 48.325 36.048C51.087 42.155 52.748 47.406 52.517 49.209L54.171 49.942Z" fill="white"/>
<path d="M54.016 49.873C54.975 48.75 59.0431 46.887 64.2261 45.219C70.5411 43.187 76.859 39.103 77.918 31.449C78.709 25.737 76.483 20.26 75.15 14.65C75.15 14.65 71.703 13.795 68.843 14.625C67.538 11.949 64.59 9.96802 64.59 9.96802C59.537 12.746 53.984 14.773 50.281 19.194C45.32 25.117 46.534 32.541 49.268 38.586C51.511 43.547 52.861 47.813 52.673 49.277L54.016 49.873Z" fill="#F6DCEF"/>
</g>
<mask id="mask10_207_1106" style="mask-type:luminance" maskUnits="userSpaceOnUse" x="45" y="0" width="39" height="50">
<path d="M54.171 49.942C55.352 48.56 60.359 46.266 66.739 44.213C74.513 41.711 82.29 36.683 83.594 27.262C84.568 20.231 81.828 13.489 80.186 6.58199C80.186 6.58199 75.942 5.52999 72.422 6.55099C70.815 3.25699 67.186 0.817993 67.186 0.817993C60.966 4.23799 54.13 6.73399 49.572 12.176C43.465 19.468 44.96 28.607 48.325 36.048C51.087 42.155 52.748 47.406 52.517 49.209L54.171 49.942Z" fill="white"/>
</mask>
<g mask="url(#mask10_207_1106)">
<path d="M53.7239 49.743C54.2879 49.058 56.9929 47.084 59.9759 46.012C63.6109 44.705 67.2779 42.172 67.9959 37.583C68.0149 37.461 68.0299 37.326 68.0419 37.18C68.6749 29.162 58.1829 24.51 52.6649 30.361C52.5649 30.468 52.4749 30.569 52.3969 30.666C49.4779 34.278 50.0619 38.697 51.5339 42.268C52.7419 45.199 53.0949 48.529 52.9659 49.407L53.7239 49.743Z" fill="#E89DD5"/>
</g>
<path d="M48.268 51.554C44.955 50.168 41.6579 48.734 38.3059 47.443C36.3359 46.685 34.2939 46.143 32.2409 45.663C30.2719 45.203 28.3729 45.5 26.4389 45.117C25.7629 44.983 25.487 46.019 26.165 46.154C29.332 46.782 32.4389 46.728 35.6359 47.667C39.7869 48.885 43.7549 50.821 47.7399 52.488C48.3699 52.751 48.905 51.821 48.268 51.554Z" fill="white"/>
<path d="M51.3059 52.782C43.9029 48.531 39.5629 43.31 39.3259 34.461C39.3079 33.77 38.2349 33.772 38.2529 34.463C38.4999 43.714 43.0089 49.255 50.7779 53.716C51.3779 54.06 51.9059 53.126 51.3059 52.782Z" fill="white"/>
<path d="M52.0039 53.587C45.4439 49.815 34.3749 52.127 28.5899 56.349C28.0369 56.753 28.5809 57.678 29.1409 57.269C34.6059 53.281 45.2509 50.94 51.4759 54.52C52.0759 54.866 52.6039 53.932 52.0039 53.587Z" fill="white"/>
<path d="M50.8919 53.231C42.8369 56.733 34.7449 60.125 26.3619 62.766C25.7039 62.973 25.9879 64.007 26.6489 63.799C35.1229 61.129 43.3029 57.69 51.4439 54.151C52.0749 53.876 51.5179 52.958 50.8919 53.231Z" fill="white"/>
<path d="M50.6938 53.527C46.7978 60.214 41.9409 66.229 34.6699 69.343C34.0369 69.614 34.5939 70.532 35.2209 70.263C42.6499 67.082 47.6488 60.884 51.6278 54.055C51.9758 53.457 51.0428 52.929 50.6938 53.527Z" fill="white"/>
<path d="M51.1049 53.232C49.8449 55.454 50.6479 59.627 50.6919 61.999C50.7859 66.983 51.3789 71.945 52.2089 76.855C52.3239 77.537 53.3569 77.243 53.2419 76.568C52.5159 72.275 52.0479 67.986 51.8219 63.641C51.6979 61.251 50.7659 56.001 52.0369 53.76C52.3799 53.158 51.4469 52.63 51.1049 53.232Z" fill="white"/>
<path d="M51.065 53.319C51.084 55.987 53.309 58.839 54.6 60.986C57.22 65.346 60.534 69.34 63.556 73.424C63.963 73.974 64.888 73.43 64.476 72.873C62.026 69.562 59.5429 66.273 57.1449 62.924C55.4259 60.524 52.16 56.43 52.138 53.317C52.132 52.625 51.06 52.628 51.065 53.319Z" fill="white"/>
<path d="M51.6229 54.476C54.8799 55.868 58.059 57.309 61.023 59.264C64.846 61.785 67.386 65.759 69.833 69.523C70.208 70.101 71.1309 69.553 70.7529 68.972C68.4119 65.369 66.0499 61.952 62.7189 59.191C59.6459 56.644 55.782 55.095 52.152 53.543C51.522 53.274 50.9879 54.204 51.6229 54.476Z" fill="white"/>
<path d="M51.7269 54.7C59.5709 55.922 67.2899 57.658 74.9009 59.913C75.5659 60.11 75.8359 59.072 75.1749 58.876C67.5639 56.621 59.8439 54.885 52.0009 53.663C51.3229 53.557 51.0439 54.593 51.7269 54.7Z" fill="white"/>
<path d="M51.7448 54.37C61.4428 54.184 71.0598 53.56 80.7368 52.741C81.4218 52.683 81.4238 51.61 80.7348 51.668C71.0578 52.487 61.4398 53.111 51.7428 53.297C51.0518 53.31 51.0538 54.383 51.7448 54.37Z" fill="white"/>
<path d="M51.7859 53.577C59.2839 50.49 67.0399 48.978 75.1569 49.043C75.8499 49.049 75.8459 47.976 75.1549 47.97C66.9479 47.905 59.0949 49.416 51.4989 52.544C50.8689 52.803 51.1479 53.84 51.7859 53.577Z" fill="white"/>
<path d="M51.752 54.277C56.314 51.724 59.795 47.812 63.961 44.711C67.401 42.15 70.033 39.684 72.245 35.965C72.599 35.37 71.665 34.843 71.312 35.437C68.917 39.465 65.944 41.905 62.229 44.671C58.445 47.488 55.365 51.028 51.202 53.357C50.597 53.695 51.148 54.615 51.752 54.277Z" fill="white"/>
<path d="M51.2958 53.066C54.4848 51.036 56.2228 47.541 57.9938 44.314C60.0588 40.549 61.7128 36.57 63.1148 32.516C63.3418 31.861 62.3019 31.593 62.0779 32.242C60.8279 35.858 59.3378 39.354 57.6018 42.762C55.8968 46.109 53.9938 50.078 50.7448 52.146C50.1638 52.516 50.7108 53.438 51.2958 53.066Z" fill="white"/>
<path d="M51.8599 53.473C50.0909 49.748 51.7839 45.09 52.2779 41.234C52.7439 37.597 52.1249 34.216 50.8579 30.805C50.6189 30.162 49.5839 30.443 49.8249 31.092C51.7189 36.189 51.3409 40.657 50.4979 45.914C50.0619 48.633 49.7239 51.464 50.9399 54.024C51.2359 54.648 52.1539 54.093 51.8599 53.473Z" fill="white"/>
<path d="M51.3779 53.042C43.7239 49.449 36.2419 44.786 30.2829 38.743C29.7969 38.251 29.0489 39.019 29.5349 39.512C35.5549 45.617 43.1219 50.347 50.8499 53.975C51.4729 54.267 52.0049 53.336 51.3779 53.042Z" fill="white"/>
<path d="M50.969 53.074C52.3 63.125 55.364 72.574 60.202 81.479C60.532 82.086 61.452 81.535 61.122 80.928C56.372 72.185 53.348 62.931 52.042 53.072C51.952 52.396 50.879 52.391 50.969 53.074Z" fill="white"/>
<path d="M52.0579 52.625C45.1449 49.227 43.0819 41.896 44.2959 34.701C44.4099 34.024 43.3739 33.746 43.2589 34.427C41.9669 42.078 44.1739 49.943 51.5299 53.558C52.1479 53.862 52.6789 52.931 52.0579 52.625Z" fill="white"/>
<path d="M49.8509 54.383C48.6569 61.088 46.8978 67.631 44.5678 74.032C44.3308 74.683 45.3709 74.95 45.6049 74.306C47.9349 67.906 49.6938 61.363 50.8878 54.657C51.0088 53.98 49.9729 53.703 49.8509 54.383Z" fill="white"/>
<path d="M51.726 52.362C51.793 49.253 53.5209 46.212 54.7059 43.414C55.8229 40.78 57.0049 38.174 58.2179 35.582C58.5089 34.959 57.578 34.426 57.285 35.054C55.769 38.295 54.321 41.564 52.94 44.864C51.928 47.282 50.71 49.703 50.653 52.364C50.639 53.057 51.712 53.052 51.726 52.362Z" fill="white"/>
<path d="M53.837 75.966C54.37 76.444 54.414 77.264 53.936 77.798C53.458 78.331 52.637 78.375 52.104 77.897C51.571 77.418 51.527 76.598 52.005 76.065C52.484 75.531 53.304 75.487 53.837 75.966Z" fill="#A61C57"/>
<path d="M61.777 80.358C62.342 80.865 62.389 81.734 61.882 82.299C61.375 82.864 60.506 82.911 59.941 82.404C59.376 81.897 59.329 81.028 59.836 80.463C60.343 79.898 61.212 79.851 61.777 80.358Z" fill="#A61C57"/>
<path d="M65.42 71.941C66.038 72.496 66.0889 73.447 65.5339 74.065C64.9789 74.683 64.0279 74.735 63.4099 74.179C62.7919 73.624 62.7409 72.673 63.2959 72.055C63.8509 71.437 64.802 71.386 65.42 71.941Z" fill="#A61C57"/>
<path d="M71.5819 68.306C72.2699 68.923 72.327 69.981 71.709 70.668C71.092 71.356 70.0339 71.412 69.3469 70.795C68.6589 70.178 68.6019 69.12 69.2199 68.433C69.8359 67.745 70.8939 67.688 71.5819 68.306Z" fill="#A61C57"/>
<path d="M76.068 58.246C76.538 58.667 76.577 59.39 76.155 59.859C75.733 60.329 75.011 60.368 74.542 59.946C74.073 59.525 74.034 58.802 74.455 58.333C74.876 57.864 75.599 57.825 76.068 58.246Z" fill="#A61C57"/>
<path d="M82.199 50.998C82.775 51.515 82.823 52.401 82.306 52.977C81.789 53.553 80.903 53.601 80.327 53.084C79.751 52.567 79.703 51.681 80.22 51.105C80.737 50.528 81.623 50.48 82.199 50.998Z" fill="#A61C57"/>
<path d="M76.13 47.422C76.729 47.96 76.778 48.881 76.241 49.48C75.703 50.079 74.782 50.129 74.183 49.591C73.584 49.053 73.534 48.132 74.072 47.533C74.61 46.934 75.531 46.884 76.13 47.422Z" fill="#A61C57"/>
<path d="M72.9131 34.702C73.5301 35.256 73.5821 36.206 73.0271 36.824C72.4731 37.442 71.5231 37.493 70.9051 36.938C70.2871 36.384 70.236 35.434 70.791 34.816C71.346 34.199 72.2961 34.147 72.9131 34.702Z" fill="#A61C57"/>
<path d="M64.034 30.778C64.743 31.414 64.802 32.505 64.165 33.215C63.528 33.924 62.438 33.983 61.729 33.346C61.02 32.709 60.961 31.619 61.598 30.909C62.233 30.201 63.324 30.142 64.034 30.778Z" fill="#A61C57"/>
<path d="M51.045 29.842C51.577 30.319 51.621 31.138 51.144 31.669C50.666 32.201 49.848 32.245 49.317 31.768C48.785 31.29 48.741 30.472 49.218 29.941C49.695 29.409 50.513 29.364 51.045 29.842Z" fill="#A61C57"/>
<path d="M39.7479 32.983C40.2509 33.434 40.292 34.208 39.841 34.711C39.389 35.214 38.616 35.255 38.113 34.804C37.61 34.353 37.5679 33.579 38.0199 33.076C38.4719 32.573 39.2459 32.531 39.7479 32.983Z" fill="#A61C57"/>
<path d="M31.002 37.911C31.631 38.475 31.683 39.443 31.118 40.072C30.553 40.701 29.586 40.753 28.957 40.189C28.328 39.624 28.276 38.657 28.84 38.028C29.405 37.399 30.373 37.346 31.002 37.911Z" fill="#A61C57"/>
<path d="M30.034 55.508C30.753 56.153 30.813 57.259 30.167 57.978C29.522 58.697 28.416 58.756 27.697 58.111C26.978 57.466 26.919 56.36 27.564 55.641C28.209 54.922 29.315 54.862 30.034 55.508Z" fill="#A61C57"/>
<path d="M27.321 62.162C27.888 62.671 27.935 63.543 27.426 64.109C26.917 64.676 26.045 64.723 25.479 64.214C24.912 63.705 24.865 62.833 25.374 62.267C25.882 61.7 26.754 61.653 27.321 62.162Z" fill="#A61C57"/>
<path d="M35.418 68.733C36.198 69.433 36.263 70.633 35.563 71.413C34.863 72.193 33.663 72.258 32.883 71.558C32.103 70.858 32.038 69.658 32.738 68.878C33.438 68.098 34.638 68.033 35.418 68.733Z" fill="#A61C57"/>
<path d="M27.021 44.637C27.524 45.088 27.566 45.862 27.114 46.364C26.663 46.867 25.889 46.909 25.386 46.457C24.883 46.006 24.842 45.232 25.293 44.729C25.744 44.227 26.518 44.186 27.021 44.637Z" fill="#A61C57"/>
<path d="M45.8 73.375C46.336 73.856 46.38 74.68 45.899 75.216C45.418 75.752 44.594 75.796 44.058 75.315C43.522 74.834 43.478 74.01 43.959 73.474C44.44 72.938 45.264 72.894 45.8 73.375Z" fill="#A61C57"/>
<path d="M44.8659 33.352C45.4329 33.861 45.4799 34.733 44.9709 35.3C44.4619 35.867 43.5899 35.914 43.0239 35.405C42.4569 34.896 42.4099 34.024 42.9189 33.458C43.4269 32.89 44.2989 32.843 44.8659 33.352Z" fill="#A61C57"/>
<path d="M58.744 34.087C59.247 34.538 59.289 35.312 58.837 35.815C58.386 36.318 57.612 36.36 57.109 35.908C56.606 35.457 56.565 34.683 57.016 34.18C57.468 33.678 58.242 33.636 58.744 34.087Z" fill="#A61C57"/>
<path d="M56.918 47.646C60.222 50.612 60.496 55.694 57.53 58.998C54.564 62.302 49.482 62.576 46.178 59.61C42.874 56.644 42.6 51.562 45.566 48.258C48.531 44.954 53.614 44.68 56.918 47.646Z" fill="white"/>
<path d="M55.539 49.1819C57.995 51.3859 58.1979 55.1639 55.9939 57.6199C53.7899 60.0759 50.012 60.2789 47.556 58.0749C45.1 55.8709 44.897 52.0929 47.101 49.6369C49.306 47.1809 53.083 46.9769 55.539 49.1819Z" fill="#A61C57"/>
<path d="M54.3741 50.4799C56.1131 52.0409 56.2571 54.7149 54.6961 56.4539C53.1351 58.1929 50.461 58.3369 48.722 56.7759C46.983 55.2149 46.8391 52.5409 48.4001 50.8019C49.9601 49.0629 52.6351 48.9189 54.3741 50.4799Z" fill="#6B0D2E"/>
<path d="M50.724 57.201C51.111 57.549 51.144 58.145 50.796 58.532C50.448 58.919 49.852 58.952 49.465 58.604C49.077 58.256 49.045 57.66 49.393 57.273C49.741 56.886 50.337 56.853 50.724 57.201Z" fill="#A61C57"/>
<path d="M46.546 56.216C46.934 56.564 46.966 57.16 46.618 57.548C46.27 57.935 45.674 57.967 45.286 57.62C44.898 57.272 44.866 56.676 45.214 56.289C45.562 55.9 46.158 55.868 46.546 56.216Z" fill="#A61C57"/>
<path d="M47.725 52.145C48.112 52.493 48.145 53.089 47.797 53.476C47.449 53.864 46.853 53.896 46.466 53.548C46.079 53.2 46.046 52.604 46.394 52.217C46.741 51.829 47.337 51.797 47.725 52.145Z" fill="#C4246B"/>
<path d="M46.5069 49.921C46.8949 50.269 46.927 50.865 46.579 51.252C46.231 51.639 45.6349 51.672 45.2479 51.324C44.8599 50.976 44.828 50.38 45.176 49.992C45.523 49.605 46.1189 49.573 46.5069 49.921Z" fill="#A61C57"/>
<path d="M45.712 52.008C46.099 52.356 46.131 52.952 45.784 53.34C45.436 53.727 44.84 53.759 44.453 53.412C44.065 53.064 44.033 52.468 44.381 52.081C44.728 51.693 45.324 51.66 45.712 52.008Z" fill="#891542"/>
<path d="M45.695 54.103C46.083 54.451 46.115 55.047 45.767 55.434C45.419 55.821 44.823 55.854 44.435 55.506C44.047 55.158 44.015 54.562 44.363 54.175C44.711 53.787 45.307 53.755 45.695 54.103Z" fill="#891542"/>
<path d="M49.138 50.571C49.525 50.919 49.558 51.515 49.21 51.902C48.862 52.29 48.266 52.322 47.879 51.974C47.491 51.626 47.46 51.03 47.807 50.642C48.155 50.255 48.751 50.223 49.138 50.571Z" fill="#891542"/>
<path d="M50.0569 47.255C50.4449 47.603 50.4769 48.199 50.1289 48.586C49.7809 48.974 49.1849 49.006 48.7969 48.658C48.4099 48.31 48.3769 47.7141 48.7249 47.3271C49.0739 46.9391 49.6699 46.907 50.0569 47.255Z" fill="#891542"/>
<path d="M51.9879 46.271C52.3759 46.619 52.4079 47.215 52.0599 47.602C51.7119 47.989 51.1159 48.022 50.7289 47.674C50.3409 47.326 50.3089 46.73 50.6569 46.342C51.0049 45.955 51.6009 45.923 51.9879 46.271Z" fill="#A61C57"/>
<path d="M54.456 46.589C54.843 46.937 54.876 47.533 54.528 47.92C54.18 48.307 53.584 48.34 53.196 47.992C52.809 47.644 52.776 47.048 53.124 46.661C53.473 46.273 54.069 46.241 54.456 46.589Z" fill="#891542"/>
<path d="M56.272 47.855C56.659 48.203 56.691 48.799 56.344 49.186C55.996 49.574 55.4 49.606 55.013 49.258C54.625 48.91 54.593 48.314 54.941 47.927C55.288 47.539 55.884 47.507 56.272 47.855Z" fill="#A61C57"/>
<path d="M48.1369 48.559C48.5239 48.907 48.557 49.503 48.209 49.891C47.861 50.278 47.2649 50.311 46.8779 49.963C46.4899 49.615 46.458 49.019 46.806 48.632C47.154 48.244 47.7499 48.211 48.1369 48.559Z" fill="#C4246B"/>
<path d="M50.831 49.216C51.219 49.564 51.251 50.16 50.903 50.548C50.555 50.935 49.959 50.968 49.571 50.62C49.184 50.272 49.151 49.676 49.499 49.289C49.847 48.901 50.443 48.868 50.831 49.216Z" fill="#C4246B"/>
<path d="M52.855 48.128C53.243 48.476 53.275 49.072 52.927 49.46C52.579 49.848 51.983 49.88 51.595 49.532C51.207 49.184 51.175 48.588 51.523 48.201C51.871 47.813 52.467 47.78 52.855 48.128Z" fill="#C4246B"/>
<path d="M56.4829 51.385C56.8699 51.733 56.9029 52.329 56.5549 52.717C56.2069 53.105 55.6109 53.137 55.2239 52.789C54.8369 52.441 54.8039 51.845 55.1519 51.458C55.4989 51.069 56.0949 51.037 56.4829 51.385Z" fill="#891542"/>
<path d="M54.746 49.554C55.134 49.902 55.1659 50.498 54.8179 50.885C54.4699 51.272 53.874 51.305 53.487 50.957C53.099 50.609 53.067 50.013 53.415 49.625C53.763 49.238 54.359 49.206 54.746 49.554Z" fill="#A61C57"/>
<path d="M57.6079 49.709C57.9959 50.057 58.0279 50.653 57.6799 51.04C57.3319 51.427 56.7359 51.46 56.3479 51.112C55.9599 50.764 55.9279 50.168 56.2759 49.781C56.6249 49.393 57.2209 49.361 57.6079 49.709Z" fill="#C4246B"/>
<path d="M48.359 57.612C48.747 57.96 48.779 58.556 48.431 58.943C48.083 59.33 47.487 59.363 47.099 59.015C46.712 58.667 46.68 58.071 47.027 57.684C47.375 57.296 47.972 57.264 48.359 57.612Z" fill="#C4246B"/>
<path d="M47.72 54.3C48.107 54.648 48.14 55.244 47.792 55.631C47.444 56.019 46.848 56.051 46.461 55.703C46.074 55.355 46.041 54.759 46.389 54.372C46.737 53.984 47.333 53.952 47.72 54.3Z" fill="#A61C57"/>
<path d="M49.35 55.566C49.737 55.914 49.769 56.51 49.422 56.897C49.074 57.285 48.478 57.317 48.09 56.969C47.703 56.621 47.671 56.025 48.018 55.638C48.366 55.25 48.962 55.218 49.35 55.566Z" fill="#891542"/>
<path d="M52.305 55.684C52.692 56.032 52.725 56.628 52.377 57.016C52.029 57.403 51.433 57.436 51.045 57.088C50.658 56.74 50.625 56.144 50.973 55.756C51.321 55.369 51.918 55.336 52.305 55.684Z" fill="#891542"/>
<path d="M51.401 53.869C51.789 54.217 51.821 54.813 51.473 55.2C51.125 55.588 50.529 55.62 50.142 55.272C49.754 54.924 49.722 54.328 50.07 53.941C50.417 53.553 51.013 53.521 51.401 53.869Z" fill="#C4246B"/>
<path d="M52.643 52.598C52.988 52.908 53.016 53.438 52.707 53.782C52.397 54.127 51.867 54.155 51.523 53.846C51.178 53.536 51.15 53.006 51.459 52.662C51.769 52.318 52.299 52.289 52.643 52.598Z" fill="#891542"/>
<path d="M56.386 53.56C56.773 53.908 56.806 54.504 56.458 54.892C56.11 55.28 55.514 55.312 55.127 54.964C54.74 54.616 54.707 54.02 55.055 53.633C55.403 53.244 55.999 53.212 56.386 53.56Z" fill="#A61C57"/>
<path d="M55.687 55.75C56.075 56.098 56.107 56.694 55.759 57.081C55.411 57.468 54.815 57.501 54.428 57.153C54.04 56.805 54.008 56.209 54.356 55.822C54.703 55.434 55.299 55.402 55.687 55.75Z" fill="#891542"/>
<path d="M53.898 57.056C54.285 57.404 54.3179 58 53.9699 58.387C53.6219 58.774 53.026 58.807 52.639 58.459C52.251 58.111 52.2189 57.515 52.5669 57.128C52.9149 56.74 53.511 56.708 53.898 57.056Z" fill="#C4246B"/>
<path d="M54.011 54.342C54.398 54.69 54.431 55.286 54.083 55.674C53.735 56.061 53.139 56.094 52.751 55.746C52.364 55.398 52.332 54.802 52.679 54.414C53.028 54.026 53.624 53.994 54.011 54.342Z" fill="#A61C57"/>
<path d="M52.013 58.9321C52.4 59.2801 52.4319 59.876 52.0849 60.263C51.7369 60.651 51.1409 60.6831 50.7529 60.3351C50.3649 59.9871 50.333 59.391 50.681 59.004C51.03 58.616 51.626 58.5841 52.013 58.9321Z" fill="#A61C57"/>
<path d="M50.122 59.194C50.51 59.542 50.5419 60.138 50.1939 60.526C49.8459 60.914 49.2499 60.946 48.8629 60.598C48.4749 60.25 48.4429 59.654 48.7909 59.266C49.1379 58.878 49.734 58.846 50.122 59.194Z" fill="#C4246B"/>
<path d="M54.454 58.881C54.842 59.229 54.874 59.825 54.526 60.212C54.178 60.599 53.582 60.632 53.194 60.284C52.807 59.936 52.774 59.34 53.122 58.953C53.47 58.565 54.067 58.533 54.454 58.881Z" fill="#891542"/>
<path d="M56.547 57.885C56.935 58.233 56.967 58.829 56.619 59.217C56.271 59.605 55.675 59.637 55.288 59.289C54.9 58.941 54.868 58.345 55.216 57.957C55.564 57.57 56.16 57.538 56.547 57.885Z" fill="#A61C57"/>
<path d="M57.8929 55.964C58.2809 56.312 58.3129 56.908 57.9649 57.295C57.6169 57.683 57.0209 57.715 56.6339 57.367C56.2459 57.019 56.2139 56.423 56.5619 56.036C56.9089 55.648 57.5049 55.616 57.8929 55.964Z" fill="#891542"/>
<path d="M58.546 53.825C58.934 54.173 58.966 54.769 58.618 55.156C58.27 55.543 57.674 55.576 57.286 55.228C56.898 54.88 56.866 54.284 57.214 53.897C57.562 53.509 58.158 53.477 58.546 53.825Z" fill="#C4246B"/>
<path d="M58.609 51.584C58.997 51.932 59.029 52.528 58.681 52.915C58.333 53.302 57.737 53.335 57.35 52.987C56.962 52.639 56.93 52.043 57.278 51.655C57.626 51.268 58.222 51.236 58.609 51.584Z" fill="#A61C57"/>
<path d="M54.545 51.777C54.932 52.125 54.965 52.721 54.617 53.108C54.269 53.495 53.673 53.528 53.286 53.18C52.898 52.832 52.866 52.236 53.214 51.849C53.562 51.462 54.158 51.43 54.545 51.777Z" fill="#C4246B"/>
<path d="M52.747 50.293C53.135 50.641 53.1669 51.237 52.8189 51.624C52.4709 52.012 51.8749 52.044 51.4879 51.696C51.0999 51.348 51.0679 50.752 51.4159 50.365C51.7639 49.977 52.36 49.945 52.747 50.293Z" fill="#891542"/>
<path d="M50.975 51.52C51.363 51.868 51.395 52.464 51.047 52.851C50.699 53.239 50.103 53.271 49.716 52.923C49.328 52.575 49.296 51.979 49.644 51.592C49.992 51.204 50.588 51.172 50.975 51.52Z" fill="#A61C57"/>
<path d="M49.5549 53.216C49.9419 53.564 49.9749 54.16 49.6269 54.548C49.2789 54.935 48.6829 54.968 48.2959 54.62C47.9079 54.272 47.8759 53.676 48.2239 53.289C48.5719 52.9 49.1679 52.868 49.5549 53.216Z" fill="#891542"/>
</svg>
