<svg width="211" height="421" viewBox="0 0 211 421" fill="none" xmlns="http://www.w3.org/2000/svg">
<path d="M381.258 300.321C381.258 300.321 379.781 300.248 377.014 300.111C374.263 299.981 370.194 299.604 365.023 298.951C359.881 298.273 353.646 297.278 346.574 295.71C339.515 294.121 331.553 292.134 323.082 289.277C314.592 286.478 305.478 283.084 296.152 278.764C286.789 274.522 277.209 269.374 267.714 263.382L266.826 262.815L265.748 262.084L264.065 260.91L260.679 258.546C258.402 256.979 256.178 255.393 253.825 253.477C251.516 251.63 249.191 249.77 246.856 247.903C244.659 245.989 242.45 244.067 240.231 242.138C231.443 234.39 222.935 226.262 214.468 218.278C205.975 210.29 197.62 202.344 189.22 194.796C180.856 187.188 172.401 180.146 164.006 173.573C155.457 167.296 147.027 161.376 138.492 156.763C130.08 151.884 121.63 148.222 113.667 145.226C105.634 142.139 98.1665 140.239 91.3334 138.951C84.5287 137.721 78.4842 137.248 73.4865 137.11C68.4847 136.982 64.5325 137.188 61.8424 137.366C59.1522 137.591 57.7146 137.711 57.7146 137.711L57.39 135.592C57.39 135.592 58.8291 135.32 61.5292 134.811C64.2389 134.349 68.2331 133.721 73.3862 133.32C78.5342 132.898 84.8561 132.793 92.0756 133.473C99.2378 134.161 107.469 135.518 115.952 137.944C124.533 140.325 133.772 143.397 143.059 147.732C145.38 148.815 147.771 149.857 150.128 151.023C152.437 152.28 154.772 153.55 157.132 154.834C161.943 157.294 166.433 160.41 171.242 163.266C180.485 169.433 189.911 176.059 198.885 183.342C207.955 190.525 216.915 198.043 225.814 205.424C234.729 212.824 243.722 219.96 252.789 226.472C255.052 228.087 257.304 229.692 259.546 231.292C261.762 232.79 263.966 234.281 266.159 235.763C270.388 238.624 275.659 241.966 279.651 244.517C288.555 250.148 297.293 255.38 305.669 260.261C314.081 265.066 322.125 269.538 329.692 273.46C337.268 277.36 344.293 280.881 350.621 283.856C356.918 286.916 362.517 289.407 367.125 291.566C371.774 293.673 375.428 295.327 377.919 296.455C380.432 297.626 381.773 298.25 381.773 298.25L381.258 300.321Z" fill="#891542"/>
<path d="M243.734 242.469C243.734 242.469 241.924 242.894 238.756 243.638C237.188 244.014 235.274 244.474 232.849 244.891C230.488 245.283 227.803 245.93 224.943 246.233C222.067 246.585 218.983 247.095 215.671 247.284C214.025 247.412 212.334 247.545 210.605 247.679C208.873 247.728 207.102 247.778 205.302 247.829C201.713 248.012 197.986 247.753 194.233 247.698C190.471 247.365 186.662 247.213 182.882 246.608C179.092 246.184 175.352 245.407 171.685 244.692C168.046 243.774 164.453 243.011 161.086 241.832C157.677 240.824 154.487 239.542 151.48 238.324C148.5 237.041 145.733 235.707 143.245 234.385C140.814 232.939 138.5 231.8 136.658 230.428C134.797 229.097 133.077 228.108 131.852 227.009C129.327 224.949 127.884 223.771 127.884 223.771C127.884 223.771 129.452 224.762 132.196 226.5C133.517 227.43 135.35 228.209 137.317 229.285C139.262 230.402 141.679 231.248 144.186 232.36C146.755 233.349 149.579 234.315 152.589 235.202C155.629 236.021 158.815 236.879 162.194 237.446C165.524 238.187 169.061 238.496 172.592 238.95C176.167 239.204 179.771 239.517 183.4 239.482C187.013 239.625 190.639 239.327 194.179 239.219C197.724 238.836 201.203 238.672 204.539 238.089C206.204 237.84 207.844 237.596 209.446 237.356C211.036 237.036 212.59 236.722 214.103 236.42C217.134 235.881 219.94 235.053 222.541 234.415C225.177 233.812 227.388 232.96 229.441 232.371C231.431 231.793 233.291 231.106 234.829 230.533C237.885 229.414 239.63 228.777 239.63 228.777L243.734 242.469Z" fill="#891542"/>
<path d="M212.831 210.966C212.831 210.966 212.573 209.221 212.121 206.168C211.868 204.693 211.682 202.673 211.244 200.776C210.837 198.814 210.375 196.6 209.872 194.185C209.191 191.758 208.519 189.095 207.687 186.306C206.706 183.576 205.897 180.592 204.635 177.659C203.506 174.671 202.186 171.633 200.74 168.573C199.307 165.505 197.739 162.429 196.086 159.369C192.816 153.24 189.163 147.222 185.836 141.482C184.189 138.595 182.598 135.804 181.088 133.159C179.673 130.446 178.248 127.944 177.131 125.513C175.972 123.111 174.912 120.918 174.123 118.899C173.294 116.902 172.541 115.182 172.073 113.7C171.058 110.781 170.48 109.113 170.48 109.113C170.48 109.113 171.265 110.693 172.636 113.454C173.278 114.851 174.241 116.457 175.303 118.31C176.325 120.184 177.643 122.209 179.07 124.409C180.455 126.632 182.175 128.919 183.885 131.382C185.699 133.793 187.612 136.333 189.591 138.964C193.59 144.204 197.998 149.737 202.146 155.585C204.228 158.491 206.259 161.471 208.161 164.477C210.077 167.482 211.878 170.506 213.486 173.527C215.222 176.484 216.504 179.547 217.93 182.368C219.207 185.248 220.305 188.03 221.376 190.582C222.294 193.252 223.138 195.702 223.883 197.87C224.671 200.089 225.03 201.786 225.491 203.304C226.326 206.276 226.802 207.974 226.802 207.974L212.831 210.966Z" fill="#891542"/>
<path d="M146.791 243.184C144.966 251.638 125.63 260.843 110.657 257.961C83.4758 252.727 77.8252 225.792 77.8252 225.792C77.8252 225.792 81.1563 216.779 100.563 218.32C119.967 219.857 149.164 232.197 146.791 243.184Z" fill="#F6DCEF"/>
<path d="M149.739 229.526C151.565 221.071 137.751 204.708 122.925 201.154C96.0061 194.703 79.7432 216.907 79.7432 216.907C79.7432 216.907 79.0587 226.493 97.3707 233.099C115.683 239.705 147.366 240.513 149.739 229.526Z" fill="white"/>
<path d="M151.573 237.174L148.804 249.998C160.032 252.423 165.657 240.216 165.657 240.216C165.657 240.216 165.571 226.775 154.342 224.349L151.573 237.174Z" fill="#891542"/>
<path d="M124.165 231.256C132.562 242.923 140.23 244.991 140.23 244.991C145.912 246.169 155.113 237.94 155.113 237.94C155.113 237.94 150.13 226.647 144.468 225.375C144.468 225.375 136.629 224.092 124.165 231.256Z" fill="#A61C57"/>
<path d="M120.981 254.421C127.724 259.969 150.447 259.53 155.11 237.939C155.11 237.939 141.809 240.373 136.672 240.866C136.672 240.866 129.161 245.808 120.981 254.421Z" fill="#A61C57"/>
<path d="M130.826 208.841C139.259 206.571 159.773 216.347 155.11 237.939C155.11 237.939 143.998 230.234 139.523 227.664C139.523 227.664 134.722 220.061 130.826 208.841Z" fill="#A61C57"/>
<path d="M176.726 139.776C170.165 145.408 149.194 141.064 139.003 129.725C120.502 109.134 132.271 84.2545 132.271 84.2545C132.271 84.2545 140.37 79.0843 154.906 92.0336C169.441 104.984 185.254 132.454 176.726 139.776Z" fill="#F6DCEF"/>
<path d="M187.327 130.674C193.888 125.041 192.766 103.654 183.097 91.8643C165.542 70.4621 139.169 78.3328 139.169 78.3328C139.169 78.3328 132.832 85.5586 143.435 101.884C154.036 118.213 178.797 137.997 187.327 130.674Z" fill="white"/>
<path d="M184.167 137.877L174.214 146.424C181.696 155.14 193.555 148.81 193.555 148.81C193.555 148.81 201.605 138.047 194.122 129.33L184.167 137.877Z" fill="#891542"/>
<path d="M165.901 116.603C165.545 130.974 170.406 137.253 170.406 137.253C174.224 141.625 186.525 140.625 186.525 140.625C186.525 140.625 189.376 128.617 185.631 124.181C185.631 124.181 180.16 118.424 165.901 116.603Z" fill="#A61C57"/>
<path d="M149.371 133.14C151.393 141.634 169.766 155.012 186.526 140.622C186.526 140.622 174.455 134.526 170.064 131.815C170.064 131.815 161.09 131.217 149.371 133.14Z" fill="#A61C57"/>
<path d="M184.75 102.764C192.84 106.049 203.284 126.232 186.524 140.623C186.524 140.623 182.326 127.769 180.31 123.018C180.31 123.018 181.075 114.058 184.75 102.764Z" fill="#A61C57"/>
<path d="M77.0305 142.251C75.9786 150.834 57.5561 161.756 42.3855 160.242C14.8416 157.494 6.77224 131.181 6.77224 131.181C6.77224 131.181 9.27247 121.903 28.7396 121.678C48.2047 121.45 78.3978 131.092 77.0305 142.251Z" fill="#F6DCEF"/>
<path d="M78.7292 128.381C79.7811 119.797 64.5409 104.752 49.4525 102.555C22.0589 98.5705 7.87574 122.158 7.87574 122.158C7.87574 122.158 8.06331 131.766 26.8982 136.686C45.736 141.606 77.3619 139.54 78.7292 128.381Z" fill="white"/>
<path d="M81.2483 135.831L79.6526 148.852C91.0551 150.25 95.5509 137.583 95.5509 137.583C95.5509 137.583 94.2471 124.205 82.8447 122.807L81.2483 135.831Z" fill="#891542"/>
<path d="M53.4162 132.42C62.8378 143.278 70.658 144.642 70.658 144.642C76.4257 145.301 84.8404 136.27 84.8404 136.27C84.8404 136.27 78.8545 125.476 73.0994 124.723C73.0994 124.723 65.1817 124.158 53.4162 132.42Z" fill="#A61C57"/>
<path d="M52.3476 155.779C59.566 160.693 82.1553 158.196 84.8414 136.272C84.8414 136.272 71.8163 139.902 66.7427 140.857C66.7427 140.857 59.7125 146.46 52.3476 155.779Z" fill="#A61C57"/>
<path d="M58.0197 109.495C66.2112 106.471 87.5286 114.349 84.8414 136.272C84.8414 136.272 73.0774 129.603 68.3865 127.451C68.3865 127.451 62.9169 120.316 58.0197 109.495Z" fill="#A61C57"/>
</svg>
