<svg width="167" height="139" viewBox="0 0 167 139" fill="none" xmlns="http://www.w3.org/2000/svg">
<mask id="mask0_207_886" style="mask-type:luminance" maskUnits="userSpaceOnUse" x="118" y="61" width="36" height="28">
<path d="M118.765 81.4641C120.044 81.4531 123.571 83.0541 127.604 85.4941C132.518 88.4671 138.775 90.2771 144.378 86.6241C148.56 83.8971 150.876 79.3331 153.785 75.2761C153.785 75.2761 152.386 72.5381 150.22 71.1401C151.228 68.7671 150.849 65.7161 150.849 65.7161C146.164 63.9911 141.686 61.5131 136.694 61.6031C130.006 61.7241 125.843 66.7331 123.445 71.9521C121.477 76.2351 119.455 79.5401 118.391 80.2481L118.765 81.4641Z" fill="white"/>
</mask>
<g mask="url(#mask0_207_886)">
<path d="M118.765 81.4641C120.044 81.4531 123.571 83.0541 127.604 85.4941C132.518 88.4671 138.775 90.2771 144.378 86.6241C148.56 83.8971 150.876 79.3331 153.785 75.2761C153.785 75.2761 152.386 72.5381 150.22 71.1401C151.228 68.7671 150.849 65.7161 150.849 65.7161C146.164 63.9911 141.686 61.5131 136.694 61.6031C130.006 61.7241 125.843 66.7331 123.445 71.9521C121.477 76.2351 119.455 79.5401 118.391 80.2481L118.765 81.4641Z" fill="white"/>
<path d="M118.73 81.35C119.769 81.341 122.634 82.6421 125.91 84.6241C129.902 87.0401 134.984 88.51 139.536 85.542C142.933 83.327 144.814 79.619 147.178 76.324C147.178 76.324 146.042 74.1 144.282 72.964C145.101 71.037 144.793 68.558 144.793 68.558C140.987 67.157 137.35 65.144 133.295 65.217C127.862 65.316 124.481 69.3851 122.532 73.6241C120.933 77.1031 119.291 79.788 118.427 80.363L118.73 81.35Z" fill="#F6DCEF"/>
</g>
<mask id="mask1_207_886" style="mask-type:luminance" maskUnits="userSpaceOnUse" x="118" y="61" width="36" height="28">
<path d="M118.765 81.4641C120.044 81.4531 123.571 83.0541 127.604 85.4941C132.518 88.4671 138.775 90.2771 144.378 86.6241C148.56 83.8971 150.876 79.3331 153.785 75.2761C153.785 75.2761 152.386 72.5381 150.22 71.1401C151.228 68.7671 150.849 65.7161 150.849 65.7161C146.164 63.9911 141.686 61.5131 136.694 61.6031C130.006 61.7241 125.843 66.7331 123.445 71.9521C121.477 76.2351 119.455 79.5401 118.391 80.2481L118.765 81.4641Z" fill="white"/>
</mask>
<g mask="url(#mask1_207_886)">
<path d="M118.664 81.1352C119.288 81.1182 121.583 81.6441 123.529 82.7331C125.9 84.0601 128.936 84.8382 131.703 83.1032C131.777 83.0572 131.855 83.0032 131.938 82.9422C136.487 79.5802 134.117 71.8631 128.465 71.6331C128.362 71.6291 128.267 71.6281 128.18 71.6311C124.916 71.7471 122.839 74.0962 121.622 76.5252C120.623 78.5182 119.018 80.2422 118.492 80.5782L118.664 81.1352Z" fill="#E89DD5"/>
</g>
<mask id="mask2_207_886" style="mask-type:luminance" maskUnits="userSpaceOnUse" x="118" y="61" width="36" height="28">
<path d="M118.765 81.4641C120.044 81.4531 123.571 83.0541 127.604 85.4941C132.518 88.4671 138.775 90.2771 144.378 86.6241C148.56 83.8971 150.876 79.3331 153.785 75.2761C153.785 75.2761 152.386 72.5381 150.22 71.1401C151.228 68.7671 150.849 65.7161 150.849 65.7161C146.164 63.9911 141.686 61.5131 136.694 61.6031C130.006 61.7241 125.843 66.7331 123.445 71.9521C121.477 76.2351 119.455 79.5401 118.391 80.2481L118.765 81.4641Z" fill="white"/>
</mask>
<g mask="url(#mask2_207_886)">
<path d="M118.453 81.2821C119.077 81.2661 121.372 81.7912 123.318 82.8802C125.689 84.2072 128.725 84.9862 131.492 83.2502C131.566 83.2042 131.644 83.1502 131.727 83.0882C136.276 79.7262 133.906 72.0091 128.254 71.7791C128.151 71.7751 128.056 71.7741 127.969 71.7771C124.705 71.8931 122.628 74.2422 121.411 76.6712C120.412 78.6642 118.807 80.3882 118.282 80.7242L118.453 81.2821Z" fill="#E89DD5"/>
</g>
<mask id="mask3_207_886" style="mask-type:luminance" maskUnits="userSpaceOnUse" x="92" y="92" width="28" height="31">
<path d="M93.067 92.858C93.562 94.037 93.421 97.908 92.695 102.565C91.81 108.24 92.5119 114.715 98.0189 118.512C102.129 121.345 107.231 121.754 112.089 122.905C112.089 122.905 114.091 120.571 114.562 118.037C117.14 118.069 119.819 116.559 119.819 116.559C119.636 111.57 120.228 106.486 118.249 101.903C115.597 95.762 109.383 93.813 103.644 93.576C98.9339 93.381 95.1099 92.766 94.0499 92.051L93.067 92.858Z" fill="white"/>
</mask>
<g mask="url(#mask3_207_886)">
<path d="M93.067 92.858C93.562 94.037 93.421 97.908 92.695 102.565C91.81 108.24 92.5119 114.715 98.0189 118.512C102.129 121.345 107.231 121.754 112.089 122.905C112.089 122.905 114.091 120.571 114.562 118.037C117.14 118.069 119.819 116.559 119.819 116.559C119.636 111.57 120.228 106.486 118.249 101.903C115.597 95.762 109.383 93.813 103.644 93.576C98.9339 93.381 95.1099 92.766 94.0499 92.051L93.067 92.858Z" fill="white"/>
<path d="M93.159 92.783C93.561 93.74 93.447 96.885 92.857 100.668C92.138 105.278 92.708 110.538 97.182 113.622C100.521 115.924 104.665 116.256 108.612 117.191C108.612 117.191 110.238 115.295 110.621 113.236C112.715 113.262 114.891 112.035 114.891 112.035C114.742 107.982 115.223 103.853 113.616 100.129C111.462 95.14 106.414 93.557 101.752 93.365C97.926 93.207 94.8199 92.707 93.9589 92.126L93.159 92.783Z" fill="#F6DCEF"/>
</g>
<mask id="mask4_207_886" style="mask-type:luminance" maskUnits="userSpaceOnUse" x="92" y="92" width="28" height="31">
<path d="M93.067 92.858C93.562 94.037 93.421 97.908 92.695 102.565C91.81 108.24 92.5119 114.715 98.0189 118.512C102.129 121.345 107.231 121.754 112.089 122.905C112.089 122.905 114.091 120.571 114.562 118.037C117.14 118.069 119.819 116.559 119.819 116.559C119.636 111.57 120.228 106.486 118.249 101.903C115.597 95.762 109.383 93.813 103.644 93.576C98.9339 93.381 95.1099 92.766 94.0499 92.051L93.067 92.858Z" fill="white"/>
</mask>
<g mask="url(#mask4_207_886)">
<path d="M93.333 92.6401C93.585 93.2111 93.971 95.5341 93.702 97.7471C93.375 100.444 93.808 103.549 96.464 105.449C96.535 105.5 96.615 105.552 96.703 105.605C101.541 108.536 107.78 103.414 105.846 98.0981C105.811 98.0011 105.775 97.913 105.739 97.834C104.392 94.858 101.431 93.8291 98.722 93.6251C96.499 93.4581 94.295 92.627 93.784 92.269L93.333 92.6401Z" fill="#E89DD5"/>
</g>
<mask id="mask5_207_886" style="mask-type:luminance" maskUnits="userSpaceOnUse" x="139" y="108" width="28" height="31">
<path d="M140.197 108.911C140.692 110.09 140.551 113.961 139.825 118.618C138.94 124.293 139.642 130.768 145.149 134.565C149.259 137.398 154.361 137.807 159.219 138.958C159.219 138.958 161.221 136.624 161.692 134.09C164.27 134.121 166.949 132.612 166.949 132.612C166.766 127.623 167.358 122.539 165.379 117.956C162.727 111.815 156.513 109.866 150.774 109.629C146.064 109.434 142.24 108.819 141.18 108.104L140.197 108.911Z" fill="white"/>
</mask>
<g mask="url(#mask5_207_886)">
<path d="M140.197 108.911C140.692 110.09 140.551 113.961 139.825 118.618C138.94 124.293 139.642 130.768 145.149 134.565C149.259 137.398 154.361 137.807 159.219 138.958C159.219 138.958 161.221 136.624 161.692 134.09C164.27 134.121 166.949 132.612 166.949 132.612C166.766 127.623 167.358 122.539 165.379 117.956C162.727 111.815 156.513 109.866 150.774 109.629C146.064 109.434 142.24 108.819 141.18 108.104L140.197 108.911Z" fill="white"/>
<path d="M140.289 108.835C140.691 109.793 140.577 112.937 139.987 116.72C139.268 121.33 139.838 126.59 144.312 129.674C147.651 131.976 151.795 132.308 155.742 133.243C155.742 133.243 157.368 131.347 157.751 129.288C159.845 129.314 162.021 128.087 162.021 128.087C161.872 124.034 162.353 119.905 160.745 116.181C158.591 111.192 153.543 109.609 148.881 109.417C145.055 109.259 141.948 108.759 141.088 108.178L140.289 108.835Z" fill="#F6DCEF"/>
</g>
<mask id="mask6_207_886" style="mask-type:luminance" maskUnits="userSpaceOnUse" x="139" y="108" width="28" height="31">
<path d="M140.197 108.911C140.692 110.09 140.551 113.961 139.825 118.618C138.94 124.293 139.642 130.768 145.149 134.565C149.259 137.398 154.361 137.807 159.219 138.958C159.219 138.958 161.221 136.624 161.692 134.09C164.27 134.121 166.949 132.612 166.949 132.612C166.766 127.623 167.358 122.539 165.379 117.956C162.727 111.815 156.513 109.866 150.774 109.629C146.064 109.434 142.24 108.819 141.18 108.104L140.197 108.911Z" fill="white"/>
</mask>
<g mask="url(#mask6_207_886)">
<path d="M140.463 108.693C140.715 109.264 141.101 111.587 140.832 113.801C140.505 116.498 140.938 119.603 143.594 121.503C143.665 121.554 143.745 121.606 143.833 121.659C148.671 124.59 154.91 119.468 152.976 114.152C152.941 114.055 152.905 113.967 152.869 113.887C151.522 110.911 148.561 109.882 145.852 109.678C143.628 109.511 141.425 108.68 140.914 108.322L140.463 108.693Z" fill="#E89DD5"/>
</g>
<path d="M67.973 35.3921C78.112 44.4941 78.953 60.0921 69.851 70.2311C60.749 80.3701 45.1511 81.2111 35.0121 72.1091C24.8731 63.0071 24.032 47.4091 33.134 37.2701C42.236 27.1311 57.834 26.2901 67.973 35.3921Z" fill="#A61C57"/>
<mask id="mask7_207_886" style="mask-type:luminance" maskUnits="userSpaceOnUse" x="5" y="11" width="44" height="41">
<path d="M48.783 50.0961C47.828 48.5381 47.19 43.036 47.21 36.298C47.233 28.087 44.842 19.0881 36.238 14.9141C29.817 11.7991 22.519 12.324 15.405 11.748C15.405 11.748 13.08 15.479 12.963 19.162C9.31401 19.675 5.854 22.3871 5.854 22.3871C7.192 29.3971 7.454 36.71 11.242 42.759C16.317 50.864 25.521 52.274 33.682 51.368C40.379 50.624 45.917 50.667 47.569 51.449L48.783 50.0961Z" fill="white"/>
</mask>
<g mask="url(#mask7_207_886)">
<path d="M48.783 50.0961C47.828 48.5381 47.19 43.036 47.21 36.298C47.233 28.087 44.842 19.0881 36.238 14.9141C29.817 11.7991 22.519 12.324 15.405 11.748C15.405 11.748 13.08 15.479 12.963 19.162C9.31401 19.675 5.854 22.3871 5.854 22.3871C7.192 29.3971 7.454 36.71 11.242 42.759C16.317 50.864 25.521 52.274 33.682 51.368C40.379 50.624 45.917 50.667 47.569 51.449L48.783 50.0961Z" fill="white"/>
<path d="M48.669 50.2231C47.893 48.9571 47.375 44.488 47.391 39.014C47.41 32.344 45.467 25.0341 38.478 21.6431C33.262 19.1121 27.333 19.539 21.555 19.071C21.555 19.071 19.667 22.1021 19.571 25.0941C16.606 25.5111 13.796 27.7141 13.796 27.7141C14.883 33.4091 15.096 39.3491 18.173 44.2631C22.295 50.8471 29.772 51.992 36.402 51.256C41.842 50.652 46.341 50.6871 47.683 51.3221L48.669 50.2231Z" fill="#F6DCEF"/>
</g>
<mask id="mask8_207_886" style="mask-type:luminance" maskUnits="userSpaceOnUse" x="5" y="11" width="44" height="41">
<path d="M48.783 50.0961C47.828 48.5381 47.19 43.036 47.21 36.298C47.233 28.087 44.842 19.0881 36.238 14.9141C29.817 11.7991 22.519 12.324 15.405 11.748C15.405 11.748 13.08 15.479 12.963 19.162C9.31401 19.675 5.854 22.3871 5.854 22.3871C7.192 29.3971 7.454 36.71 11.242 42.759C16.317 50.864 25.521 52.274 33.682 51.368C40.379 50.624 45.917 50.667 47.569 51.449L48.783 50.0961Z" fill="white"/>
</mask>
<g mask="url(#mask8_207_886)">
<path d="M48.455 50.4631C47.975 49.7111 46.928 46.5111 46.83 43.3251C46.71 39.4431 45.426 35.1491 41.262 33.0371C41.151 32.9811 41.027 32.9251 40.891 32.8681C33.421 29.7721 25.712 38.3591 29.594 45.4531C29.664 45.5821 29.734 45.6991 29.802 45.8041C32.349 49.7181 36.756 50.5321 40.629 50.2341C43.807 49.9891 47.101 50.686 47.9 51.082L48.455 50.4631Z" fill="#E89DD5"/>
</g>
<mask id="mask9_207_886" style="mask-type:luminance" maskUnits="userSpaceOnUse" x="0" y="50" width="49" height="40">
<path d="M47.181 55.1981C45.404 55.6251 39.975 54.5311 33.572 52.4311C25.77 49.8711 16.473 49.3651 9.84399 56.2581C4.89699 61.4021 3.14102 68.5051 0.39502 75.0931C0.39502 75.0931 3.22502 78.457 6.69202 79.707C6.05202 83.336 7.56299 87.4641 7.56299 87.4641C14.644 88.3581 21.679 90.3681 28.603 88.6351C37.879 86.3131 42.065 77.995 43.725 69.954C45.088 63.355 46.839 58.101 48.093 56.772L47.181 55.1981Z" fill="white"/>
</mask>
<g mask="url(#mask9_207_886)">
<path d="M47.181 55.1981C45.404 55.6251 39.975 54.5311 33.572 52.4311C25.77 49.8711 16.473 49.3651 9.84399 56.2581C4.89699 61.4021 3.14102 68.5051 0.39502 75.0931C0.39502 75.0931 3.22502 78.457 6.69202 79.707C6.05202 83.336 7.56299 87.4641 7.56299 87.4641C14.644 88.3581 21.679 90.3681 28.603 88.6351C37.879 86.3131 42.065 77.995 43.725 69.954C45.088 63.355 46.839 58.101 48.093 56.772L47.181 55.1981Z" fill="white"/>
<path d="M47.266 55.3461C45.822 55.6931 41.412 54.8041 36.211 53.0981C29.873 51.0191 22.321 50.6081 16.936 56.2071C12.917 60.3861 11.491 66.1561 9.26001 71.5071C9.26001 71.5071 11.559 74.2401 14.375 75.2551C13.855 78.2031 15.082 81.5571 15.082 81.5571C20.834 82.2831 26.549 83.9161 32.173 82.5081C39.709 80.6221 43.108 73.8651 44.457 67.3331C45.564 61.9721 46.987 57.7041 48.005 56.6241L47.266 55.3461Z" fill="#F6DCEF"/>
</g>
<mask id="mask10_207_886" style="mask-type:luminance" maskUnits="userSpaceOnUse" x="0" y="50" width="49" height="40">
<path d="M47.181 55.1981C45.404 55.6251 39.975 54.5311 33.572 52.4311C25.77 49.8711 16.473 49.3651 9.84399 56.2581C4.89699 61.4021 3.14102 68.5051 0.39502 75.0931C0.39502 75.0931 3.22502 78.457 6.69202 79.707C6.05202 83.336 7.56299 87.4641 7.56299 87.4641C14.644 88.3581 21.679 90.3681 28.603 88.6351C37.879 86.3131 42.065 77.995 43.725 69.954C45.088 63.355 46.839 58.101 48.093 56.772L47.181 55.1981Z" fill="white"/>
</mask>
<g mask="url(#mask10_207_886)">
<path d="M47.427 55.6241C46.563 55.8481 43.197 55.855 40.136 54.964C36.407 53.879 31.9271 53.772 28.6321 57.081C28.5441 57.169 28.4521 57.2701 28.3561 57.3821C23.1031 63.5301 28.888 73.515 36.834 72.016C36.979 71.989 37.112 71.9591 37.232 71.9271C41.741 70.7141 43.8771 66.7751 44.7911 62.9991C45.5411 59.9011 47.221 56.9841 47.845 56.3461L47.427 55.6241Z" fill="#E89DD5"/>
</g>
<mask id="mask11_207_886" style="mask-type:luminance" maskUnits="userSpaceOnUse" x="38" y="57" width="40" height="52">
<path d="M51.5369 58.2991C51.3939 60.1211 48.6759 64.9461 44.6999 70.3871C39.8549 77.0161 36.4999 85.702 41.0069 94.136C44.3709 100.431 50.5839 104.295 55.9999 108.943C55.9999 108.943 60.0739 107.291 62.3339 104.38C65.5879 106.11 69.9809 105.949 69.9809 105.949C73.0189 99.491 77.1049 93.4211 77.5959 86.3011C78.2539 76.7611 71.6369 70.211 64.5019 66.147C58.6469 62.812 54.1919 59.5231 53.3149 57.9191L51.5369 58.2991Z" fill="white"/>
</mask>
<g mask="url(#mask11_207_886)">
<path d="M51.5369 58.2991C51.3939 60.1211 48.6759 64.9461 44.6999 70.3871C39.8549 77.0161 36.4999 85.702 41.0069 94.136C44.3709 100.431 50.5839 104.295 55.9999 108.943C55.9999 108.943 60.0739 107.291 62.3339 104.38C65.5879 106.11 69.9809 105.949 69.9809 105.949C73.0189 99.491 77.1049 93.4211 77.5959 86.3011C78.2539 76.7611 71.6369 70.211 64.5019 66.147C58.6469 62.812 54.1919 59.5231 53.3149 57.9191L51.5369 58.2991Z" fill="white"/>
<path d="M51.7039 58.2631C51.5879 59.7431 49.38 63.6631 46.15 68.0821C42.214 73.4671 39.489 80.5231 43.15 87.3741C45.882 92.4871 50.929 95.6271 55.33 99.4021C55.33 99.4021 58.6389 98.0601 60.4749 95.6951C63.1179 97.1001 66.687 96.9701 66.687 96.9701C69.155 91.7241 72.4739 86.7931 72.8729 81.0091C73.4079 73.2591 68.032 67.9381 62.237 64.6371C57.481 61.9281 53.8609 59.2561 53.1489 57.9531L51.7039 58.2631Z" fill="#F6DCEF"/>
</g>
<mask id="mask12_207_886" style="mask-type:luminance" maskUnits="userSpaceOnUse" x="38" y="57" width="40" height="52">
<path d="M51.5369 58.2991C51.3939 60.1211 48.6759 64.9461 44.6999 70.3871C39.8549 77.0161 36.4999 85.702 41.0069 94.136C44.3709 100.431 50.5839 104.295 55.9999 108.943C55.9999 108.943 60.0739 107.291 62.3339 104.38C65.5879 106.11 69.9809 105.949 69.9809 105.949C73.0189 99.491 77.1049 93.4211 77.5959 86.3011C78.2539 76.7611 71.6369 70.211 64.5019 66.147C58.6469 62.812 54.1919 59.5231 53.3149 57.9191L51.5369 58.2991Z" fill="white"/>
</mask>
<g mask="url(#mask12_207_886)">
<path d="M52.0189 58.196C51.9649 59.087 50.9309 62.291 49.1379 64.926C46.9529 68.138 45.4679 72.366 47.5959 76.522C47.6529 76.633 47.7199 76.751 47.7969 76.877C52.0209 83.773 63.3049 81.356 64.3339 73.336C64.3529 73.19 64.3649 73.054 64.3719 72.93C64.6119 68.267 61.5249 65.018 58.2169 62.982C55.5019 61.312 53.2469 58.812 52.8329 58.021L52.0189 58.196Z" fill="#E89DD5"/>
</g>
<mask id="mask13_207_886" style="mask-type:luminance" maskUnits="userSpaceOnUse" x="55" y="37" width="52" height="40">
<path d="M55.833 55.114C57.522 55.813 61.271 59.889 65.216 65.352C70.024 72.009 77.248 77.883 86.661 76.203C93.687 74.949 99.283 70.234 105.377 66.519C105.377 66.519 105.065 62.134 102.995 59.085C105.646 56.525 106.851 52.297 106.851 52.297C101.648 47.412 97.138 41.6499 90.518 38.9829C81.648 35.4089 73.374 39.678 67.304 45.208C62.323 49.746 57.818 52.967 56.022 53.305L55.833 55.114Z" fill="white"/>
</mask>
<g mask="url(#mask13_207_886)">
<path d="M55.833 55.114C57.522 55.813 61.271 59.889 65.216 65.352C70.024 72.009 77.248 77.883 86.661 76.203C93.687 74.949 99.283 70.234 105.377 66.519C105.377 66.519 105.065 62.134 102.995 59.085C105.646 56.525 106.851 52.297 106.851 52.297C101.648 47.412 97.138 41.6499 90.518 38.9829C81.648 35.4089 73.374 39.678 67.304 45.208C62.323 49.746 57.818 52.967 56.022 53.305L55.833 55.114Z" fill="white"/>
<path d="M55.85 54.944C57.222 55.512 60.267 58.823 63.472 63.261C67.377 68.668 73.246 73.44 80.893 72.076C86.6 71.057 91.146 67.227 96.096 64.209C96.096 64.209 95.842 60.647 94.161 58.17C96.315 56.091 97.293 52.656 97.293 52.656C93.066 48.687 89.402 44.007 84.025 41.841C76.82 38.938 70.098 42.4061 65.167 46.8981C61.121 50.5841 57.461 53.2001 56.002 53.4761L55.85 54.944Z" fill="#F6DCEF"/>
</g>
<mask id="mask14_207_886" style="mask-type:luminance" maskUnits="userSpaceOnUse" x="55" y="37" width="52" height="40">
<path d="M55.833 55.114C57.522 55.813 61.271 59.889 65.216 65.352C70.024 72.009 77.248 77.883 86.661 76.203C93.687 74.949 99.283 70.234 105.377 66.519C105.377 66.519 105.065 62.134 102.995 59.085C105.646 56.525 106.851 52.297 106.851 52.297C101.648 47.412 97.138 41.6499 90.518 38.9829C81.648 35.4089 73.374 39.678 67.304 45.208C62.323 49.746 57.818 52.967 56.022 53.305L55.833 55.114Z" fill="white"/>
</mask>
<g mask="url(#mask14_207_886)">
<path d="M55.884 54.624C56.714 54.95 59.442 56.9239 61.394 59.4429C63.774 62.5129 67.335 65.2319 71.946 64.4919C72.069 64.4729 72.2021 64.4449 72.3461 64.4109C80.2091 62.5249 81.3981 51.0469 74.0881 47.5889C73.9551 47.5259 73.8301 47.4719 73.7141 47.4279C69.3531 45.7589 65.3091 47.6899 62.3511 50.2079C59.9231 52.2739 56.849 53.646 55.97 53.796L55.884 54.624Z" fill="#E89DD5"/>
</g>
<mask id="mask15_207_886" style="mask-type:luminance" maskUnits="userSpaceOnUse" x="55" y="37" width="52" height="40">
<path d="M55.833 55.114C57.522 55.813 61.271 59.889 65.216 65.352C70.024 72.009 77.248 77.883 86.661 76.203C93.687 74.949 99.283 70.234 105.377 66.519C105.377 66.519 105.065 62.134 102.995 59.085C105.646 56.525 106.851 52.297 106.851 52.297C101.648 47.412 97.138 41.6499 90.518 38.9829C81.648 35.4089 73.374 39.678 67.304 45.208C62.323 49.746 57.818 52.967 56.022 53.305L55.833 55.114Z" fill="white"/>
</mask>
<g mask="url(#mask15_207_886)">
<path d="M55.5239 54.7001C56.3539 55.0271 59.0819 57 61.0339 59.519C63.4139 62.589 66.9749 65.308 71.5859 64.569C71.7089 64.549 71.8419 64.522 71.9849 64.488C79.8479 62.602 81.037 51.1241 73.728 47.6661C73.595 47.6031 73.47 47.5491 73.353 47.5051C68.992 45.8361 64.9489 47.767 61.9899 50.285C59.5619 52.351 56.4879 53.7231 55.6079 53.8721L55.5239 54.7001Z" fill="#E89DD5"/>
</g>
<mask id="mask16_207_886" style="mask-type:luminance" maskUnits="userSpaceOnUse" x="45" y="0" width="39" height="51">
<path d="M54.1309 50.0441C55.3179 48.6541 60.353 46.3481 66.767 44.2841C74.583 41.7691 82.4029 36.7141 83.7139 27.2411C84.6929 20.1711 81.938 13.393 80.288 6.44904C80.288 6.44904 76.0209 5.39109 72.4819 6.41809C70.8659 3.10609 67.218 0.654053 67.218 0.654053C60.964 4.09305 54.0909 6.60206 49.5079 12.0731C43.3679 19.4041 44.8709 28.5931 48.2549 36.0751C51.0309 42.2151 52.7029 47.4951 52.4689 49.3071L54.1309 50.0441Z" fill="white"/>
</mask>
<g mask="url(#mask16_207_886)">
<path d="M54.1309 50.0441C55.3179 48.6541 60.353 46.3481 66.767 44.2841C74.583 41.7691 82.4029 36.7141 83.7139 27.2411C84.6929 20.1711 81.938 13.393 80.288 6.44904C80.288 6.44904 76.0209 5.39109 72.4819 6.41809C70.8659 3.10609 67.218 0.654053 67.218 0.654053C60.964 4.09305 54.0909 6.60206 49.5079 12.0731C43.3679 19.4041 44.8709 28.5931 48.2549 36.0751C51.0309 42.2151 52.7029 47.4951 52.4689 49.3071L54.1309 50.0441Z" fill="white"/>
<path d="M53.9749 49.975C54.9389 48.846 59.0289 46.972 64.2399 45.296C70.5889 43.253 76.9409 39.146 78.0059 31.452C78.8009 25.709 76.563 20.203 75.223 14.562C75.223 14.562 71.757 13.703 68.882 14.537C67.57 11.846 64.606 9.85498 64.606 9.85498C59.526 12.648 53.9419 14.686 50.2199 19.131C45.2319 25.086 46.453 32.551 49.202 38.628C51.458 43.616 52.8149 47.905 52.6259 49.377L53.9749 49.975Z" fill="#F6DCEF"/>
</g>
<mask id="mask17_207_886" style="mask-type:luminance" maskUnits="userSpaceOnUse" x="45" y="0" width="39" height="51">
<path d="M54.1309 50.0441C55.3179 48.6541 60.353 46.3481 66.767 44.2841C74.583 41.7691 82.4029 36.7141 83.7139 27.2411C84.6929 20.1711 81.938 13.393 80.288 6.44904C80.288 6.44904 76.0209 5.39109 72.4819 6.41809C70.8659 3.10609 67.218 0.654053 67.218 0.654053C60.964 4.09305 54.0909 6.60206 49.5079 12.0731C43.3679 19.4041 44.8709 28.5931 48.2549 36.0751C51.0309 42.2151 52.7029 47.4951 52.4689 49.3071L54.1309 50.0441Z" fill="white"/>
</mask>
<g mask="url(#mask17_207_886)">
<path d="M53.681 49.8451C54.248 49.1561 56.9679 47.1722 59.9669 46.0932C63.6219 44.7792 67.309 42.2321 68.03 37.6181C68.049 37.4951 68.0639 37.3602 68.0759 37.2132C68.7119 29.1522 58.1629 24.4741 52.6149 30.3571C52.5139 30.4641 52.4239 30.5662 52.3459 30.6632C49.4109 34.2952 49.998 38.7372 51.478 42.3282C52.693 45.2752 53.048 48.6231 52.918 49.5061L53.681 49.8451Z" fill="#E89DD5"/>
</g>
<path d="M48.195 51.6651C44.864 50.2721 41.549 48.8291 38.179 47.5321C36.198 46.7691 34.1449 46.2251 32.0809 45.7431C30.1009 45.2801 28.192 45.579 26.247 45.194C25.567 45.059 25.289 46.1011 25.971 46.2371C29.155 46.8681 32.28 46.8141 35.494 47.7581C39.667 48.9831 43.657 50.9301 47.663 52.6051C48.298 52.8691 48.836 51.9331 48.195 51.6651Z" fill="white"/>
<path d="M51.2501 52.9C43.8071 48.626 39.4431 43.377 39.2051 34.479C39.1861 33.784 38.1081 33.786 38.1271 34.481C38.3761 43.782 42.909 49.353 50.72 53.839C51.323 54.185 51.8531 53.246 51.2501 52.9Z" fill="white"/>
<path d="M51.9521 53.709C45.3561 49.916 34.2281 52.2411 28.4111 56.4861C27.8551 56.8921 28.4021 57.8221 28.9651 57.4111C34.4601 53.4021 45.1631 51.048 51.4211 54.647C52.0241 54.995 52.5551 54.056 51.9521 53.709Z" fill="white"/>
<path d="M50.8341 53.351C42.7361 56.872 34.6 60.282 26.17 62.938C25.508 63.146 25.7941 64.186 26.4581 63.977C34.9781 61.293 43.2031 57.835 51.3871 54.277C52.0231 54 51.4631 53.077 50.8341 53.351Z" fill="white"/>
<path d="M50.6351 53.6491C46.7181 60.3721 41.8351 66.4201 34.5241 69.5511C33.8871 69.8241 34.4481 70.7461 35.0781 70.4761C42.5471 67.2781 47.5731 61.0461 51.5741 54.1801C51.9241 53.5781 50.9851 53.0481 50.6351 53.6491Z" fill="white"/>
<path d="M51.048 53.352C49.781 55.586 50.588 59.782 50.633 62.167C50.728 67.178 51.3241 72.167 52.1581 77.104C52.2741 77.789 53.3121 77.494 53.1971 76.816C52.4671 72.5 51.9971 68.1879 51.7701 63.8189C51.6451 61.4159 50.7091 56.1369 51.9861 53.8839C52.3301 53.2779 51.391 52.747 51.048 53.352Z" fill="white"/>
<path d="M51.0071 53.4401C51.0261 56.1221 53.263 58.9891 54.561 61.1491C57.195 65.5331 60.5281 69.5481 63.5661 73.6551C63.9751 74.2081 64.9051 73.6611 64.4911 73.1011C62.0281 69.7721 59.5311 66.4651 57.1201 63.0981C55.3921 60.6841 52.1071 56.5681 52.0861 53.4391C52.0811 52.7421 51.0031 52.7451 51.0071 53.4401Z" fill="white"/>
<path d="M51.569 54.6031C54.843 56.0031 58.0401 57.452 61.0201 59.417C64.8641 61.952 67.4181 65.947 69.8771 69.732C70.2541 70.313 71.182 69.763 70.802 69.178C68.448 65.555 66.074 62.12 62.724 59.344C59.635 56.783 55.75 55.226 52.099 53.665C51.468 53.394 50.93 54.3301 51.569 54.6031Z" fill="white"/>
<path d="M51.673 54.828C59.559 56.056 67.32 57.802 74.973 60.069C75.642 60.267 75.913 59.223 75.249 59.027C67.596 56.76 59.835 55.014 51.949 53.786C51.267 53.679 50.987 54.721 51.673 54.828Z" fill="white"/>
<path d="M51.6921 54.4961C61.4421 54.3091 71.112 53.6811 80.842 52.8581C81.531 52.8001 81.5331 51.7212 80.8401 51.7802C71.1111 52.6032 61.4411 53.2312 51.6901 53.4182C50.9941 53.4312 50.9971 54.5091 51.6921 54.4961Z" fill="white"/>
<path d="M51.7331 53.6991C59.2721 50.5951 67.0701 49.0751 75.2311 49.1401C75.9281 49.1461 75.9231 48.0671 75.2291 48.0621C66.9771 47.9961 59.0821 49.5161 51.4451 52.6601C50.8101 52.9211 51.0911 53.9631 51.7331 53.6991Z" fill="white"/>
<path d="M51.698 54.403C56.285 51.836 59.785 47.903 63.973 44.785C67.432 42.21 70.078 39.73 72.302 35.991C72.658 35.392 71.719 34.863 71.364 35.46C68.956 39.51 65.966 41.963 62.231 44.744C58.427 47.576 55.329 51.135 51.144 53.477C50.538 53.817 51.091 54.743 51.698 54.403Z" fill="white"/>
<path d="M51.24 53.1851C54.447 51.1441 56.194 47.6301 57.974 44.3851C60.051 40.6001 61.713 36.5991 63.123 32.5231C63.351 31.8641 62.306 31.5951 62.08 32.2471C60.823 35.8821 59.325 39.3971 57.58 42.8241C55.866 46.1891 53.953 50.1791 50.686 52.2591C50.101 52.6321 50.652 53.5601 51.24 53.1851Z" fill="white"/>
<path d="M51.8071 53.595C50.0281 49.85 51.7311 45.166 52.2271 41.29C52.6951 37.634 52.0731 34.233 50.7991 30.805C50.5591 30.158 49.5181 30.4411 49.7601 31.0931C51.6641 36.2171 51.2841 40.71 50.4371 45.995C49.9991 48.729 49.6591 51.575 50.8811 54.149C51.1791 54.776 52.1031 54.218 51.8071 53.595Z" fill="white"/>
<path d="M51.3231 53.1611C43.6271 49.5481 36.1051 44.861 30.1131 38.785C29.6251 38.29 28.8731 39.063 29.3611 39.558C35.4141 45.696 43.0221 50.452 50.7911 54.099C51.4181 54.393 51.9531 53.4571 51.3231 53.1611Z" fill="white"/>
<path d="M50.9111 53.1931C52.2501 63.2981 55.329 72.7991 60.194 81.7521C60.526 82.3631 61.4511 81.8081 61.1191 81.1981C56.3431 72.4071 53.3021 63.1041 51.9891 53.1911C51.9001 52.5111 50.8201 52.5061 50.9111 53.1931Z" fill="white"/>
<path d="M52.006 52.7421C45.056 49.3261 42.981 41.9551 44.202 34.7211C44.317 34.0401 43.275 33.7601 43.159 34.4451C41.86 42.1371 44.079 50.0451 51.474 53.6801C52.096 53.9861 52.631 53.0491 52.006 52.7421Z" fill="white"/>
<path d="M49.787 54.51C48.586 61.252 46.8179 67.83 44.4749 74.265C44.2369 74.92 45.282 75.188 45.517 74.541C47.859 68.106 49.628 61.528 50.829 54.786C50.951 54.104 49.909 53.826 49.787 54.51Z" fill="white"/>
<path d="M51.6731 52.4781C51.7401 49.3521 53.4771 46.295 54.6701 43.482C55.7931 40.833 56.9821 38.213 58.2011 35.607C58.4941 34.981 57.5581 34.445 57.2631 35.076C55.7391 38.334 54.2842 41.6211 52.8952 44.9391C51.8782 47.3701 50.6531 49.804 50.5961 52.479C50.5791 53.176 51.6581 53.1711 51.6731 52.4781Z" fill="white"/>
<path d="M53.795 76.209C54.331 76.69 54.376 77.5151 53.894 78.0511C53.413 78.5871 52.5881 78.6311 52.0521 78.1501C51.5161 77.6691 51.4711 76.844 51.9531 76.308C52.4341 75.773 53.259 75.728 53.795 76.209Z" fill="#A61C57"/>
<path d="M61.7781 80.6251C62.3461 81.1351 62.393 82.0081 61.883 82.5761C61.373 83.1441 60.4991 83.1912 59.9311 82.6812C59.3631 82.1712 59.316 81.2981 59.826 80.7301C60.336 80.1631 61.2101 80.1151 61.7781 80.6251Z" fill="#A61C57"/>
<path d="M65.441 72.1621C66.063 72.7201 66.1141 73.6761 65.5561 74.2981C64.9981 74.9201 64.042 74.9711 63.42 74.4131C62.799 73.8551 62.7471 72.8991 63.3051 72.2771C63.8631 71.6561 64.819 71.6051 65.441 72.1621Z" fill="#A61C57"/>
<path d="M71.636 68.508C72.327 69.128 72.384 70.192 71.764 70.883C71.143 71.574 70.08 71.631 69.389 71.011C68.698 70.391 68.64 69.327 69.261 68.636C69.881 67.944 70.945 67.887 71.636 68.508Z" fill="#A61C57"/>
<path d="M76.147 58.393C76.619 58.817 76.658 59.543 76.234 60.015C75.81 60.487 75.084 60.5261 74.612 60.1031C74.14 59.6791 74.101 58.9531 74.524 58.4811C74.948 58.0091 75.675 57.97 76.147 58.393Z" fill="#A61C57"/>
<path d="M82.3111 51.106C82.8901 51.626 82.9382 52.517 82.4182 53.096C81.8982 53.675 81.0071 53.723 80.4281 53.203C79.8491 52.683 79.8011 51.792 80.3211 51.213C80.8401 50.634 81.7311 50.586 82.3111 51.106Z" fill="#A61C57"/>
<path d="M76.209 47.5101C76.811 48.0511 76.861 48.9771 76.321 49.5791C75.78 50.1811 74.854 50.2311 74.252 49.6911C73.65 49.1501 73.6 48.2241 74.14 47.6221C74.68 47.0201 75.607 46.9701 76.209 47.5101Z" fill="#A61C57"/>
<path d="M72.975 34.721C73.596 35.278 73.6471 36.234 73.0901 36.854C72.5331 37.475 71.578 37.526 70.957 36.969C70.336 36.412 70.285 35.457 70.842 34.836C71.399 34.215 72.354 34.164 72.975 34.721Z" fill="#A61C57"/>
<path d="M64.047 30.7771C64.76 31.4171 64.819 32.5141 64.179 33.2271C63.539 33.9401 62.442 33.9991 61.729 33.3591C61.016 32.7191 60.957 31.6221 61.597 30.9091C62.237 30.1961 63.334 30.1361 64.047 30.7771Z" fill="#A61C57"/>
<path d="M50.9871 29.8351C51.5221 30.3151 51.5661 31.1381 51.0861 31.6721C50.6061 32.2071 49.7832 32.2511 49.2492 31.7711C48.7142 31.2911 48.6702 30.4681 49.1502 29.9341C49.6302 29.3991 50.4531 29.3551 50.9871 29.8351Z" fill="#A61C57"/>
<path d="M39.6301 32.993C40.1361 33.447 40.177 34.225 39.724 34.73C39.27 35.235 38.492 35.277 37.987 34.824C37.481 34.37 37.4391 33.592 37.8931 33.087C38.3461 32.581 39.1241 32.539 39.6301 32.993Z" fill="#A61C57"/>
<path d="M30.836 37.9481C31.468 38.5161 31.521 39.488 30.953 40.121C30.385 40.753 29.413 40.8061 28.78 40.2381C28.148 39.6701 28.095 38.6981 28.663 38.0651C29.231 37.4331 30.203 37.3801 30.836 37.9481Z" fill="#A61C57"/>
<path d="M29.862 55.6402C30.585 56.2892 30.645 57.4012 29.996 58.1242C29.347 58.8472 28.2351 58.9071 27.5121 58.2581C26.7891 57.6091 26.729 56.4972 27.378 55.7752C28.028 55.0512 29.14 54.9912 29.862 55.6402Z" fill="#A61C57"/>
<path d="M27.1351 62.33C27.7051 62.841 27.752 63.718 27.24 64.288C26.729 64.858 25.852 64.905 25.282 64.393C24.712 63.882 24.6651 63.005 25.1761 62.435C25.6881 61.866 26.5651 61.818 27.1351 62.33Z" fill="#A61C57"/>
<path d="M35.276 68.938C36.06 69.642 36.1251 70.848 35.4211 71.632C34.7171 72.416 33.511 72.481 32.727 71.777C31.943 71.073 31.878 69.867 32.582 69.083C33.286 68.299 34.492 68.234 35.276 68.938Z" fill="#A61C57"/>
<path d="M26.833 44.711C27.338 45.165 27.381 45.943 26.927 46.448C26.473 46.954 25.696 46.996 25.19 46.542C24.685 46.088 24.643 45.31 25.096 44.805C25.549 44.299 26.327 44.257 26.833 44.711Z" fill="#A61C57"/>
<path d="M45.714 73.6041C46.253 74.0881 46.297 74.9161 45.814 75.4551C45.33 75.9941 44.501 76.0381 43.963 75.5551C43.424 75.0711 43.38 74.2431 43.863 73.7041C44.346 73.1651 45.175 73.1211 45.714 73.6041Z" fill="#A61C57"/>
<path d="M44.7751 33.3641C45.3451 33.8761 45.392 34.7521 44.881 35.3221C44.37 35.8921 43.493 35.939 42.923 35.428C42.353 34.916 42.3061 34.04 42.8171 33.47C43.3291 32.9 44.2051 32.8531 44.7751 33.3641Z" fill="#A61C57"/>
<path d="M58.7291 34.1041C59.2351 34.5581 59.2771 35.3351 58.8231 35.8411C58.3691 36.3461 57.5921 36.3891 57.0861 35.9351C56.5801 35.4811 56.5391 34.7031 56.9921 34.1981C57.4461 33.6921 58.2241 33.6501 58.7291 34.1041Z" fill="#A61C57"/>
<path d="M56.8919 47.736C60.2139 50.718 60.4889 55.828 57.5069 59.15C54.5249 62.472 49.4149 62.747 46.0929 59.765C42.7709 56.783 42.4959 51.673 45.4779 48.351C48.4599 45.029 53.5699 44.754 56.8919 47.736Z" fill="white"/>
<path d="M55.5058 49.28C57.9748 51.496 58.1799 55.2949 55.9629 57.7629C53.7469 60.2319 49.9488 60.4369 47.4798 58.2209C45.0108 56.0049 44.8059 52.2059 47.0229 49.7369C49.2389 47.2679 53.0368 47.063 55.5058 49.28Z" fill="#A61C57"/>
<path d="M54.3339 50.585C56.0819 52.154 56.227 54.843 54.658 56.591C53.089 58.339 50.3999 58.484 48.6519 56.915C46.9039 55.346 46.759 52.657 48.328 50.909C49.897 49.161 52.5859 49.016 54.3339 50.585Z" fill="#6B0D2E"/>
<path d="M50.6649 57.3431C51.0539 57.6931 51.0869 58.2921 50.7369 58.6821C50.3869 59.0711 49.7879 59.1041 49.3979 58.7541C49.0079 58.4051 48.9759 57.8051 49.3259 57.4151C49.6769 57.0261 50.2759 56.9931 50.6649 57.3431Z" fill="#A61C57"/>
<path d="M46.4639 56.3521C46.8539 56.7021 46.886 57.3011 46.536 57.6911C46.186 58.0811 45.587 58.1131 45.197 57.7631C44.807 57.4131 44.7749 56.8142 45.1249 56.4242C45.4749 56.0352 46.0739 56.0021 46.4639 56.3521Z" fill="#A61C57"/>
<path d="M47.6499 52.2591C48.0399 52.6091 48.0719 53.2081 47.7219 53.5981C47.3719 53.9881 46.7729 54.0201 46.3829 53.6701C45.9939 53.3201 45.9609 52.7211 46.3109 52.3311C46.6609 51.9411 47.2599 51.9101 47.6499 52.2591Z" fill="#C4246B"/>
<path d="M46.4249 50.0231C46.8149 50.3731 46.8469 50.972 46.4969 51.362C46.1469 51.752 45.5479 51.7841 45.1579 51.4341C44.7679 51.0841 44.7359 50.485 45.0859 50.095C45.4359 49.706 46.0349 49.6731 46.4249 50.0231Z" fill="#A61C57"/>
<path d="M45.6259 52.122C46.0149 52.472 46.0479 53.071 45.6979 53.461C45.3479 53.85 44.7489 53.883 44.3589 53.533C43.9689 53.184 43.9369 52.584 44.2869 52.194C44.6369 51.804 45.2359 51.772 45.6259 52.122Z" fill="#891542"/>
<path d="M45.609 54.2281C45.999 54.5781 46.031 55.1771 45.681 55.5671C45.331 55.9571 44.7319 55.9891 44.3419 55.6391C43.9519 55.2891 43.92 54.6901 44.27 54.3001C44.62 53.9101 45.219 53.8781 45.609 54.2281Z" fill="#891542"/>
<path d="M49.0699 50.6771C49.4599 51.0271 49.4919 51.6261 49.1419 52.0161C48.7919 52.4061 48.1929 52.4381 47.8029 52.0881C47.4129 51.7381 47.3809 51.1391 47.7309 50.7491C48.0809 50.3591 48.6809 50.3271 49.0699 50.6771Z" fill="#891542"/>
<path d="M49.9949 47.3431C50.3849 47.6931 50.417 48.2921 50.067 48.6821C49.717 49.0721 49.118 49.1041 48.728 48.7541C48.338 48.4051 48.3059 47.8051 48.6559 47.4161C49.0059 47.0251 49.6049 46.9931 49.9949 47.3431Z" fill="#891542"/>
<path d="M51.9359 46.3541C52.3259 46.7031 52.3579 47.3031 52.0079 47.6921C51.6579 48.0821 51.0589 48.114 50.6689 47.764C50.2789 47.414 50.2469 46.815 50.5969 46.425C50.9469 46.036 51.5469 46.0041 51.9359 46.3541Z" fill="#A61C57"/>
<path d="M54.418 46.6731C54.808 47.0231 54.8399 47.6221 54.4899 48.0121C54.1399 48.4011 53.541 48.4341 53.151 48.0841C52.762 47.7341 52.7289 47.1351 53.0789 46.7451C53.4289 46.3561 54.028 46.3231 54.418 46.6731Z" fill="#891542"/>
<path d="M56.243 47.946C56.633 48.296 56.665 48.895 56.315 49.285C55.965 49.675 55.366 49.707 54.976 49.357C54.586 49.007 54.554 48.408 54.904 48.018C55.254 47.628 55.853 47.596 56.243 47.946Z" fill="#A61C57"/>
<path d="M48.064 48.6541C48.454 49.0041 48.4859 49.6031 48.1359 49.9931C47.7859 50.3821 47.1869 50.4151 46.7969 50.0651C46.4069 49.7161 46.3749 49.1162 46.7249 48.7262C47.0749 48.3372 47.675 48.3041 48.064 48.6541Z" fill="#C4246B"/>
<path d="M50.7719 49.3151C51.1619 49.6651 51.194 50.2641 50.844 50.6541C50.494 51.0441 49.895 51.0761 49.505 50.7261C49.116 50.3761 49.0829 49.7771 49.4329 49.3871C49.7829 48.9971 50.3829 48.9651 50.7719 49.3151Z" fill="#C4246B"/>
<path d="M52.8079 48.221C53.1979 48.571 53.2299 49.17 52.8799 49.56C52.5299 49.95 51.931 49.9821 51.541 49.6321C51.151 49.2831 51.1189 48.683 51.4689 48.294C51.8189 47.903 52.4179 47.871 52.8079 48.221Z" fill="#C4246B"/>
<path d="M56.4549 51.4951C56.8449 51.8451 56.8769 52.4441 56.5269 52.8341C56.1769 53.2241 55.5779 53.2561 55.1879 52.9061C54.7979 52.5561 54.7659 51.9571 55.1159 51.5671C55.4659 51.1781 56.0649 51.1451 56.4549 51.4951Z" fill="#891542"/>
<path d="M54.7089 49.654C55.0989 50.003 55.1309 50.603 54.7809 50.993C54.4309 51.383 53.832 51.415 53.442 51.065C53.052 50.715 53.0199 50.116 53.3699 49.726C53.7199 49.336 54.3199 49.304 54.7089 49.654Z" fill="#A61C57"/>
<path d="M57.586 49.81C57.976 50.16 58.008 50.759 57.658 51.149C57.308 51.538 56.709 51.571 56.319 51.221C55.929 50.871 55.897 50.272 56.247 49.882C56.597 49.492 57.197 49.46 57.586 49.81Z" fill="#C4246B"/>
<path d="M48.2869 57.756C48.6769 58.106 48.7089 58.705 48.3589 59.095C48.0089 59.484 47.41 59.5171 47.02 59.1671C46.63 58.8171 46.5979 58.2181 46.9479 57.8281C47.2979 57.4381 47.8979 57.406 48.2869 57.756Z" fill="#C4246B"/>
<path d="M47.645 54.4261C48.034 54.7761 48.067 55.3751 47.717 55.7651C47.367 56.1551 46.768 56.1871 46.378 55.8371C45.989 55.4871 45.956 54.8881 46.306 54.4981C46.656 54.1081 47.255 54.0761 47.645 54.4261Z" fill="#A61C57"/>
<path d="M49.283 55.698C49.672 56.048 49.7049 56.647 49.3549 57.037C49.0049 57.427 48.4059 57.4591 48.0159 57.1091C47.6259 56.7591 47.5939 56.1601 47.9439 55.7701C48.2939 55.3811 48.894 55.349 49.283 55.698Z" fill="#891542"/>
<path d="M52.2549 55.8181C52.6449 56.1681 52.6769 56.767 52.3269 57.157C51.9769 57.546 51.3778 57.5791 50.9878 57.2291C50.5988 56.8791 50.5659 56.2801 50.9159 55.8901C51.2659 55.5001 51.8649 55.4681 52.2549 55.8181Z" fill="#891542"/>
<path d="M51.3449 53.9921C51.7349 54.3421 51.7669 54.9411 51.4169 55.3311C51.0669 55.7211 50.4679 55.7531 50.0779 55.4031C49.6879 55.0531 49.6559 54.4541 50.0059 54.0641C50.3569 53.6751 50.9559 53.6431 51.3449 53.9921Z" fill="#C4246B"/>
<path d="M52.594 52.7151C52.94 53.0261 52.969 53.5591 52.658 53.9051C52.347 54.2521 51.814 54.2801 51.468 53.9691C51.122 53.6581 51.093 53.1251 51.404 52.7791C51.715 52.4331 52.248 52.4041 52.594 52.7151Z" fill="#891542"/>
<path d="M56.3579 53.6811C56.7479 54.0311 56.7799 54.6301 56.4299 55.0201C56.0799 55.4101 55.4809 55.4421 55.0909 55.0921C54.7019 54.7421 54.6689 54.1431 55.0189 53.7531C55.3689 53.3641 55.9679 53.3321 56.3579 53.6811Z" fill="#A61C57"/>
<path d="M55.6549 55.884C56.0449 56.234 56.0769 56.833 55.7269 57.223C55.3769 57.612 54.7779 57.645 54.3879 57.295C53.9979 56.945 53.9659 56.346 54.3159 55.956C54.6659 55.566 55.2649 55.534 55.6549 55.884Z" fill="#891542"/>
<path d="M53.857 57.1971C54.246 57.5471 54.279 58.1461 53.929 58.5361C53.58 58.9261 52.98 58.9581 52.591 58.6081C52.201 58.2581 52.169 57.6591 52.519 57.2691C52.868 56.8801 53.467 56.8471 53.857 57.1971Z" fill="#C4246B"/>
<path d="M53.9699 54.4681C54.3589 54.8181 54.392 55.4171 54.042 55.8071C53.693 56.1971 53.093 56.2291 52.703 55.8791C52.314 55.5291 52.2809 54.9301 52.6309 54.5401C52.9809 54.1511 53.5809 54.1191 53.9699 54.4681Z" fill="#A61C57"/>
<path d="M51.961 59.0831C52.351 59.4331 52.383 60.0321 52.033 60.4221C51.683 60.8121 51.084 60.8441 50.694 60.4941C50.304 60.1441 50.272 59.5451 50.622 59.1551C50.972 58.7661 51.571 58.7331 51.961 59.0831Z" fill="#A61C57"/>
<path d="M50.059 59.3471C50.449 59.6971 50.4809 60.2961 50.1309 60.6861C49.7809 61.0761 49.1819 61.1081 48.7919 60.7581C48.4019 60.4081 48.3699 59.8091 48.7199 59.4191C49.0699 59.0291 49.67 58.9971 50.059 59.3471Z" fill="#C4246B"/>
<path d="M54.4149 59.0311C54.8049 59.3811 54.8369 59.98 54.4869 60.37C54.1369 60.759 53.5379 60.7921 53.1479 60.4421C52.7579 60.0931 52.7259 59.4931 53.0759 59.1031C53.4259 58.7141 54.0259 58.6821 54.4149 59.0311Z" fill="#891542"/>
<path d="M56.52 58.0311C56.91 58.3811 56.9419 58.9801 56.5919 59.3701C56.2419 59.7601 55.643 59.7921 55.253 59.4421C54.863 59.0921 54.831 58.4931 55.181 58.1031C55.531 57.7131 56.13 57.6811 56.52 58.0311Z" fill="#A61C57"/>
<path d="M57.8729 56.0991C58.2629 56.4491 58.2949 57.0481 57.9449 57.4381C57.5949 57.8281 56.9959 57.8601 56.6059 57.5101C56.2159 57.1601 56.1839 56.5611 56.5339 56.1711C56.8839 55.7811 57.4829 55.7491 57.8729 56.0991Z" fill="#891542"/>
<path d="M58.5289 53.948C58.9189 54.298 58.9509 54.897 58.6009 55.287C58.2509 55.677 57.6519 55.7091 57.2619 55.3591C56.8719 55.0091 56.8399 54.4101 57.1899 54.0201C57.5399 53.6311 58.1399 53.599 58.5289 53.948Z" fill="#C4246B"/>
<path d="M58.593 51.6951C58.983 52.0451 59.0149 52.6441 58.6649 53.0341C58.3149 53.4231 57.716 53.4562 57.326 53.1062C56.936 52.7562 56.904 52.1572 57.254 51.7672C57.604 51.3782 58.203 51.3451 58.593 51.6951Z" fill="#A61C57"/>
<path d="M54.5069 51.8901C54.8959 52.2401 54.9289 52.8391 54.5789 53.2291C54.2289 53.6181 53.6299 53.6511 53.2399 53.3011C52.8499 52.9511 52.8179 52.3521 53.1679 51.9621C53.5179 51.5721 54.1169 51.5401 54.5069 51.8901Z" fill="#C4246B"/>
<path d="M52.6989 50.3982C53.0889 50.7482 53.1209 51.3471 52.7709 51.7371C52.4209 52.1271 51.8219 52.1592 51.4319 51.8092C51.0419 51.4592 51.0099 50.8601 51.3599 50.4701C51.7099 50.0801 52.3099 50.0482 52.6989 50.3982Z" fill="#891542"/>
<path d="M50.9169 51.631C51.3069 51.981 51.339 52.58 50.989 52.97C50.639 53.36 50.04 53.3921 49.65 53.0421C49.26 52.6921 49.2279 52.0931 49.5779 51.7031C49.9289 51.3131 50.5279 51.281 50.9169 51.631Z" fill="#A61C57"/>
<path d="M49.4899 53.3361C49.8799 53.6861 49.912 54.2851 49.562 54.6751C49.212 55.0651 48.613 55.0971 48.223 54.7471C47.833 54.3971 47.8009 53.7981 48.1509 53.4081C48.5009 53.0181 49.0999 52.9861 49.4899 53.3361Z" fill="#891542"/>
</svg>
